<svg xmlns="http://www.w3.org/2000/svg" viewBox="0 0 1200 820" font-family="Segoe UI, Arial, sans-serif">
<style>
  .lbl{font-size:12px;fill:#1f2937}.sub{font-size:10px;fill:#6b7280}.ttl{font-size:13px;font-weight:600;fill:#111827}
  .big{font-size:16px;fill:#374151}
  .body{fill:#fff}.rt{stroke:#2F7DD1}.sw{stroke:#15A179}.fw{stroke:#E24B4A}.srv{stroke:#7F77DD}.db{stroke:#6b7280}.cl{stroke:#9aa0a6}
  .rdr{fill:#FAEEDA;stroke:#BA7517;stroke-width:1.2}
  .l3{stroke:#111827;stroke-width:1.4;stroke-dasharray:9 6;fill:none}
  .l7{stroke:#2F86C8;stroke-width:1.8;stroke-dasharray:2 4;stroke-linecap:round;fill:none}
  .nfc{stroke:#BA7517;stroke-width:1.3;fill:none}
  .arr{stroke:#6b7280;stroke-width:1.1;fill:none}
  .wire{stroke:#374151;stroke-width:1.1;fill:none}
</style>
<defs><marker id="a" viewBox="0 0 10 10" refX="8" refY="5" markerWidth="6" markerHeight="6" orient="auto-start-reverse"><path d="M2 1L8 5L2 9" fill="none" stroke="context-stroke" stroke-width="1.5"/></marker></defs>

<text class="ttl" x="600" y="24" text-anchor="middle">Architettura generale — flussi L3 IP e L7 MQTT (sistema RFID metropolitano)</text>
<text class="big" x="470" y="430" text-anchor="middle" opacity="0.7">Internet o LAN — rete di trasporto IP</text>

<!-- ===================== CLOUDS ===================== -->
<path class="body cl" d="M270 270 q-18 0 -22 -22 q-30 -6 -22 -34 q-20 -22 8 -36 q4 -30 40 -24 q18 -28 52 -12 q30 -18 50 8 q34 -4 30 30 q26 12 8 40 q10 30 -26 30 q-12 22 -44 12 q-26 18 -52 0 q-28 8 -30 -10 Z" transform="translate(227,-200)"/>
<path class="body cl" d="M270 270 q-18 0 -22 -22 q-30 -6 -22 -34 q-20 -22 8 -36 q4 -30 40 -24 q18 -28 52 -12 q30 -18 50 8 q34 -4 30 30 q26 12 8 40 q10 30 -26 30 q-12 22 -44 12 q-26 18 -52 0 q-28 8 -30 -10 Z" transform="translate(-143,110)"/>
<path class="body cl" d="M270 270 q-18 0 -22 -22 q-30 -6 -22 -34 q-20 -22 8 -36 q4 -30 40 -24 q18 -28 52 -12 q30 -18 50 8 q34 -4 30 30 q26 12 8 40 q10 30 -26 30 q-12 22 -44 12 q-26 18 -52 0 q-28 8 -30 -10 Z" transform="translate(227,300)"/>
<path class="body cl" d="M270 270 q-18 0 -22 -22 q-30 -6 -22 -34 q-20 -22 8 -36 q4 -30 40 -24 q18 -28 52 -12 q30 -18 50 8 q34 -4 30 30 q26 12 8 40 q10 30 -26 30 q-12 22 -44 12 q-26 18 -52 0 q-28 8 -30 -10 Z" transform="translate(747,30)"/>

<!-- ===================== SITO 1: GW Cat. A All-in-one (pontile) ===================== -->
<rect x="380" y="120" width="240" height="170" rx="6" fill="none" stroke="#9ca3af" stroke-width="0.7"/>
<line class="wire" x1="497" y1="120" x2="497" y2="95"/>
<!-- FW -->
<g transform="translate(500,160)">
  <rect class="body fw" x="-23" y="-15" width="46" height="30" rx="2"/>
  <line class="fw" x1="-23" y1="-5" x2="23" y2="-5" stroke-width="0.7"/><line class="fw" x1="-23" y1="5" x2="23" y2="5" stroke-width="0.7"/>
  <line class="fw" x1="-8" y1="-15" x2="-8" y2="-5" stroke-width="0.7"/><line class="fw" x1="9" y1="-15" x2="9" y2="-5" stroke-width="0.7"/>
  <line class="fw" x1="0" y1="-5" x2="0" y2="5" stroke-width="0.7"/><line class="fw" x1="-8" y1="5" x2="-8" y2="15" stroke-width="0.7"/><line class="fw" x1="9" y1="5" x2="9" y2="15" stroke-width="0.7"/>
</g>
<text class="sub" x="392" y="150">39.68.34.121</text>
<text class="sub" x="392" y="163">DHCP-NAT-FW-VPN</text>
<text class="sub" x="528" y="165">.11.1</text>
<!-- server edge -->
<g transform="translate(500,228)">
  <rect class="body srv" x="-13" y="-20" width="26" height="40" rx="3"/>
  <line class="srv" x1="-13" y1="-6" x2="13" y2="-6" stroke-width="0.7"/><line class="srv" x1="-13" y1="7" x2="13" y2="7" stroke-width="0.7"/><circle cx="-8" cy="-14" r="1.4" fill="#7F77DD"/>
</g>
<text class="sub" x="392" y="212">Server edge / Middleware RFID</text>
<text class="sub" x="392" y="225">Client MQTT · Client VPN</text>
<text class="sub" x="392" y="238">Bridge reader→MQTT (Pub/Sub)</text>
<text class="lbl" x="500" y="306" text-anchor="middle" font-weight="600">GW Cat. A — All-in-one (pontile)</text>
<line class="wire" x1="500" y1="175" x2="500" y2="208"/>
<!-- reader + card -->
<g transform="translate(250,180)"><rect class="rdr" x="-20" y="-15" width="40" height="30" rx="5"/><circle cx="0" cy="-1" r="7" fill="none" stroke="#BA7517"/></g>
<text class="sub" x="250" y="208" text-anchor="middle">Reader fisso</text>
<g transform="translate(250,250)"><rect x="-16" y="-11" width="32" height="22" rx="3" fill="#fff" stroke="#6b7280"/><rect x="-12" y="-5" width="8" height="6" rx="1" fill="#e8c97a" stroke="#BA7517"/></g>
<text class="sub" x="250" y="275" text-anchor="middle">card / smartphone</text>
<path class="nfc" d="M250 197 a10 10 0 0 1 0 20 M250 201 a6 6 0 0 1 0 12"/>
<line class="wire" x1="270" y1="180" x2="477" y2="220"/>

<!-- ===================== SITO 2: Stazione Cat. A full ===================== -->
<line class="wire" x1="147" y1="410" x2="170" y2="438"/>
<g transform="translate(180,455)">
  <rect class="body fw" x="-23" y="-15" width="46" height="30" rx="2"/>
  <line class="fw" x1="-23" y1="-5" x2="23" y2="-5" stroke-width="0.7"/><line class="fw" x1="-23" y1="5" x2="23" y2="5" stroke-width="0.7"/>
  <line class="fw" x1="-8" y1="-15" x2="-8" y2="-5" stroke-width="0.7"/><line class="fw" x1="9" y1="-15" x2="9" y2="-5" stroke-width="0.7"/>
  <line class="fw" x1="0" y1="-5" x2="0" y2="5" stroke-width="0.7"/><line class="fw" x1="-8" y1="5" x2="-8" y2="15" stroke-width="0.7"/><line class="fw" x1="9" y1="5" x2="9" y2="15" stroke-width="0.7"/>
</g>
<text class="sub" x="40" y="448">39.68.34.122</text>
<text class="sub" x="40" y="461">DHCP-NAT-FW-VPN</text>
<text class="sub" x="208" y="460">.12.1</text>
<!-- CS/AS1 -->
<g transform="translate(180,525)">
  <rect class="body sw" x="-28" y="-13" width="56" height="26" rx="3"/>
  <line class="sw" x1="-18" y1="-6" x2="14" y2="-6" marker-end="url(#a)"/><line class="sw" x1="18" y1="-1" x2="-14" y2="-1" marker-end="url(#a)"/><line class="sw" x1="-18" y1="4" x2="14" y2="4" marker-end="url(#a)"/>
</g>
<text class="sub" x="120" y="520" text-anchor="end">.2.254</text>
<text class="sub" x="180" y="552" text-anchor="middle">CS/AS1</text>
<line class="wire" x1="180" y1="470" x2="180" y2="512"/>
<!-- DS1 DS2 -->
<g transform="translate(110,600)"><rect class="body sw" x="-26" y="-12" width="52" height="24" rx="3"/><line class="sw" x1="-16" y1="-5" x2="12" y2="-5" marker-end="url(#a)"/><line class="sw" x1="16" y1="2" x2="-12" y2="2" marker-end="url(#a)"/></g>
<text class="sub" x="110" y="624" text-anchor="middle">DS1</text>
<g transform="translate(255,595)"><rect class="body sw" x="-26" y="-12" width="52" height="24" rx="3"/><line class="sw" x1="-16" y1="-5" x2="12" y2="-5" marker-end="url(#a)"/><line class="sw" x1="16" y1="2" x2="-12" y2="2" marker-end="url(#a)"/></g>
<text class="sub" x="290" y="592" text-anchor="middle">DS2</text>
<line class="wire" x1="170" y1="538" x2="115" y2="588"/>
<line class="wire" x1="195" y1="538" x2="248" y2="583"/>
<!-- GW server edge (.2.1) -->
<g transform="translate(255,670)">
  <ellipse class="body rt" cx="0" cy="5" rx="20" ry="5.5"/><path class="body rt" d="M-20 5 V-4 A20 5.5 0 0 1 20 -4 V5"/><ellipse class="body rt" cx="0" cy="-4" rx="20" ry="5.5"/>
  <line class="rt" x1="-8" y1="-6" x2="10" y2="-6" marker-end="url(#a)"/><line class="rt" x1="8" y1="-2" x2="-10" y2="-2" marker-end="url(#a)"/>
</g>
<text class="sub" x="255" y="700" text-anchor="middle">GW Cat. A (.2.1)</text>
<text class="sub" x="255" y="713" text-anchor="middle">Client MQTT · server edge</text>
<line class="wire" x1="262" y1="607" x2="258" y2="655"/>
<text class="lbl" x="150" y="740" text-anchor="middle" font-weight="600">Stazione Cat. A</text>
<!-- reader + card -->
<g transform="translate(70,640)"><rect class="rdr" x="-20" y="-15" width="40" height="30" rx="5"/><circle cx="0" cy="-1" r="7" fill="none" stroke="#BA7517"/></g>
<text class="sub" x="70" y="668" text-anchor="middle">Reader fisso</text>
<g transform="translate(70,712)"><rect x="-16" y="-11" width="32" height="22" rx="3" fill="#fff" stroke="#6b7280"/><rect x="-12" y="-5" width="8" height="6" rx="1" fill="#e8c97a" stroke="#BA7517"/></g>
<path class="nfc" d="M70 657 a10 10 0 0 1 0 20 M70 661 a6 6 0 0 1 0 12"/>
<line class="wire" x1="90" y1="635" x2="84" y2="600"/>

<!-- ===================== SITO 3: Fermata Cat. B ===================== -->
<line class="wire" x1="517" y1="590" x2="520" y2="618"/>
<g transform="translate(520,635)">
  <rect class="body fw" x="-23" y="-15" width="46" height="30" rx="2"/>
  <line class="fw" x1="-23" y1="-5" x2="23" y2="-5" stroke-width="0.7"/><line class="fw" x1="-23" y1="5" x2="23" y2="5" stroke-width="0.7"/>
  <line class="fw" x1="-8" y1="-15" x2="-8" y2="-5" stroke-width="0.7"/><line class="fw" x1="9" y1="-15" x2="9" y2="-5" stroke-width="0.7"/>
  <line class="fw" x1="0" y1="-5" x2="0" y2="5" stroke-width="0.7"/><line class="fw" x1="-8" y1="5" x2="-8" y2="15" stroke-width="0.7"/><line class="fw" x1="9" y1="5" x2="9" y2="15" stroke-width="0.7"/>
</g>
<text class="sub" x="392" y="628">39.68.34.123 · router 4G/5G</text>
<text class="sub" x="392" y="641">DHCP-NAT-FW-VPN</text>
<text class="sub" x="548" y="640">.13.1</text>
<!-- 2 reader IP nativi MQTT -->
<g transform="translate(470,710)"><rect class="rdr" x="-20" y="-15" width="40" height="30" rx="5"/><circle cx="0" cy="-1" r="7" fill="none" stroke="#BA7517"/></g>
<text class="sub" x="470" y="738" text-anchor="middle">Reader 1 (MQTT)</text>
<g transform="translate(580,710)"><rect class="rdr" x="-20" y="-15" width="40" height="30" rx="5"/><circle cx="0" cy="-1" r="7" fill="none" stroke="#BA7517"/></g>
<text class="sub" x="580" y="738" text-anchor="middle">Reader 2 (ridond.)</text>
<line class="wire" x1="510" y1="648" x2="478" y2="693"/>
<line class="wire" x1="530" y1="648" x2="572" y2="693"/>
<g transform="translate(470,780)"><rect x="-16" y="-11" width="32" height="22" rx="3" fill="#fff" stroke="#6b7280"/><rect x="-12" y="-5" width="8" height="6" rx="1" fill="#e8c97a" stroke="#BA7517"/></g>
<path class="nfc" d="M470 727 a9 9 0 0 1 0 18 M470 731 a5 5 0 0 1 0 10"/>
<text class="lbl" x="525" y="772" text-anchor="middle" font-weight="600">Fermata Cat. B</text>

<!-- ===================== BROKER centrale ===================== -->
<g transform="translate(740,500)">
  <rect class="body sw" x="-28" y="-13" width="56" height="26" rx="3"/>
  <line class="sw" x1="-18" y1="-6" x2="14" y2="-6" marker-end="url(#a)"/><line class="sw" x1="18" y1="-1" x2="-14" y2="-1" marker-end="url(#a)"/><line class="sw" x1="-18" y1="4" x2="14" y2="4" marker-end="url(#a)"/>
</g>
<text class="lbl" x="740" y="478" text-anchor="middle" font-weight="600">Broker MQTT</text>
<text class="sub" x="772" y="500">.0.2</text>

<!-- ===================== CENTRO DI GESTIONE (SUM) ===================== -->
<text class="ttl" x="1040" y="210" text-anchor="middle">Centro di gestione e comando (SUM)</text>
<line class="wire" x1="1037" y1="350" x2="1040" y2="388"/>
<g transform="translate(1040,405)">
  <rect class="body fw" x="-23" y="-15" width="46" height="30" rx="2"/>
  <line class="fw" x1="-23" y1="-5" x2="23" y2="-5" stroke-width="0.7"/><line class="fw" x1="-23" y1="5" x2="23" y2="5" stroke-width="0.7"/>
  <line class="fw" x1="-8" y1="-15" x2="-8" y2="-5" stroke-width="0.7"/><line class="fw" x1="9" y1="-15" x2="9" y2="-5" stroke-width="0.7"/>
  <line class="fw" x1="0" y1="-5" x2="0" y2="5" stroke-width="0.7"/><line class="fw" x1="-8" y1="5" x2="-8" y2="15" stroke-width="0.7"/><line class="fw" x1="9" y1="5" x2="9" y2="15" stroke-width="0.7"/>
</g>
<text class="sub" x="930" y="388">port forward 8883</text>
<text class="sub" x="930" y="401">198.64.5.1:8883</text>
<text class="sub" x="1068" y="398">.11.2</text>
<text class="sub" x="1068" y="411">.12.2 .13.2</text>
<text class="sub" x="1068" y="424">.3.254</text>
<!-- CS/AS1 -->
<g transform="translate(1040,475)">
  <rect class="body sw" x="-28" y="-13" width="56" height="26" rx="3"/>
  <line class="sw" x1="-18" y1="-6" x2="14" y2="-6" marker-end="url(#a)"/><line class="sw" x1="18" y1="-1" x2="-14" y2="-1" marker-end="url(#a)"/><line class="sw" x1="-18" y1="4" x2="14" y2="4" marker-end="url(#a)"/>
</g>
<text class="sub" x="1040" y="502" text-anchor="middle">CS/AS1  .3.1</text>
<line class="wire" x1="1040" y1="420" x2="1040" y2="462"/>
<!-- servers -->
<g transform="translate(990,575)"><rect class="body srv" x="-13" y="-20" width="26" height="40" rx="3"/><line class="srv" x1="-13" y1="-6" x2="13" y2="-6" stroke-width="0.7"/><line class="srv" x1="-13" y1="7" x2="13" y2="7" stroke-width="0.7"/><circle cx="-8" cy="-14" r="1.4" fill="#7F77DD"/></g>
<text class="sub" x="990" y="600" text-anchor="middle">App server / SUM core</text>
<text class="sub" x="990" y="613" text-anchor="middle">Client MQTT (Sub) .3.x</text>
<g transform="translate(1110,560)"><rect class="body db" x="-13" y="-20" width="26" height="40" rx="3"/><line class="db" x1="-13" y1="-6" x2="13" y2="-6" stroke-width="0.7"/><line class="db" x1="-13" y1="7" x2="13" y2="7" stroke-width="0.7"/></g>
<text class="sub" x="1110" y="585" text-anchor="middle">Server Web .3.3</text>
<g transform="translate(1110,625)"><rect class="body db" x="-13" y="-18" width="26" height="36" rx="3"/><ellipse class="body db" cx="0" cy="-12" rx="12" ry="3.2"/><ellipse cx="0" cy="0" rx="12" ry="3.2" fill="none" stroke="#6b7280" stroke-width="0.7"/></g>
<text class="sub" x="1110" y="650" text-anchor="middle">Analisi/storage (DB) .3.4</text>
<line class="wire" x1="1025" y1="487" x2="995" y2="557"/>
<line class="wire" x1="1055" y1="482" x2="1100" y2="545"/>
<line class="wire" x1="1058" y1="487" x2="1100" y2="610"/>
<text class="sub" x="990" y="640" text-anchor="middle">Controllori: Client MQTT / HTTPS</text>

<!-- ===================== FLUSSI L3 (dorsali logiche VPN) ===================== -->
<path class="l3" d="M523 165 L1015 405"/>
<text class="sub" x="800" y="270">Dorsale logica 1 — 10.0.11.0/30</text>
<path class="l3" d="M203 455 L1015 408"/>
<text class="sub" x="610" y="455">Dorsale logica 2 — 10.0.12.0/30</text>
<path class="l3" d="M543 635 L1017 420"/>
<text class="sub" x="800" y="560">Dorsale logica 3 — 10.0.13.0/30</text>

<!-- ===================== FLUSSI L7 (MQTT verso broker) ===================== -->
<path class="l7" d="M500 248 Q620 380 718 492"/>
<path class="l7" d="M278 668 Q520 560 716 508"/>
<path class="l7" d="M520 695 Q640 600 720 514"/>
<path class="l7" d="M990 555 Q870 520 768 504"/>

<!-- ===================== LEGENDA ===================== -->
<rect x="820" y="690" width="360" height="110" rx="6" fill="none" stroke="#d1d5db" stroke-width="0.5"/>
<text class="lbl" x="834" y="710" font-weight="600">Legenda</text>
<line class="l3" x1="834" y1="728" x2="884" y2="728"/>
<text class="sub" x="894" y="732">Collegamento L3 IP (dorsali VPN tra firewall)</text>
<line class="l7" x1="834" y1="750" x2="884" y2="750"/>
<text class="sub" x="894" y="754">Collegamento L7 MQTT (client ↔ broker)</text>
<path class="nfc" d="M834 770 q6 -8 12 0 q6 8 12 0 q6 -8 12 0 q6 8 12 0"/>
<text class="sub" x="894" y="774">Collegamento wireless L2 NFC/RFID HF (ISO 14443)</text>
<text class="sub" x="834" y="792">Router=cilindro · switch=box · firewall=muretto · server=tower · pastiglia=reader</text>
</svg>
