<svg xmlns="http://www.w3.org/2000/svg" viewBox="0 0 560 350" width="560" height="350" font-family="Segoe UI, system-ui, sans-serif">
  <defs><marker id="a" markerWidth="9" markerHeight="9" refX="7" refY="4" orient="auto"><path d="M0,0 L8,4 L0,8 Z" fill="#6b7280"/></marker></defs>
  <line x1="150" y1="84" x2="150" y2="150" stroke="#6b7280" stroke-width="1.5"/>
  <line x1="150" y1="196" x2="150" y2="248" stroke="#6b7280" stroke-width="1.5"/>
  <line x1="280" y1="284" x2="360" y2="284" stroke="#6b7280" stroke-width="1.5"/>
  <ellipse cx="150" cy="50" rx="120" ry="34" fill="#fecaca" stroke="#dc2626" stroke-width="1.5"/>
  <text x="150" y="46" text-anchor="middle" font-size="13" font-weight="600" fill="#7f1d1d">Rete contabile</text>
  <text x="150" y="63" text-anchor="middle" font-size="12" fill="#7f1d1d">192.168.10.0/28</text>
  <text x="160" y="106" font-size="11" fill="#374151">f0/1 · 192.168.10.1</text>
  <rect x="100" y="150" width="100" height="46" rx="8" fill="#fde68a" stroke="#d97706" stroke-width="1.5"/>
  <text x="150" y="178" text-anchor="middle" font-size="13" font-weight="600" fill="#78350f">router2</text>
  <text x="160" y="232" font-size="11" fill="#374151">f0/0 · 172.16.3.254</text>
  <ellipse cx="150" cy="284" rx="130" ry="36" fill="#bbf7d0" stroke="#16a34a" stroke-width="1.5"/>
  <text x="150" y="280" text-anchor="middle" font-size="13" font-weight="600" fill="#14532d">Rete commerciale</text>
  <text x="150" y="297" text-anchor="middle" font-size="12" fill="#14532d">172.16.0.0/22</text>
  <text x="320" y="276" text-anchor="middle" font-size="11" fill="#374151">f0/1 · 172.16.0.1</text>
  <rect x="360" y="261" width="100" height="46" rx="8" fill="#fde68a" stroke="#d97706" stroke-width="1.5"/>
  <text x="410" y="289" text-anchor="middle" font-size="13" font-weight="600" fill="#78350f">router1</text>
  <ellipse cx="512" cy="200" rx="44" ry="30" fill="#e0e7ff" stroke="#6366f1" stroke-width="1.5"/>
  <text x="512" y="197" text-anchor="middle" font-size="12" font-weight="600" fill="#3730a3">ISP</text>
  <text x="512" y="212" text-anchor="middle" font-size="10" fill="#3730a3">Internet</text>
  <line x1="460" y1="280" x2="492" y2="226" stroke="#6b7280" stroke-width="1.5" marker-end="url(#a)"/>
  <text x="450" y="332" text-anchor="middle" font-size="10" fill="#374151">f0/0 · 200.1.2.3/30 (IP pubblico)</text>
</svg>
