<svg xmlns="http://www.w3.org/2000/svg" viewBox="0 0 620 500" width="620" height="500" font-family="Segoe UI, system-ui, sans-serif">
  <line x1="310" y1="86" x2="310" y2="156" stroke="#9ca3af" stroke-width="1.3"/>
  <line x1="310" y1="234" x2="190" y2="296" stroke="#9ca3af" stroke-width="1.3"/>
  <line x1="310" y1="234" x2="440" y2="296" stroke="#9ca3af" stroke-width="1.3"/>
  <line x1="190" y1="374" x2="190" y2="406" stroke="#9ca3af" stroke-width="1.3"/>
  <line x1="440" y1="374" x2="440" y2="406" stroke="#9ca3af" stroke-width="1.3"/>
  <!-- root -->
  <ellipse cx="310" cy="52" rx="56" ry="34" fill="#fde68a" stroke="#d97706" stroke-width="1.6"/>
  <text x="310" y="48" text-anchor="middle" font-size="13" font-weight="700" fill="#78350f">router2</text>
  <text x="310" y="64" text-anchor="middle" font-size="12" fill="#78350f">Ed.1</text>
  <!-- child green -->
  <ellipse cx="310" cy="195" rx="64" ry="38" fill="#d1fae5" stroke="#10b981" stroke-width="1.5"/>
  <text x="310" y="190" text-anchor="middle" font-size="12" font-weight="600" fill="#065f46">comm. Ed.1</text>
  <text x="310" y="206" text-anchor="middle" font-size="11" fill="#065f46">172.16.0.0/22</text>
  <!-- mid orange -->
  <ellipse cx="190" cy="335" rx="62" ry="38" fill="#fed7aa" stroke="#f97316" stroke-width="1.5"/>
  <text x="190" y="330" text-anchor="middle" font-size="12" font-weight="600" fill="#7c2d12">transito</text>
  <text x="190" y="346" text-anchor="middle" font-size="11" fill="#7c2d12">10.10.10.0/30</text>
  <text x="242" y="312" font-size="16" font-weight="700" fill="#dc2626">✗</text>
  <ellipse cx="440" cy="335" rx="62" ry="38" fill="#fed7aa" stroke="#f97316" stroke-width="1.5"/>
  <text x="440" y="330" text-anchor="middle" font-size="12" font-weight="600" fill="#7c2d12">WAN</text>
  <text x="440" y="346" text-anchor="middle" font-size="11" fill="#7c2d12">200.1.2.0/30</text>
  <text x="492" y="312" font-size="16" font-weight="700" fill="#dc2626">✗</text>
  <!-- leaves orange -->
  <ellipse cx="190" cy="445" rx="64" ry="38" fill="#fed7aa" stroke="#f97316" stroke-width="1.5"/>
  <text x="190" y="440" text-anchor="middle" font-size="12" font-weight="600" fill="#7c2d12">comm. Ed.2</text>
  <text x="190" y="456" text-anchor="middle" font-size="11" fill="#7c2d12">192.168.1.32/27</text>
  <text x="244" y="422" font-size="16" font-weight="700" fill="#dc2626">✗</text>
  <ellipse cx="440" cy="445" rx="62" ry="38" fill="#fed7aa" stroke="#f97316" stroke-width="1.5"/>
  <text x="440" y="440" text-anchor="middle" font-size="12" font-weight="600" fill="#7c2d12">default</text>
  <text x="440" y="456" text-anchor="middle" font-size="11" fill="#7c2d12">0.0.0.0/0</text>
  <text x="492" y="422" font-size="16" font-weight="700" fill="#dc2626">✗</text>
</svg>
