<svg viewBox="0 0 980 540" xmlns="http://www.w3.org/2000/svg" font-family="Segoe UI, Arial, sans-serif">
  <style>
    .tit{font-size:13px;font-weight:700;fill:#202124}
    .sub{font-size:11px;fill:#5f6368}
    .dev{fill:#e8f0fe;stroke:#1a73e8}
    .gw{fill:#e6f4ea;stroke:#137333}
    .brk{fill:#ede7f6;stroke:#6a1b9a}
    .net{fill:#fef7e0;stroke:#ea8600}
    .wire{stroke:#5f6368;stroke-width:2;fill:none;marker-end:url(#ar)}
    .zb{stroke:#ea8600;stroke-width:2;stroke-dasharray:5 4;fill:none;marker-end:url(#ar)}
  </style>
  <defs>
    <marker id="ar" markerWidth="9" markerHeight="9" refX="7" refY="3" orient="auto">
      <path d="M0,0 L7,3 L0,6 Z" fill="#5f6368"/>
    </marker>
  </defs>

  <text x="490" y="26" text-anchor="middle" class="tit" font-size="16">Dati IoT: trasporti diversi, stesso schema MQTT</text>

  <!-- Zigbee group 1 -->
  <rect x="30" y="60" width="180" height="56" rx="8" class="dev" stroke-width="1.5"/>
  <text x="120" y="82" text-anchor="middle" class="sub" font-weight="700">Sensori Zigbee — gruppo 1</text>
  <text x="120" y="100" text-anchor="middle" class="sub">furto / incendio</text>
  <!-- GW wireless -->
  <rect x="270" y="56" width="190" height="64" rx="8" class="gw" stroke-width="2"/>
  <text x="365" y="80" text-anchor="middle" class="sub" font-weight="700">GW wireless</text>
  <text x="365" y="98" text-anchor="middle" class="sub">coord. Zigbee + uplink Wi-Fi</text>
  <text x="365" y="113" text-anchor="middle" class="sub">traduce Zigbee → MQTT</text>
  <path d="M210 88 L268 88" class="zb"/>
  <text x="238" y="78" text-anchor="middle" class="sub" fill="#ea8600">Zigbee</text>

  <!-- Zigbee group 2 -->
  <rect x="30" y="150" width="180" height="56" rx="8" class="dev" stroke-width="1.5"/>
  <text x="120" y="172" text-anchor="middle" class="sub" font-weight="700">Sensori Zigbee — gruppo 2</text>
  <text x="120" y="190" text-anchor="middle" class="sub">furto / incendio</text>
  <!-- GW wired -->
  <rect x="270" y="146" width="190" height="64" rx="8" class="gw" stroke-width="2"/>
  <text x="365" y="170" text-anchor="middle" class="sub" font-weight="700">GW wired</text>
  <text x="365" y="188" text-anchor="middle" class="sub">coord. Zigbee + uplink Ethernet</text>
  <text x="365" y="203" text-anchor="middle" class="sub">traduce Zigbee → MQTT</text>
  <path d="M210 178 L268 178" class="zb"/>
  <text x="238" y="168" text-anchor="middle" class="sub" fill="#ea8600">Zigbee</text>

  <!-- WiFi native -->
  <rect x="270" y="236" width="190" height="50" rx="8" class="dev" stroke-width="1.5"/>
  <text x="365" y="257" text-anchor="middle" class="sub" font-weight="700">Sensori Wi-Fi nativi</text>
  <text x="365" y="274" text-anchor="middle" class="sub">MQTT diretto</text>

  <!-- Ethernet native -->
  <rect x="270" y="302" width="190" height="50" rx="8" class="dev" stroke-width="1.5"/>
  <text x="365" y="323" text-anchor="middle" class="sub" font-weight="700">Sensori Ethernet nativi</text>
  <text x="365" y="340" text-anchor="middle" class="sub">MQTT diretto</text>

  <!-- Broker edge -->
  <rect x="540" y="150" width="180" height="110" rx="8" class="brk" stroke-width="2"/>
  <text x="630" y="186" text-anchor="middle" class="tit">Broker MQTT</text>
  <text x="630" y="206" text-anchor="middle" class="sub">edge cantiere</text>
  <text x="630" y="226" text-anchor="middle" class="sub">allarmi real-time</text>
  <text x="630" y="244" text-anchor="middle" class="sub">QoS 1 · LWT</text>

  <path d="M460 90 Q500 90 538 165" class="wire"/>
  <text x="500" y="120" class="sub">MQTT/TLS</text>
  <path d="M460 178 L538 188" class="wire"/>
  <path d="M460 261 Q500 261 538 230" class="wire"/>
  <path d="M460 327 Q505 327 538 245" class="wire"/>

  <!-- HQ -->
  <rect x="780" y="150" width="180" height="110" rx="8" class="net" stroke-width="2"/>
  <text x="870" y="184" text-anchor="middle" class="tit">Sede centrale</text>
  <text x="870" y="206" text-anchor="middle" class="sub">broker + sistema allarmi</text>
  <text x="870" y="224" text-anchor="middle" class="sub">DB log storico</text>
  <text x="870" y="242" text-anchor="middle" class="sub">sub: cantiere/+/+/+/+/alarm</text>
  <path d="M720 205 L778 205" class="wire"/>
  <text x="749" y="196" text-anchor="middle" class="sub">bridge</text>

  <!-- banner -->
  <rect x="30" y="400" width="930" height="110" rx="8" fill="#f3e5f5" stroke="#6a1b9a"/>
  <text x="48" y="424" class="tit" fill="#4a148c">Normalizzazione applicativa</text>
  <text x="48" y="448" class="sub">I gateway Zigbee traducono ogni report nel formato comune; i sensori Wi-Fi/Ethernet pubblicano già nello stesso schema.</text>
  <text x="48" y="468" class="sub">Il broker e i consumatori vedono un unico albero di topic e un unico payload JSON, indipendente dal trasporto.</text>
  <text x="48" y="492" class="sub" font-weight="700" fill="#4a148c">cantiere/{site}/{zona}/{tipo}/{device}/{alarm|state|cmd|config}  ·  campo "transport": zigbee | wifi | ethernet</text>
</svg>
