<svg viewBox="0 0 680 760" xmlns="http://www.w3.org/2000/svg" font-family="Arial, sans-serif" font-size="11">
  <rect width="680" height="760" fill="#f8f9fa"/>
  <text x="340" y="22" text-anchor="middle" font-size="13" font-weight="bold" fill="#2c3e50">Planimetria - coordinatore Zigbee PoE a soffitto, lampade FFD come router mesh</text>

  <rect x="40" y="32" width="600" height="30" rx="6" fill="#f1efe8" stroke="#b4b2a9" stroke-width="0.7"/>
  <rect x="56" y="40" width="20" height="14" rx="3" fill="#185fa5"/><text x="82" y="51" fill="#2c3e50" font-size="9">coordinatore PoE (soffitto)</text>
  <circle cx="248" cy="47" r="7" fill="#1d9e75"/><text x="262" y="51" fill="#2c3e50" font-size="9">lampada FFD (router)</text>
  <rect x="400" y="40" width="14" height="14" rx="3" fill="#ba7517"/><text x="420" y="51" fill="#2c3e50" font-size="9">RFD batteria</text>
  <line x1="510" y1="47" x2="544" y2="47" stroke="#1d9e75" stroke-width="1.2" stroke-dasharray="4,3"/><text x="550" y="51" fill="#2c3e50" font-size="9">link Zigbee</text>

  <!-- PIANO TERRA -->
  <rect x="40" y="72" width="600" height="130" rx="8" fill="#e1f5ee" stroke="#0f6e56" stroke-width="0.7"/>
  <text x="56" y="90" font-size="12" font-weight="bold" fill="#0f6e56">Piano terra (canale Zigbee 11)</text>
  <rect x="56" y="98" width="568" height="28" rx="4" fill="#9fe1cb" stroke="#0f6e56" stroke-width="0.6"/>
  <text x="340" y="116" text-anchor="middle" font-size="10" fill="#085041">corridoio</text>
  <rect x="298" y="102" width="24" height="20" rx="3" fill="#185fa5"/><text x="310" y="116" text-anchor="middle" font-size="9" fill="#e6f1fb">GW</text>
  <line x1="310" y1="126" x2="310" y2="138" stroke="#888780" stroke-width="1" stroke-dasharray="3,2"/><text x="328" y="135" font-size="8" fill="#5f5e5a">eth</text>
  <circle cx="90" cy="112" r="7" fill="#1d9e75"/><circle cx="170" cy="112" r="7" fill="#1d9e75"/><circle cx="250" cy="112" r="7" fill="#1d9e75"/>
  <circle cx="400" cy="112" r="7" fill="#1d9e75"/><circle cx="480" cy="112" r="7" fill="#1d9e75"/><circle cx="560" cy="112" r="7" fill="#1d9e75"/>
  <line x1="298" y1="112" x2="257" y2="112" stroke="#1d9e75" stroke-width="1" stroke-dasharray="4,3"/>
  <line x1="243" y1="112" x2="177" y2="112" stroke="#1d9e75" stroke-width="1" stroke-dasharray="4,3"/>
  <line x1="163" y1="112" x2="97" y2="112" stroke="#1d9e75" stroke-width="1" stroke-dasharray="4,3"/>
  <line x1="322" y1="112" x2="393" y2="112" stroke="#1d9e75" stroke-width="1" stroke-dasharray="4,3"/>
  <line x1="407" y1="112" x2="473" y2="112" stroke="#1d9e75" stroke-width="1" stroke-dasharray="4,3"/>
  <line x1="487" y1="112" x2="553" y2="112" stroke="#1d9e75" stroke-width="1" stroke-dasharray="4,3"/>
  <rect x="56" y="142" width="130" height="44" rx="4" fill="#f1efe8" stroke="#b4b2a9" stroke-width="0.6"/>
  <text x="121" y="160" text-anchor="middle" font-size="11" font-weight="bold" fill="#2c2c2a">Reception</text><text x="121" y="176" text-anchor="middle" font-size="9" fill="#5f5e5a">lamp FFD + RFD</text>
  <rect x="203" y="142" width="130" height="44" rx="4" fill="#f1efe8" stroke="#b4b2a9" stroke-width="0.6"/>
  <text x="268" y="160" text-anchor="middle" font-size="11" font-weight="bold" fill="#2c2c2a">Hall</text><text x="268" y="176" text-anchor="middle" font-size="9" fill="#5f5e5a">2 lamp FFD + RFD</text>
  <rect x="350" y="142" width="130" height="44" rx="4" fill="#f1efe8" stroke="#b4b2a9" stroke-width="0.6"/>
  <text x="415" y="160" text-anchor="middle" font-size="11" font-weight="bold" fill="#2c2c2a">S. Congressi</text><text x="415" y="176" text-anchor="middle" font-size="9" fill="#5f5e5a">3 lamp FFD + CMD</text>
  <rect x="497" y="142" width="130" height="44" rx="4" fill="#f1efe8" stroke="#b4b2a9" stroke-width="0.6"/>
  <text x="562" y="160" text-anchor="middle" font-size="11" font-weight="bold" fill="#2c2c2a">Cucina</text><text x="562" y="176" text-anchor="middle" font-size="9" fill="#5f5e5a">2 lamp FFD + RFD</text>

  <!-- PIANO 1 -->
  <rect x="40" y="212" width="600" height="120" rx="8" fill="#eeedfe" stroke="#534ab7" stroke-width="0.7"/>
  <text x="56" y="230" font-size="12" font-weight="bold" fill="#3c3489">Piano 1 - 12 stanze (canale Zigbee 15)</text>
  <rect x="56" y="238" width="568" height="28" rx="4" fill="#cecbf6" stroke="#534ab7" stroke-width="0.6"/>
  <text x="340" y="256" text-anchor="middle" font-size="10" fill="#3c3489">corridoio piano 1</text>
  <rect x="298" y="242" width="24" height="20" rx="3" fill="#185fa5"/><text x="310" y="256" text-anchor="middle" font-size="9" fill="#e6f1fb">GW</text>
  <line x1="310" y1="266" x2="310" y2="276" stroke="#888780" stroke-width="1" stroke-dasharray="3,2"/><text x="328" y="274" font-size="8" fill="#5f5e5a">eth</text>
  <circle cx="90" cy="252" r="7" fill="#534ab7"/><circle cx="170" cy="252" r="7" fill="#534ab7"/><circle cx="250" cy="252" r="7" fill="#534ab7"/>
  <circle cx="400" cy="252" r="7" fill="#534ab7"/><circle cx="480" cy="252" r="7" fill="#534ab7"/><circle cx="560" cy="252" r="7" fill="#534ab7"/>
  <line x1="298" y1="252" x2="257" y2="252" stroke="#534ab7" stroke-width="1" stroke-dasharray="4,3"/>
  <line x1="243" y1="252" x2="177" y2="252" stroke="#534ab7" stroke-width="1" stroke-dasharray="4,3"/>
  <line x1="163" y1="252" x2="97" y2="252" stroke="#534ab7" stroke-width="1" stroke-dasharray="4,3"/>
  <line x1="322" y1="252" x2="393" y2="252" stroke="#534ab7" stroke-width="1" stroke-dasharray="4,3"/>
  <line x1="407" y1="252" x2="473" y2="252" stroke="#534ab7" stroke-width="1" stroke-dasharray="4,3"/>
  <line x1="487" y1="252" x2="553" y2="252" stroke="#534ab7" stroke-width="1" stroke-dasharray="4,3"/>
  <g font-size="9" fill="#2c2c2a" text-anchor="middle">
  <rect x="56" y="278" width="86" height="44" rx="4" fill="#f1efe8" stroke="#b4b2a9" stroke-width="0.6"/><text x="99" y="298" font-weight="bold">S101</text><text x="99" y="313" font-size="8" fill="#5f5e5a">L + RFD</text>
  <rect x="150" y="278" width="86" height="44" rx="4" fill="#f1efe8" stroke="#b4b2a9" stroke-width="0.6"/><text x="193" y="298" font-weight="bold">S102</text><text x="193" y="313" font-size="8" fill="#5f5e5a">L + RFD</text>
  <rect x="244" y="278" width="86" height="44" rx="4" fill="#f1efe8" stroke="#b4b2a9" stroke-width="0.6"/><text x="287" y="298" font-weight="bold">S103</text><text x="287" y="313" font-size="8" fill="#5f5e5a">L + RFD</text>
  <rect x="350" y="278" width="86" height="44" rx="4" fill="#f1efe8" stroke="#b4b2a9" stroke-width="0.6"/><text x="393" y="298" font-weight="bold">S104</text><text x="393" y="313" font-size="8" fill="#5f5e5a">L + RFD</text>
  <rect x="444" y="278" width="86" height="44" rx="4" fill="#f1efe8" stroke="#b4b2a9" stroke-width="0.6"/><text x="487" y="298" font-weight="bold">S105</text><text x="487" y="313" font-size="8" fill="#5f5e5a">L + RFD</text>
  <rect x="538" y="278" width="86" height="44" rx="4" fill="#f1efe8" stroke="#b4b2a9" stroke-width="0.6"/><text x="581" y="298" font-weight="bold">S106..S112</text><text x="581" y="313" font-size="8" fill="#5f5e5a">x7 stanze</text>
  </g>

  <!-- PIANO 2 -->
  <rect x="40" y="342" width="600" height="120" rx="8" fill="#faece7" stroke="#993c1d" stroke-width="0.7"/>
  <text x="56" y="360" font-size="12" font-weight="bold" fill="#712b13">Piano 2 - 12 stanze (canale Zigbee 20)</text>
  <rect x="56" y="368" width="568" height="28" rx="4" fill="#f5c4b3" stroke="#993c1d" stroke-width="0.6"/>
  <text x="340" y="386" text-anchor="middle" font-size="10" fill="#712b13">corridoio piano 2</text>
  <rect x="298" y="372" width="24" height="20" rx="3" fill="#185fa5"/><text x="310" y="386" text-anchor="middle" font-size="9" fill="#e6f1fb">GW</text>
  <line x1="310" y1="396" x2="310" y2="406" stroke="#888780" stroke-width="1" stroke-dasharray="3,2"/><text x="328" y="404" font-size="8" fill="#5f5e5a">eth</text>
  <circle cx="90" cy="382" r="7" fill="#993c1d"/><circle cx="170" cy="382" r="7" fill="#993c1d"/><circle cx="250" cy="382" r="7" fill="#993c1d"/>
  <circle cx="400" cy="382" r="7" fill="#993c1d"/><circle cx="480" cy="382" r="7" fill="#993c1d"/><circle cx="560" cy="382" r="7" fill="#993c1d"/>
  <line x1="298" y1="382" x2="257" y2="382" stroke="#993c1d" stroke-width="1" stroke-dasharray="4,3"/>
  <line x1="243" y1="382" x2="177" y2="382" stroke="#993c1d" stroke-width="1" stroke-dasharray="4,3"/>
  <line x1="163" y1="382" x2="97" y2="382" stroke="#993c1d" stroke-width="1" stroke-dasharray="4,3"/>
  <line x1="322" y1="382" x2="393" y2="382" stroke="#993c1d" stroke-width="1" stroke-dasharray="4,3"/>
  <line x1="407" y1="382" x2="473" y2="382" stroke="#993c1d" stroke-width="1" stroke-dasharray="4,3"/>
  <line x1="487" y1="382" x2="553" y2="382" stroke="#993c1d" stroke-width="1" stroke-dasharray="4,3"/>
  <g font-size="9" fill="#2c2c2a" text-anchor="middle">
  <rect x="56" y="408" width="86" height="44" rx="4" fill="#f1efe8" stroke="#b4b2a9" stroke-width="0.6"/><text x="99" y="428" font-weight="bold">S201</text><text x="99" y="443" font-size="8" fill="#5f5e5a">L + RFD</text>
  <rect x="150" y="408" width="86" height="44" rx="4" fill="#f1efe8" stroke="#b4b2a9" stroke-width="0.6"/><text x="193" y="428" font-weight="bold">S202</text><text x="193" y="443" font-size="8" fill="#5f5e5a">L + RFD</text>
  <rect x="244" y="408" width="86" height="44" rx="4" fill="#f1efe8" stroke="#b4b2a9" stroke-width="0.6"/><text x="287" y="428" font-weight="bold">S203</text><text x="287" y="443" font-size="8" fill="#5f5e5a">L + RFD</text>
  <rect x="350" y="408" width="86" height="44" rx="4" fill="#f1efe8" stroke="#b4b2a9" stroke-width="0.6"/><text x="393" y="428" font-weight="bold">S204</text><text x="393" y="443" font-size="8" fill="#5f5e5a">L + RFD</text>
  <rect x="444" y="408" width="86" height="44" rx="4" fill="#f1efe8" stroke="#b4b2a9" stroke-width="0.6"/><text x="487" y="428" font-weight="bold">S205</text><text x="487" y="443" font-size="8" fill="#5f5e5a">L + RFD</text>
  <rect x="538" y="408" width="86" height="44" rx="4" fill="#f1efe8" stroke="#b4b2a9" stroke-width="0.6"/><text x="581" y="428" font-weight="bold">S206..S212</text><text x="581" y="443" font-size="8" fill="#5f5e5a">x7 stanze</text>
  </g>

  <!-- PIANO 3 -->
  <rect x="40" y="472" width="600" height="120" rx="8" fill="#faeeda" stroke="#854f0b" stroke-width="0.7"/>
  <text x="56" y="490" font-size="12" font-weight="bold" fill="#633806">Piano 3 - 12 stanze (canale Zigbee 25)</text>
  <rect x="56" y="498" width="568" height="28" rx="4" fill="#fac775" stroke="#854f0b" stroke-width="0.6"/>
  <text x="340" y="516" text-anchor="middle" font-size="10" fill="#633806">corridoio piano 3</text>
  <rect x="298" y="502" width="24" height="20" rx="3" fill="#185fa5"/><text x="310" y="516" text-anchor="middle" font-size="9" fill="#e6f1fb">GW</text>
  <line x1="310" y1="526" x2="310" y2="536" stroke="#888780" stroke-width="1" stroke-dasharray="3,2"/><text x="328" y="534" font-size="8" fill="#5f5e5a">eth</text>
  <circle cx="90" cy="512" r="7" fill="#854f0b"/><circle cx="170" cy="512" r="7" fill="#854f0b"/><circle cx="250" cy="512" r="7" fill="#854f0b"/>
  <circle cx="400" cy="512" r="7" fill="#854f0b"/><circle cx="480" cy="512" r="7" fill="#854f0b"/><circle cx="560" cy="512" r="7" fill="#854f0b"/>
  <line x1="298" y1="512" x2="257" y2="512" stroke="#854f0b" stroke-width="1" stroke-dasharray="4,3"/>
  <line x1="243" y1="512" x2="177" y2="512" stroke="#854f0b" stroke-width="1" stroke-dasharray="4,3"/>
  <line x1="163" y1="512" x2="97" y2="512" stroke="#854f0b" stroke-width="1" stroke-dasharray="4,3"/>
  <line x1="322" y1="512" x2="393" y2="512" stroke="#854f0b" stroke-width="1" stroke-dasharray="4,3"/>
  <line x1="407" y1="512" x2="473" y2="512" stroke="#854f0b" stroke-width="1" stroke-dasharray="4,3"/>
  <line x1="487" y1="512" x2="553" y2="512" stroke="#854f0b" stroke-width="1" stroke-dasharray="4,3"/>
  <g font-size="9" fill="#2c2c2a" text-anchor="middle">
  <rect x="56" y="538" width="86" height="44" rx="4" fill="#f1efe8" stroke="#b4b2a9" stroke-width="0.6"/><text x="99" y="558" font-weight="bold">S301</text><text x="99" y="573" font-size="8" fill="#5f5e5a">L + RFD</text>
  <rect x="150" y="538" width="86" height="44" rx="4" fill="#f1efe8" stroke="#b4b2a9" stroke-width="0.6"/><text x="193" y="558" font-weight="bold">S302</text><text x="193" y="573" font-size="8" fill="#5f5e5a">L + RFD</text>
  <rect x="244" y="538" width="86" height="44" rx="4" fill="#f1efe8" stroke="#b4b2a9" stroke-width="0.6"/><text x="287" y="558" font-weight="bold">S303</text><text x="287" y="573" font-size="8" fill="#5f5e5a">L + RFD</text>
  <rect x="350" y="538" width="86" height="44" rx="4" fill="#f1efe8" stroke="#b4b2a9" stroke-width="0.6"/><text x="393" y="558" font-weight="bold">S304</text><text x="393" y="573" font-size="8" fill="#5f5e5a">L + RFD</text>
  <rect x="444" y="538" width="86" height="44" rx="4" fill="#f1efe8" stroke="#b4b2a9" stroke-width="0.6"/><text x="487" y="558" font-weight="bold">S305</text><text x="487" y="573" font-size="8" fill="#5f5e5a">L + RFD</text>
  <rect x="538" y="538" width="86" height="44" rx="4" fill="#f1efe8" stroke="#b4b2a9" stroke-width="0.6"/><text x="581" y="558" font-weight="bold">S306..S312</text><text x="581" y="573" font-size="8" fill="#5f5e5a">x7 stanze</text>
  </g>

  <rect x="40" y="602" width="600" height="64" rx="8" fill="#f1efe8" stroke="#b4b2a9" stroke-width="0.7"/>
  <text x="340" y="622" text-anchor="middle" font-size="9.5" fill="#2c2c2a">Ogni stanza: 1 lampada FFD (router, 230V) + dispositivi RFD a batteria (serratura, persiana, comando,</text>
  <text x="340" y="638" text-anchor="middle" font-size="9.5" fill="#2c2c2a">sensore T/H, sensore presenza, lettore scheda). Il coordinatore PoE e' a soffitto nel corridoio, fuori dal rack.</text>
  <text x="340" y="656" text-anchor="middle" font-size="9.5" fill="#5f5e5a">4 reti Zigbee federate su canali distinti (11/15/20/25), tutte convergenti sul broker MQTT via LAN.</text>
</svg>
