<svg viewBox="-300 0 2680 1480" xmlns="http://www.w3.org/2000/svg" font-family="'Segoe UI', Arial, sans-serif">
  <defs>
    <linearGradient id="gBlue" x1="0" y1="0" x2="0" y2="1"><stop offset="0" stop-color="#4a9fe0"/><stop offset="1" stop-color="#1f5a9c"/></linearGradient>
    <linearGradient id="gBeige" x1="0" y1="0" x2="0" y2="1"><stop offset="0" stop-color="#d8d3aa"/><stop offset="1" stop-color="#b6b083"/></linearGradient>
    <symbol id="sw" viewBox="0 0 130 84">
      <polygon points="8,34 30,14 122,14 100,34" fill="#5aaae8"/><polygon points="100,34 122,14 122,54 100,74" fill="#194f8a"/>
      <rect x="8" y="34" width="92" height="40" fill="url(#gBlue)"/>
      <path d="M28 46 H80 M72 41 L82 46 L72 51" stroke="#fff" stroke-width="2.4" fill="none"/>
      <path d="M82 60 H30 M40 55 L30 60 L40 65" stroke="#fff" stroke-width="2.4" fill="none"/>
    </symbol>
    <symbol id="box" viewBox="0 0 120 80">
      <polygon points="8,30 28,12 112,12 92,30" fill="#5aaae8"/><polygon points="92,30 112,12 112,52 92,70" fill="#194f8a"/>
      <rect x="8" y="30" width="84" height="40" fill="url(#gBlue)"/>
    </symbol>
    <symbol id="srv" viewBox="0 0 70 112">
      <polygon points="8,12 20,4 60,4 48,12" fill="#e4dfbf"/><polygon points="48,12 60,4 60,96 48,104" fill="#a39d72"/>
      <rect x="8" y="12" width="40" height="92" fill="url(#gBeige)"/>
      <circle cx="14" cy="18" r="2" fill="#6aa84f"/><circle cx="21" cy="18" r="2" fill="#6aa84f"/>
      <line x1="11" y1="26" x2="45" y2="26" stroke="#8f8a5f"/><line x1="11" y1="31" x2="45" y2="31" stroke="#8f8a5f"/>
      <rect x="12" y="40" width="32" height="8" fill="#c4be90" stroke="#8f8a5f"/>
      <rect x="12" y="52" width="32" height="8" fill="#c4be90" stroke="#8f8a5f"/>
      <rect x="12" y="64" width="32" height="8" fill="#c4be90" stroke="#8f8a5f"/>
    </symbol>
    <symbol id="tab" viewBox="0 0 74 56"><rect x="5" y="4" width="64" height="48" rx="7" fill="#3a3a3a" stroke="#111"/><rect x="12" y="10" width="50" height="36" fill="#6cc1e8"/></symbol>
    <symbol id="cam" viewBox="0 0 84 56">
      <rect x="26" y="8" width="8" height="8" fill="#445663"/><rect x="8" y="16" width="46" height="26" rx="4" fill="#6b7a86" stroke="#2c3a44"/>
      <rect x="6" y="14" width="40" height="6" fill="#445663"/><circle cx="58" cy="29" r="13" fill="#2c3a44"/><circle cx="58" cy="29" r="7" fill="#4aa3d6"/>
    </symbol>
    <symbol id="sen" viewBox="0 0 44 56">
      <line x1="22" y1="22" x2="22" y2="7" stroke="#3f6b3a" stroke-width="2"/><circle cx="22" cy="6" r="3" fill="#3f6b3a"/>
      <rect x="7" y="22" width="30" height="28" rx="4" fill="#7aa874" stroke="#3f6b3a"/><circle cx="22" cy="36" r="6" fill="#eaf3e7" stroke="#3f6b3a"/>
    </symbol>
    <symbol id="ap" viewBox="0 0 90 56">
      <path d="M22 28 A24 24 0 0 1 68 28" stroke="#2b6fb5" stroke-width="2.5" fill="none"/>
      <path d="M30 30 A16 16 0 0 1 60 30" stroke="#2b6fb5" stroke-width="2.5" fill="none"/>
      <path d="M37 32 A8 8 0 0 1 53 32" stroke="#2b6fb5" stroke-width="2.5" fill="none"/>
      <rect x="30" y="34" width="30" height="10" rx="4" fill="#2b6fb5"/><ellipse cx="45" cy="46" rx="33" ry="8" fill="url(#gBlue)" stroke="#194f8a"/>
    </symbol>
    <symbol id="pc" viewBox="0 0 74 66">
      <rect x="6" y="4" width="62" height="40" rx="3" fill="#3a4a55" stroke="#1f2b33"/><rect x="11" y="9" width="52" height="30" fill="#6cc1e8"/>
      <rect x="32" y="44" width="10" height="10" fill="#6b7a86"/><rect x="22" y="54" width="30" height="6" rx="3" fill="#6b7a86"/>
    </symbol>
    <symbol id="fw" viewBox="0 0 110 84">
      <polygon points="8,30 28,12 102,12 82,30" fill="#d9776b"/><polygon points="82,30 102,12 102,52 82,70" fill="#8f2419"/>
      <rect x="8" y="30" width="74" height="40" fill="#b03a2e"/>
      <line x1="8" y1="43" x2="82" y2="43" stroke="#e8c9c2"/><line x1="8" y1="56" x2="82" y2="56" stroke="#e8c9c2"/>
      <line x1="26" y1="30" x2="26" y2="43" stroke="#e8c9c2"/><line x1="46" y1="30" x2="46" y2="43" stroke="#e8c9c2"/><line x1="66" y1="30" x2="66" y2="43" stroke="#e8c9c2"/>
      <line x1="16" y1="43" x2="16" y2="56" stroke="#e8c9c2"/><line x1="36" y1="43" x2="36" y2="56" stroke="#e8c9c2"/><line x1="56" y1="43" x2="56" y2="56" stroke="#e8c9c2"/><line x1="76" y1="43" x2="76" y2="56" stroke="#e8c9c2"/>
      <line x1="26" y1="56" x2="26" y2="70" stroke="#e8c9c2"/><line x1="46" y1="56" x2="46" y2="70" stroke="#e8c9c2"/><line x1="66" y1="56" x2="66" y2="70" stroke="#e8c9c2"/>
    </symbol>
    <symbol id="cloud" viewBox="0 0 200 120"><path d="M55 100 C28 100 22 74 44 67 C40 43 78 34 92 52 C104 33 142 39 142 64 C166 64 170 96 144 100 Z" fill="#fff" stroke="#555" stroke-width="2.2"/></symbol>
  </defs>

  <rect x="-300" y="0" width="2680" height="1480" fill="#ffffff"/>
  <text x="40" y="44" font-size="25" font-weight="700" fill="#16324f">Schema logico — Cantiere k ↔ Sede centrale (VPN site-to-site, broker MQTT in bridge)</text>
  <text x="40" y="69" font-size="14" fill="#5b6b78">Link L2 = dorsale LAN · Link L3 = tunnel VPN · Link L7 = sessioni/bridge del broker MQTT</text>
  <text x="430" y="150" font-size="20" font-weight="700" fill="#1f5a9c">CANTIERE k</text>
  <text x="1880" y="150" font-size="20" font-weight="700" fill="#b03a2e" text-anchor="middle">SEDE CENTRALE (BIM)</text>

  <!-- cloud, WAN, tunnel -->
  <use href="#cloud" x="1080" y="18" width="200" height="120"/>
  <text x="1180" y="84" font-size="16" font-weight="600" text-anchor="middle" fill="#33475a">Internet</text>
  <line x1="612" y1="226" x2="1108" y2="120" stroke="#000" stroke-width="2"/><text x="820" y="150" font-size="13" fill="#444">4G/5G dual-SIM</text>
  <line x1="1848" y1="226" x2="1256" y2="120" stroke="#000" stroke-width="2"/><text x="1520" y="150" font-size="13" text-anchor="end" fill="#444">fibra FTTH</text>
  <line x1="620" y1="250" x2="1840" y2="250" stroke="#16324f" stroke-width="2.6" stroke-dasharray="10 5"/>
  <text x="626" y="242" font-size="11.5" font-weight="700" fill="#16324f">tun0: 10.255.h.(4k+1)</text>
  <text x="1834" y="242" font-size="11.5" font-weight="700" text-anchor="end" fill="#16324f">tun0: 10.255.h.(4k+2)</text>
  <line x1="1320" y1="250" x2="1320" y2="260" stroke="#16324f" stroke-width="1.4"/>
  <rect x="1150" y="260" width="340" height="104" rx="8" fill="#eef3fb" stroke="#16324f" stroke-dasharray="6 4"/>
  <text x="1320" y="282" font-size="13" font-weight="700" text-anchor="middle" fill="#16324f">Tunnel TUN — L3 (GRE su IPsec)</text>
  <text x="1320" y="303" font-size="12.5" text-anchor="middle" fill="#23404f">subnet /30: 10.255.h.(4·k)/30</text>
  <text x="1320" y="322" font-size="12.5" text-anchor="middle" fill="#23404f">h = 0..255 · k = 0..63  (64 /30 per ogni /24)</text>
  <text x="1320" y="341" font-size="12.5" text-anchor="middle" fill="#23404f">tun0 cantiere (4k+1) · sede (4k+2) · OSPF area 0</text>

  <!-- management zones -->
  <rect x="-180" y="330" width="1322" height="302" rx="14" fill="#fafcff" stroke="#6a7b88" stroke-width="1.5" stroke-dasharray="8 5"/>
  <text x="136" y="352" font-size="12.5" font-weight="700" fill="#3a4a56">VLAN 99 — Management cantiere · 10.k.99.0/24 (native su tutti gli SW)</text>
  <rect x="1500" y="346" width="762" height="318" rx="14" fill="#fbfaf7" stroke="#9a7b55" stroke-width="1.5" stroke-dasharray="8 5"/>
  <text x="1881" y="368" font-size="12.5" font-weight="700" text-anchor="middle" fill="#7a5a2f">VLAN 99 native — management a macchia di leopardo (ingloba CS + tutti gli SW d'accesso)</text>

  <!-- ============ CANTIERE infra ============ -->
  <use href="#box" x="500" y="200" width="120" height="80"/>
  <line x1="516" y1="228" x2="502" y2="196" stroke="#194f8a" stroke-width="2.4"/><circle cx="502" cy="194" r="3" fill="#194f8a"/>
  <line x1="534" y1="228" x2="548" y2="196" stroke="#194f8a" stroke-width="2.4"/><circle cx="548" cy="194" r="3" fill="#194f8a"/>
  <rect x="506" y="246" width="26" height="18" fill="#b03a2e" stroke="#7d1f17"/>
  <line x1="506" y1="255" x2="532" y2="255" stroke="#f2d6cf"/><line x1="515" y1="246" x2="515" y2="255" stroke="#f2d6cf"/><line x1="523" y1="255" x2="523" y2="264" stroke="#f2d6cf"/>
  <text x="488" y="214" font-size="14" font-weight="700" text-anchor="end" fill="#16324f">Gateway 4G/5G</text>
  <text x="488" y="231" font-size="12" text-anchor="end" fill="#33475a">Router · Firewall/NAT · VPN</text>
  <text x="488" y="247" font-size="12" text-anchor="end" fill="#33475a">GW .254 · tun0 (4k+1)</text>
  <text x="488" y="263" font-size="12" font-weight="700" text-anchor="end" fill="#1f7a3d">DNS · DHCP</text>

  <line x1="560" y1="280" x2="560" y2="352" stroke="#2c3e50" stroke-width="2"/><text x="572" y="320" font-size="12" fill="#444">Trunk 802.1Q (L2)</text>
  <use href="#sw" x="495" y="350" width="130" height="84"/>
  <text x="560" y="448" font-size="13" font-weight="700" text-anchor="middle" fill="#16324f">CS — Core switch L3</text>

  <line x1="625" y1="392" x2="710" y2="394" stroke="#2c3e50" stroke-width="2"/>
  <use href="#box" x="710" y="358" width="118" height="78"/>
  <text x="836" y="384" font-size="12.5" font-weight="700" fill="#16324f">Broker MQTT cantiere</text>
  <text x="836" y="401" font-size="11.5" fill="#33475a">10.k.30.250 · attaccato al CS</text>
  <text x="836" y="418" font-size="11.5" fill="#7d3c98">bridge L7 → broker sede</text>

  <line x1="497" y1="404" x2="212" y2="398" stroke="#2c3e50" stroke-width="2"/>
  <use href="#srv" x="150" y="346" width="60" height="98"/>
  <text x="180" y="466" font-size="12" font-weight="700" text-anchor="middle" fill="#16324f">Edge NAS</text>
  <text x="180" y="482" font-size="11" text-anchor="middle" fill="#33475a">store&amp;forward .99.10</text>

  <!-- access nodes uplinks (L2) -->
  <g stroke="#2c3e50" stroke-width="2">
    <line x1="545" y1="432" x2="224" y2="540"/><line x1="552" y1="434" x2="495" y2="524"/>
    <line x1="575" y1="434" x2="775" y2="524"/><line x1="602" y1="432" x2="1054" y2="540"/>
  </g>
  <use href="#ap" x="180" y="535" width="88" height="54"/><text x="174" y="566" font-size="12" font-weight="700" text-anchor="end" fill="#16324f">AP1</text>
  <use href="#sw" x="440" y="520" width="110" height="72"/><text x="434" y="560" font-size="12" font-weight="700" text-anchor="end" fill="#16324f">AS/DS1</text>
  <use href="#sw" x="720" y="520" width="110" height="72"/><text x="714" y="560" font-size="12" font-weight="700" text-anchor="end" fill="#16324f">AS/DS2</text>
  <use href="#ap" x="1010" y="535" width="88" height="54"/><text x="1004" y="566" font-size="12" font-weight="700" text-anchor="end" fill="#16324f">AP2</text>

  <!-- bands -->
  <ellipse cx="525" cy="750" rx="825" ry="95" fill="none" stroke="#333" stroke-width="2"/>
  <ellipse cx="525" cy="935" rx="825" ry="95" fill="none" stroke="#333" stroke-width="2"/>
  <ellipse cx="525" cy="1150" rx="850" ry="122" fill="none" stroke="#333" stroke-width="2"/>

  <!-- L7 MQTT sessions (purple dotted) to broker (769,436) -->
  <g stroke="#7d3c98" stroke-width="1.4" stroke-dasharray="2 4">
    <line x1="139" y1="1095" x2="763" y2="436"/><line x1="410" y1="1095" x2="766" y2="436"/>
    <line x1="690" y1="1095" x2="772" y2="436"/><line x1="969" y1="1095" x2="775" y2="436"/>
    <line x1="210" y1="1075" x2="765" y2="436"/><line x1="478" y1="1075" x2="769" y2="436"/><line x1="758" y1="1075" x2="773" y2="436"/>
  </g>

  <!-- staggered downlinks: AP wireless (grey), AS L2 (slate) -->
  <g stroke="#9aa3ab" stroke-width="1.8" stroke-dasharray="6 5">
    <line x1="230" y1="589" x2="249" y2="712"/><line x1="224" y1="589" x2="224" y2="898"/><line x1="218" y1="589" x2="139" y2="1095"/>
    <line x1="1060" y1="589" x2="1079" y2="712"/><line x1="1054" y1="589" x2="1054" y2="898"/><line x1="1048" y1="589" x2="969" y2="1095"/>
  </g>
  <g stroke="#2c3e50" stroke-width="2">
    <line x1="501" y1="592" x2="520" y2="712"/><line x1="495" y1="592" x2="495" y2="898"/><line x1="489" y1="592" x2="410" y2="1095"/>
    <line x1="781" y1="592" x2="800" y2="712"/><line x1="775" y1="592" x2="775" y2="898"/><line x1="769" y1="592" x2="690" y2="1095"/>
  </g>

  <!-- access-port tags A10/A20/A30 on AS switches -->
  <g font-size="8.5" text-anchor="middle" fill="#2c3e50">
    <rect x="506" y="606" width="22" height="15" rx="3" fill="#eef3fb" stroke="#5a6b78"/><text x="517" y="617">A10</text>
    <rect x="484" y="606" width="22" height="15" rx="3" fill="#eef3fb" stroke="#5a6b78"/><text x="495" y="617">A20</text>
    <rect x="462" y="606" width="22" height="15" rx="3" fill="#eef3fb" stroke="#5a6b78"/><text x="473" y="617">A30</text>
    <rect x="786" y="606" width="22" height="15" rx="3" fill="#eef3fb" stroke="#5a6b78"/><text x="797" y="617">A10</text>
    <rect x="764" y="606" width="22" height="15" rx="3" fill="#eef3fb" stroke="#5a6b78"/><text x="775" y="617">A20</text>
    <rect x="742" y="606" width="22" height="15" rx="3" fill="#eef3fb" stroke="#5a6b78"/><text x="753" y="617">A30</text>
  </g>

  <!-- gateway network-side uplinks -->
  <line x1="210" y1="1075" x2="470" y2="592" stroke="#2c3e50" stroke-width="2"/>
  <line x1="478" y1="1075" x2="750" y2="592" stroke="#2c3e50" stroke-width="2"/>
  <line x1="758" y1="1075" x2="1024" y2="586" stroke="#9aa3ab" stroke-width="1.8" stroke-dasharray="6 5"/>

  <!-- BAND 10 tablets -->
  <use href="#tab" x="219" y="712" width="60" height="46"/><use href="#tab" x="490" y="712" width="60" height="46"/>
  <use href="#tab" x="770" y="712" width="60" height="46"/><use href="#tab" x="1049" y="712" width="60" height="46"/>
  <text x="249" y="778" font-size="11" text-anchor="middle" fill="#16324f">10.k.10.1</text><text x="520" y="778" font-size="11" text-anchor="middle" fill="#16324f">10.k.10.2</text>
  <text x="800" y="778" font-size="11" text-anchor="middle" fill="#16324f">10.k.10.3</text><text x="1079" y="778" font-size="11" text-anchor="middle" fill="#16324f">10.k.10.4</text>
  <text x="1305" y="745" font-size="14" font-weight="700" text-anchor="end" fill="#16324f">VLAN 10 · Tablet (A10)</text>
  <text x="1305" y="763" font-size="12" text-anchor="end" fill="#33475a">10.k.10.0/24 · GW .254</text>

  <!-- BAND 20 cameras -->
  <use href="#cam" x="194" y="898" width="60" height="42"/><use href="#cam" x="465" y="898" width="60" height="42"/>
  <use href="#cam" x="745" y="898" width="60" height="42"/><use href="#cam" x="1024" y="898" width="60" height="42"/>
  <text x="224" y="960" font-size="11" text-anchor="middle" fill="#16324f">10.k.20.1</text><text x="495" y="960" font-size="11" text-anchor="middle" fill="#16324f">10.k.20.2</text>
  <text x="775" y="960" font-size="11" text-anchor="middle" fill="#16324f">10.k.20.3</text><text x="1054" y="960" font-size="11" text-anchor="middle" fill="#16324f">10.k.20.4</text>
  <text x="1305" y="930" font-size="14" font-weight="700" text-anchor="end" fill="#16324f">VLAN 20 · Telecamere (A20)</text>
  <text x="1305" y="948" font-size="12" text-anchor="end" fill="#33475a">10.k.20.0/24 · GW .254 · PoE</text>

  <!-- BAND 30 sensors -->
  <use href="#sen" x="122" y="1095" width="34" height="44"/><use href="#sen" x="393" y="1095" width="34" height="44"/>
  <use href="#sen" x="673" y="1095" width="34" height="44"/><use href="#sen" x="952" y="1095" width="34" height="44"/>
  <text x="139" y="1158" font-size="10.5" text-anchor="middle" fill="#16324f">10.k.30.1 (Wi-Fi)</text><text x="410" y="1158" font-size="10.5" text-anchor="middle" fill="#16324f">10.k.30.2 (Eth)</text>
  <text x="690" y="1158" font-size="10.5" text-anchor="middle" fill="#16324f">10.k.30.3 (Eth)</text><text x="969" y="1158" font-size="10.5" text-anchor="middle" fill="#16324f">10.k.30.4 (Wi-Fi)</text>
  <text x="1315" y="1130" font-size="14" font-weight="700" text-anchor="end" fill="#16324f">VLAN 30 · Sensori IoT (A30)</text>
  <text x="1315" y="1148" font-size="12" text-anchor="end" fill="#33475a">10.k.30.0/24 · GW .254</text>

  <!-- WSN GW Zigbee -->
  <use href="#box" x="172" y="1075" width="76" height="52"/>
  <line x1="200" y1="1078" x2="192" y2="1060" stroke="#2e7d32" stroke-width="2"/><line x1="220" y1="1078" x2="228" y2="1060" stroke="#2e7d32" stroke-width="2"/>
  <text x="254" y="1093" font-size="10" font-weight="700" fill="#2e7d32">Gateway WSN</text>
  <text x="254" y="1106" font-size="9.5" font-weight="700" fill="#2e7d32">Zigbee</text>
  <text x="254" y="1118" font-size="9" fill="#2e7d32">coordinator</text>
  <g stroke="#2e7d32" stroke-width="1.4" stroke-dasharray="3 3"><line x1="210" y1="1127" x2="180" y2="1180"/><line x1="210" y1="1127" x2="210" y2="1188"/><line x1="210" y1="1127" x2="240" y2="1180"/></g>
  <circle cx="180" cy="1184" r="5" fill="#cde6cd" stroke="#2e7d32"/><circle cx="210" cy="1192" r="5" fill="#cde6cd" stroke="#2e7d32"/><circle cx="240" cy="1184" r="5" fill="#cde6cd" stroke="#2e7d32"/>

  <!-- WSN GW LoRaWAN -->
  <use href="#box" x="440" y="1075" width="76" height="52"/>
  <line x1="468" y1="1078" x2="460" y2="1060" stroke="#e07b00" stroke-width="2"/><line x1="488" y1="1078" x2="496" y2="1060" stroke="#e07b00" stroke-width="2"/>
  <text x="522" y="1093" font-size="10" font-weight="700" fill="#e07b00">Gateway WSN</text>
  <text x="522" y="1106" font-size="9.5" font-weight="700" fill="#e07b00">LoRaWAN</text>
  <text x="522" y="1118" font-size="9" fill="#e07b00">PF+NS+AS</text>
  <g stroke="#e07b00" stroke-width="1.4" stroke-dasharray="3 3"><line x1="478" y1="1127" x2="448" y2="1180"/><line x1="478" y1="1127" x2="478" y2="1188"/><line x1="478" y1="1127" x2="508" y2="1180"/></g>
  <circle cx="448" cy="1184" r="5" fill="#fbe6cd" stroke="#e07b00"/><circle cx="478" cy="1192" r="5" fill="#fbe6cd" stroke="#e07b00"/><circle cx="508" cy="1184" r="5" fill="#fbe6cd" stroke="#e07b00"/>

  <!-- WSN GW BLE -->
  <use href="#box" x="720" y="1075" width="76" height="52"/>
  <line x1="748" y1="1078" x2="740" y2="1060" stroke="#1565c0" stroke-width="2"/><line x1="768" y1="1078" x2="776" y2="1060" stroke="#1565c0" stroke-width="2"/>
  <text x="802" y="1093" font-size="10" font-weight="700" fill="#1565c0">Gateway WSN</text>
  <text x="802" y="1106" font-size="9.5" font-weight="700" fill="#1565c0">BLE</text>
  <text x="802" y="1118" font-size="9" fill="#1565c0">coordinator</text>
  <g stroke="#1565c0" stroke-width="1.4" stroke-dasharray="3 3"><line x1="758" y1="1127" x2="728" y2="1180"/><line x1="758" y1="1127" x2="758" y2="1188"/><line x1="758" y1="1127" x2="788" y2="1180"/></g>
  <circle cx="728" cy="1184" r="5" fill="#d4e4f7" stroke="#1565c0"/><circle cx="758" cy="1192" r="5" fill="#d4e4f7" stroke="#1565c0"/><circle cx="788" cy="1184" r="5" fill="#d4e4f7" stroke="#1565c0"/>

  <text x="660" y="1258" font-size="11" text-anchor="middle" fill="#5b6b78">Versante radio: il gateway WSN aggrega i sensori · versante IP: Zigbee/LoRa via Ethernet L2 su switch, BLE via Wi-Fi su AP · tutti client MQTT (L7)</text>

  <!-- ===== RAMO WI-FI MESH (cascata, lato sinistro) ===== -->
  <text x="-158" y="498" font-size="12.5" font-weight="700" fill="#0e7490">Ramo Wi-Fi mesh — maglia ridondante</text>
  <text x="-158" y="514" font-size="11" fill="#0e7490">AP3/AP4 senza cavo · AP1 e AP5 portali cablati al CS · trunk VLAN 10/20/30/99</text>
  <!-- mesh backhaul links -->
  <g stroke="#0e7490" stroke-width="2.6" stroke-dasharray="10 3 3 3">
    <line x1="180" y1="562" x2="104" y2="562"/>
    <line x1="16" y1="562" x2="-66" y2="562"/>
  </g>
  <text x="142" y="553" font-size="9.5" text-anchor="middle" fill="#0e7490">mesh · R3 ch132</text>
  <text x="-25" y="553" font-size="9.5" text-anchor="middle" fill="#0e7490">mesh · R3 ch149</text>
  <use href="#ap" x="16" y="535" width="88" height="54"/><text x="60" y="529" font-size="12" font-weight="700" text-anchor="middle" fill="#0e7490">AP3 · mesh</text>
  <use href="#ap" x="-154" y="535" width="88" height="54"/><text x="-110" y="529" font-size="12" font-weight="700" text-anchor="middle" fill="#0e7490">AP4 · mesh</text>
  <!-- AP5 portale: cablato al CS + backhaul mesh ridondante verso AP4 (chiude la maglia) -->
  <line x1="500" y1="426" x2="360" y2="450" stroke="#2c3e50" stroke-width="2"/>
  <line x1="300" y1="460" x2="-110" y2="540" stroke="#0e7490" stroke-width="2.6" stroke-dasharray="10 3 3 3"/>
  <text x="150" y="452" font-size="9.5" text-anchor="middle" fill="#0e7490">backhaul ridondante · R3 ch132</text>
  <use href="#ap" x="276" y="418" width="88" height="54"/><text x="320" y="412" font-size="12" font-weight="700" text-anchor="middle" fill="#0e7490">AP5 · portale (cablato al CS)</text>
  <!-- L7 MQTT from mesh Wi-Fi sensors -->
  <g stroke="#7d3c98" stroke-width="1.4" stroke-dasharray="2 4">
    <line x1="-25" y1="1095" x2="762" y2="436"/><line x1="-195" y1="1095" x2="762" y2="436"/>
  </g>
  <!-- fan downlinks (wireless) -->
  <g stroke="#9aa3ab" stroke-width="1.8" stroke-dasharray="6 5">
    <line x1="66" y1="589" x2="85" y2="712"/><line x1="60" y1="589" x2="60" y2="898"/><line x1="54" y1="589" x2="-25" y2="1095"/>
    <line x1="-104" y1="589" x2="-85" y2="712"/><line x1="-110" y1="589" x2="-110" y2="898"/><line x1="-116" y1="589" x2="-195" y2="1095"/>
  </g>
  <!-- mesh fan devices + IP -->
  <use href="#tab" x="55" y="712" width="60" height="46"/><use href="#cam" x="30" y="898" width="60" height="42"/><use href="#sen" x="-42" y="1095" width="34" height="44"/>
  <use href="#tab" x="-115" y="712" width="60" height="46"/><use href="#cam" x="-140" y="898" width="60" height="42"/><use href="#sen" x="-212" y="1095" width="34" height="44"/>
  <text x="85" y="778" font-size="11" text-anchor="middle" fill="#16324f">10.k.10.5</text><text x="-85" y="778" font-size="11" text-anchor="middle" fill="#16324f">10.k.10.6</text>
  <text x="60" y="960" font-size="11" text-anchor="middle" fill="#16324f">10.k.20.5</text><text x="-110" y="960" font-size="11" text-anchor="middle" fill="#16324f">10.k.20.6</text>
  <text x="-25" y="1158" font-size="10.5" text-anchor="middle" fill="#16324f">10.k.30.5 (Wi-Fi)</text><text x="-195" y="1158" font-size="10.5" text-anchor="middle" fill="#16324f">10.k.30.6 (Wi-Fi)</text>

  <!-- canali ACCESS 5 GHz (R2) per AP -->
  <g font-size="8.5" text-anchor="middle" font-weight="700" fill="#16324f">
    <rect x="193" y="600" width="62" height="16" rx="8" fill="#d4e4f7" stroke="#1565c0"/><text x="224" y="612">5G 36·A</text>
    <rect x="29" y="600" width="62" height="16" rx="8" fill="#cde6cd" stroke="#2e7d32"/><text x="60" y="612">5G 52·B</text>
    <rect x="-141" y="600" width="62" height="16" rx="8" fill="#fbf3cd" stroke="#b08900"/><text x="-110" y="612">5G 100·C</text>
    <rect x="1023" y="600" width="62" height="16" rx="8" fill="#d4e4f7" stroke="#1565c0"/><text x="1054" y="612">5G 36·A</text>
    <rect x="289" y="478" width="62" height="16" rx="8" fill="#f7d4d4" stroke="#c0392b"/><text x="320" y="490">5G 116·D</text>
  </g>

  <!-- piano canali Wi-Fi mesh tri-band -->
  <rect x="-290" y="172" width="384" height="152" rx="8" fill="#f3fafb" stroke="#0e7490"/>
  <text x="-274" y="194" font-size="13" font-weight="700" fill="#0e7490">Piano canali Wi-Fi mesh tri-band (EU)</text>
  <text x="-274" y="215" font-size="11" fill="#23404f">R1 · 2.4 GHz — access (legacy/IoT): ch 1 / 6 / 11</text>
  <text x="-274" y="234" font-size="11" fill="#23404f">R2 · 5 GHz basso — access, riuso a 4 colori:</text>
  <g font-size="10" font-weight="700" fill="#16324f">
    <rect x="-256" y="241" width="74" height="16" rx="3" fill="#d4e4f7" stroke="#1565c0"/><text x="-219" y="253" text-anchor="middle">A · ch36@80</text>
    <rect x="-178" y="241" width="74" height="16" rx="3" fill="#cde6cd" stroke="#2e7d32"/><text x="-141" y="253" text-anchor="middle">B · ch52@80</text>
    <rect x="-100" y="241" width="78" height="16" rx="3" fill="#fbf3cd" stroke="#b08900"/><text x="-61" y="253" text-anchor="middle">C · ch100@80</text>
    <rect x="-18" y="241" width="78" height="16" rx="3" fill="#f7d4d4" stroke="#c0392b"/><text x="21" y="253" text-anchor="middle">D · ch116@80</text>
  </g>
  <text x="-274" y="280" font-size="11" fill="#23404f">R3 · 5 GHz alto DFS — backhaul (solo mesh): ch 132@80 / 149@80</text>
  <text x="-274" y="298" font-size="11" fill="#23404f">alternati sui concentratori · access e backhaul su radio diverse</text>
  <text x="-274" y="315" font-size="10.5" fill="#5b6b78">Vicini → colori/canali lontani · riuso a distanza (N=4)</text>

  <!-- ============ SEDE ============ -->
  <use href="#fw" x="1840" y="205" width="110" height="82"/>
  <text x="1962" y="222" font-size="13" font-weight="700" fill="#16324f">NGFW / UTM · VPN</text>
  <text x="1962" y="239" font-size="11.5" fill="#33475a">WAN .254 · tun0 (4k+2)</text>
  <text x="1962" y="256" font-size="11.5" font-weight="700" fill="#1f7a3d">DNS · DHCP</text>

  <line x1="1895" y1="287" x2="1895" y2="360" stroke="#2c3e50" stroke-width="2"/>
  <use href="#sw" x="1830" y="360" width="130" height="84"/>
  <text x="1895" y="458" font-size="12.5" font-weight="700" text-anchor="middle" fill="#16324f">CS — Core L3 (sede)</text>

  <g stroke="#2c3e50" stroke-width="2"><line x1="1865" y1="442" x2="1605" y2="562"/><line x1="1895" y1="446" x2="1895" y2="562"/><line x1="1925" y1="442" x2="2185" y2="562"/></g>
  <use href="#sw" x="1545" y="562" width="120" height="76"/><text x="1538" y="604" font-size="11" font-weight="700" text-anchor="end" fill="#16324f">SW Uffici</text>
  <use href="#sw" x="1835" y="562" width="120" height="76"/><text x="1828" y="604" font-size="11" font-weight="700" text-anchor="end" fill="#16324f">SW Server farm</text>
  <use href="#sw" x="2125" y="562" width="120" height="76"/><text x="2252" y="604" font-size="11" font-weight="700" text-anchor="start" fill="#16324f">SW DMZ</text>

  <!-- endpoints to access switches (L2) -->
  <g stroke="#2c3e50" stroke-width="2">
    <line x1="1590" y1="638" x2="1573" y2="718"/><line x1="1620" y1="638" x2="1648" y2="718"/>
    <line x1="1875" y1="638" x2="1820" y2="718"/><line x1="1888" y1="640" x2="1882" y2="718"/><line x1="1902" y1="640" x2="1944" y2="718"/><line x1="1915" y1="638" x2="2007" y2="714"/>
    <line x1="2170" y1="638" x2="2150" y2="718"/><line x1="2200" y1="638" x2="2218" y2="718"/>
  </g>
  <use href="#pc" x="1545" y="716" width="56" height="50"/><use href="#pc" x="1620" y="716" width="56" height="50"/>
  <use href="#srv" x="1796" y="716" width="48" height="84"/><use href="#srv" x="1858" y="716" width="48" height="84"/>
  <use href="#srv" x="1920" y="716" width="48" height="84"/>
  <use href="#box" x="1974" y="712" width="66" height="48"/>
  <use href="#srv" x="2126" y="716" width="48" height="84"/><use href="#srv" x="2194" y="716" width="48" height="84"/>
  <text x="2007" y="776" font-size="10" text-anchor="middle" font-weight="700" fill="#7d3c98">Broker MQTT (sede)</text>
  <text x="1820" y="812" font-size="9" text-anchor="middle" fill="#33475a">NAS/SAN</text><text x="1882" y="812" font-size="9" text-anchor="middle" fill="#33475a">App BIM</text>
  <text x="1944" y="812" font-size="9" text-anchor="middle" fill="#33475a">AD/RADIUS·DB</text>

  <text x="1605" y="838" font-size="12.5" font-weight="700" text-anchor="middle" fill="#16324f">VLAN 10 · Uffici tecnici</text><text x="1605" y="855" font-size="11" text-anchor="middle" fill="#33475a">10.0.10.0/24 · GW .254</text>
  <text x="1900" y="838" font-size="12.5" font-weight="700" text-anchor="middle" fill="#16324f">VLAN 30 · Server farm</text><text x="1900" y="855" font-size="11" text-anchor="middle" fill="#33475a">10.0.30.0/24 · GW .254</text>
  <text x="2185" y="838" font-size="12.5" font-weight="700" text-anchor="middle" fill="#16324f">VLAN 40 · DMZ</text><text x="2185" y="855" font-size="11" text-anchor="middle" fill="#33475a">10.0.40.0/24 (repo · rev.proxy)</text>

  <!-- L7 MQTT bridge cantiere broker -> sede broker (instradato in alto sui link neri) -->
  <polyline points="828,398 2007,470 2007,712" fill="none" stroke="#7d3c98" stroke-width="2" stroke-dasharray="2 5"/>
  <rect x="1287" y="415" width="206" height="34" rx="6" fill="#f6eefb" stroke="#7d3c98"/>
  <text x="1390" y="437" font-size="12" font-weight="700" text-anchor="middle" fill="#7d3c98">bridge MQTT (L7)</text>

  <!-- ============ LEGEND ============ -->
  <rect x="118" y="1300" width="1360" height="120" rx="8" fill="#f7f9fb" stroke="#ccd6de"/>
  <text x="136" y="1324" font-size="13" font-weight="700" fill="#16324f">Legenda dei collegamenti</text>
  <line x1="140" y1="1350" x2="196" y2="1350" stroke="#2c3e50" stroke-width="2.4"/><text x="206" y="1354" font-size="12.5" fill="#23404f">L2 — dorsale LAN (trunk 802.1Q / porte d'accesso A10·A20·A30)</text>
  <line x1="700" y1="1350" x2="756" y2="1350" stroke="#9aa3ab" stroke-width="2" stroke-dasharray="6 5"/><text x="766" y="1354" font-size="12.5" fill="#23404f">accesso Wi-Fi (L2 wireless)</text>
  <line x1="1060" y1="1350" x2="1116" y2="1350" stroke="#2e7d32" stroke-width="2" stroke-dasharray="3 3"/><text x="1126" y="1354" font-size="12.5" fill="#23404f">radio WSN (Zigbee/LoRa/BLE)</text>
  <line x1="140" y1="1384" x2="196" y2="1384" stroke="#16324f" stroke-width="2.6" stroke-dasharray="10 5"/><text x="206" y="1388" font-size="12.5" fill="#23404f">L3 — tunnel VPN site-to-site (/30, OSPF)</text>
  <line x1="700" y1="1384" x2="756" y2="1384" stroke="#7d3c98" stroke-width="2" stroke-dasharray="2 5"/><text x="766" y="1388" font-size="12.5" fill="#23404f">L7 — sessioni e bridge del broker MQTT</text>
  <line x1="1060" y1="1384" x2="1116" y2="1384" stroke="#0e7490" stroke-width="2.6" stroke-dasharray="10 3 3 3"/><text x="1126" y="1388" font-size="12.5" fill="#23404f">mesh backhaul Wi-Fi (trunk VLAN)</text>
</svg>
