<svg viewBox="0 0 980 660" xmlns="http://www.w3.org/2000/svg" font-family="Segoe UI, Arial, sans-serif">
  <style>
    .net{fill:#fef7e0;stroke:#ea8600}
    .dev{fill:#e8f0fe;stroke:#1a73e8}
    .sec{fill:#fce8e6;stroke:#d93025}
    .srv{fill:#e6f4ea;stroke:#137333}
    .tit{font-size:13px;font-weight:700;fill:#202124}
    .sub{font-size:11px;fill:#5f6368}
    .wire{stroke:#5f6368;stroke-width:2;fill:none}
    .vpn{stroke:#137333;stroke-width:3;stroke-dasharray:2 5;fill:none;stroke-linecap:round}
  </style>

  <text x="490" y="28" text-anchor="middle" class="tit" font-size="16">Rete di sede centrale potenziata per il BIM</text>

  <ellipse cx="490" cy="78" rx="150" ry="34" class="net" stroke-width="2"/>
  <text x="490" y="74" text-anchor="middle" class="sub" font-weight="600">Internet</text>
  <text x="490" y="92" text-anchor="middle" class="sub">N tunnel VPN dai cantieri</text>

  <rect x="370" y="138" width="240" height="50" rx="8" class="dev" stroke-width="2"/>
  <text x="490" y="158" text-anchor="middle" class="tit">Router perimetrale</text>
  <text x="490" y="176" text-anchor="middle" class="sub">FTTH simmetrica + failover 4G/5G</text>
  <line x1="490" y1="112" x2="490" y2="138" class="vpn"/>

  <rect x="350" y="214" width="280" height="54" rx="8" class="sec" stroke-width="2"/>
  <text x="490" y="236" text-anchor="middle" class="tit">NGFW / Concentratore VPN (UTM)</text>
  <text x="490" y="254" text-anchor="middle" class="sub">IPS/IDS · terminazione tunnel · DMZ</text>
  <line x1="490" y1="188" x2="490" y2="214" class="wire"/>

  <rect x="40" y="300" width="230" height="120" rx="8" fill="#fff8e1" stroke="#f9a825" stroke-width="2"/>
  <text x="155" y="322" text-anchor="middle" class="tit">DMZ</text>
  <rect x="58" y="336" width="194" height="34" rx="6" class="srv" stroke-width="1.5"/>
  <text x="155" y="358" text-anchor="middle" class="sub">Repository ricezione cantieri (SFTP/HTTPS)</text>
  <rect x="58" y="378" width="194" height="34" rx="6" class="srv" stroke-width="1.5"/>
  <text x="155" y="400" text-anchor="middle" class="sub">Reverse proxy / broker MQTT</text>
  <line x1="380" y1="241" x2="155" y2="300" class="wire"/>

  <rect x="395" y="320" width="190" height="48" rx="8" class="dev" stroke-width="2"/>
  <text x="490" y="340" text-anchor="middle" class="tit">Switch core L3</text>
  <text x="490" y="357" text-anchor="middle" class="sub">VLAN + routing inter-VLAN</text>
  <line x1="490" y1="268" x2="490" y2="320" class="wire"/>

  <rect x="640" y="300" width="300" height="200" rx="8" fill="#f1f8e9" stroke="#137333" stroke-width="2"/>
  <text x="790" y="322" text-anchor="middle" class="tit">VLAN Server (datacenter)</text>
  <rect x="658" y="336" width="264" height="30" rx="6" class="srv" stroke-width="1.5"/>
  <text x="790" y="356" text-anchor="middle" class="sub">NAS/SAN — repository nuvole di punti &amp; video</text>
  <rect x="658" y="372" width="264" height="30" rx="6" class="srv" stroke-width="1.5"/>
  <text x="790" y="392" text-anchor="middle" class="sub">Server applicativi software BIM</text>
  <rect x="658" y="408" width="264" height="30" rx="6" class="srv" stroke-width="1.5"/>
  <text x="790" y="428" text-anchor="middle" class="sub">AD / LDAP + RADIUS (autenticazione)</text>
  <rect x="658" y="444" width="264" height="30" rx="6" class="srv" stroke-width="1.5"/>
  <text x="790" y="464" text-anchor="middle" class="sub">DB log sensori + SIEM/backup</text>
  <line x1="585" y1="344" x2="640" y2="380" class="wire"/>

  <rect x="330" y="430" width="300" height="100" rx="8" fill="#e8f0fe" stroke="#1a73e8" stroke-width="2"/>
  <text x="480" y="452" text-anchor="middle" class="tit">VLAN Uffici tecnici</text>
  <text x="480" y="474" text-anchor="middle" class="sub">workstation BIM · accesso condiviso</text>
  <text x="480" y="494" text-anchor="middle" class="sub">Wi-Fi WPA3-Enterprise (802.1X)</text>
  <text x="480" y="514" text-anchor="middle" class="sub">VLAN Management separata</text>
  <line x1="470" y1="368" x2="480" y2="430" class="wire"/>
</svg>
