<svg viewBox="0 0 2380 1440" xmlns="http://www.w3.org/2000/svg" font-family="'Segoe UI', Arial, sans-serif">
  <defs>
    <linearGradient id="gBlue" x1="0" y1="0" x2="0" y2="1"><stop offset="0" stop-color="#4a9fe0"/><stop offset="1" stop-color="#1f5a9c"/></linearGradient>
    <linearGradient id="gBeige" x1="0" y1="0" x2="0" y2="1"><stop offset="0" stop-color="#d8d3aa"/><stop offset="1" stop-color="#b6b083"/></linearGradient>

    <symbol id="sw" viewBox="0 0 130 84">
      <polygon points="8,34 30,14 122,14 100,34" fill="#5aaae8"/><polygon points="100,34 122,14 122,54 100,74" fill="#194f8a"/>
      <rect x="8" y="34" width="92" height="40" fill="url(#gBlue)"/>
      <path d="M28 46 H80 M72 41 L82 46 L72 51" stroke="#fff" stroke-width="2.4" fill="none"/>
      <path d="M82 60 H30 M40 55 L30 60 L40 65" stroke="#fff" stroke-width="2.4" fill="none"/>
    </symbol>
    <symbol id="box" viewBox="0 0 120 80">
      <polygon points="8,30 28,12 112,12 92,30" fill="#5aaae8"/><polygon points="92,30 112,12 112,52 92,70" fill="#194f8a"/>
      <rect x="8" y="30" width="84" height="40" fill="url(#gBlue)"/>
    </symbol>
    <symbol id="srv" viewBox="0 0 70 112">
      <polygon points="8,12 20,4 60,4 48,12" fill="#e4dfbf"/><polygon points="48,12 60,4 60,96 48,104" fill="#a39d72"/>
      <rect x="8" y="12" width="40" height="92" fill="url(#gBeige)"/>
      <circle cx="14" cy="18" r="2" fill="#6aa84f"/><circle cx="21" cy="18" r="2" fill="#6aa84f"/>
      <line x1="11" y1="26" x2="45" y2="26" stroke="#8f8a5f"/><line x1="11" y1="31" x2="45" y2="31" stroke="#8f8a5f"/>
      <rect x="12" y="40" width="32" height="8" fill="#c4be90" stroke="#8f8a5f"/>
      <rect x="12" y="52" width="32" height="8" fill="#c4be90" stroke="#8f8a5f"/>
      <rect x="12" y="64" width="32" height="8" fill="#c4be90" stroke="#8f8a5f"/>
    </symbol>
    <symbol id="tab" viewBox="0 0 74 56"><rect x="5" y="4" width="64" height="48" rx="7" fill="#3a3a3a" stroke="#111"/><rect x="12" y="10" width="50" height="36" fill="#6cc1e8"/></symbol>
    <symbol id="cam" viewBox="0 0 84 56">
      <rect x="26" y="8" width="8" height="8" fill="#445663"/><rect x="8" y="16" width="46" height="26" rx="4" fill="#6b7a86" stroke="#2c3a44"/>
      <rect x="6" y="14" width="40" height="6" fill="#445663"/><circle cx="58" cy="29" r="13" fill="#2c3a44"/><circle cx="58" cy="29" r="7" fill="#4aa3d6"/>
    </symbol>
    <symbol id="sen" viewBox="0 0 44 56">
      <line x1="22" y1="22" x2="22" y2="7" stroke="#3f6b3a" stroke-width="2"/><circle cx="22" cy="6" r="3" fill="#3f6b3a"/>
      <rect x="7" y="22" width="30" height="28" rx="4" fill="#7aa874" stroke="#3f6b3a"/><circle cx="22" cy="36" r="6" fill="#eaf3e7" stroke="#3f6b3a"/>
    </symbol>
    <symbol id="ap" viewBox="0 0 90 56">
      <path d="M22 28 A24 24 0 0 1 68 28" stroke="#2b6fb5" stroke-width="2.5" fill="none"/>
      <path d="M30 30 A16 16 0 0 1 60 30" stroke="#2b6fb5" stroke-width="2.5" fill="none"/>
      <path d="M37 32 A8 8 0 0 1 53 32" stroke="#2b6fb5" stroke-width="2.5" fill="none"/>
      <rect x="30" y="34" width="30" height="10" rx="4" fill="#2b6fb5"/><ellipse cx="45" cy="46" rx="33" ry="8" fill="url(#gBlue)" stroke="#194f8a"/>
    </symbol>
    <symbol id="pc" viewBox="0 0 74 66">
      <rect x="6" y="4" width="62" height="40" rx="3" fill="#3a4a55" stroke="#1f2b33"/><rect x="11" y="9" width="52" height="30" fill="#6cc1e8"/>
      <rect x="32" y="44" width="10" height="10" fill="#6b7a86"/><rect x="22" y="54" width="30" height="6" rx="3" fill="#6b7a86"/>
    </symbol>
    <symbol id="fw" viewBox="0 0 110 84">
      <polygon points="8,30 28,12 102,12 82,30" fill="#d9776b"/><polygon points="82,30 102,12 102,52 82,70" fill="#8f2419"/>
      <rect x="8" y="30" width="74" height="40" fill="#b03a2e"/>
      <line x1="8" y1="43" x2="82" y2="43" stroke="#e8c9c2"/><line x1="8" y1="56" x2="82" y2="56" stroke="#e8c9c2"/>
      <line x1="26" y1="30" x2="26" y2="43" stroke="#e8c9c2"/><line x1="46" y1="30" x2="46" y2="43" stroke="#e8c9c2"/><line x1="66" y1="30" x2="66" y2="43" stroke="#e8c9c2"/>
      <line x1="16" y1="43" x2="16" y2="56" stroke="#e8c9c2"/><line x1="36" y1="43" x2="36" y2="56" stroke="#e8c9c2"/><line x1="56" y1="43" x2="56" y2="56" stroke="#e8c9c2"/><line x1="76" y1="43" x2="76" y2="56" stroke="#e8c9c2"/>
      <line x1="26" y1="56" x2="26" y2="70" stroke="#e8c9c2"/><line x1="46" y1="56" x2="46" y2="70" stroke="#e8c9c2"/><line x1="66" y1="56" x2="66" y2="70" stroke="#e8c9c2"/>
    </symbol>
    <symbol id="cloud" viewBox="0 0 200 120"><path d="M55 100 C28 100 22 74 44 67 C40 43 78 34 92 52 C104 33 142 39 142 64 C166 64 170 96 144 100 Z" fill="#fff" stroke="#555" stroke-width="2.2"/></symbol>
  </defs>

  <rect x="0" y="0" width="2380" height="1440" fill="#ffffff"/>

  <!-- TITLES -->
  <text x="40" y="44" font-size="26" font-weight="700" fill="#16324f">Schema logico — Cantiere (cantiere k) ↔ Sede centrale, collegati da VPN site-to-site</text>
  <text x="40" y="70" font-size="14.5" fill="#5b6b78">Maturità 2026 · A038 — VLAN a fasce orizzontali (macchia di leopardo) · ogni nodo d'accesso dirama 1 tablet, 1 telecamera, 1 sensore</text>
  <text x="430" y="150" font-size="20" font-weight="700" fill="#1f5a9c">CANTIERE k</text>
  <text x="1900" y="150" font-size="20" font-weight="700" fill="#b03a2e" text-anchor="middle">SEDE CENTRALE (BIM)</text>

  <!-- CLOUD + tunnel + WAN links -->
  <use href="#cloud" x="1080" y="18" width="200" height="120"/>
  <text x="1180" y="84" font-size="16" font-weight="600" text-anchor="middle" fill="#33475a">Internet</text>
  <line x1="612" y1="226" x2="1108" y2="120" stroke="#000" stroke-width="2"/>
  <text x="820" y="150" font-size="13" fill="#444">4G/5G dual-SIM</text>
  <line x1="1848" y1="226" x2="1256" y2="120" stroke="#000" stroke-width="2"/>
  <text x="1520" y="150" font-size="13" text-anchor="end" fill="#444">fibra FTTH simmetrica</text>

  <line x1="560" y1="214" x2="1900" y2="214" stroke="#16324f" stroke-width="2.6" stroke-dasharray="10 5"/>
  <rect x="1010" y="236" width="340" height="100" rx="8" fill="#eef3fb" stroke="#16324f" stroke-dasharray="6 4"/>
  <text x="1180" y="258" font-size="13.5" font-weight="700" text-anchor="middle" fill="#16324f">Tunnel site-to-site  TUN (GRE su IPsec)</text>
  <text x="1180" y="280" font-size="13" text-anchor="middle" fill="#23404f">/30 del cantiere k:  10.255.0.[4(k−1)]/30   (passo +4)</text>
  <text x="1180" y="300" font-size="13" text-anchor="middle" fill="#23404f">cantiere 10.255.0.[4k−3]  ↔  sede 10.255.0.[4k−2]</text>
  <text x="1180" y="320" font-size="13" text-anchor="middle" fill="#23404f">routing dinamico OSPF · area 0</text>

  <!-- =================== CANTIERE =================== -->
  <!-- mgmt VLAN99 zone -->
  <rect x="120" y="328" width="1190" height="296" rx="14" fill="#fafcff" stroke="#6a7b88" stroke-width="1.5" stroke-dasharray="8 5"/>
  <text x="138" y="350" font-size="13" font-weight="700" fill="#3a4a56">VLAN 99 — Management · 10.k.99.0/24  (GW .254 · CS .1 · AS .2/.3 · AP .4/.5 · NAS .10 · broker .250)</text>

  <!-- Gateway 4G/5G -->
  <use href="#box" x="500" y="200" width="120" height="80"/>
  <line x1="516" y1="228" x2="502" y2="196" stroke="#194f8a" stroke-width="2.4"/><circle cx="502" cy="194" r="3" fill="#194f8a"/>
  <line x1="534" y1="228" x2="548" y2="196" stroke="#194f8a" stroke-width="2.4"/><circle cx="548" cy="194" r="3" fill="#194f8a"/>
  <rect x="506" y="246" width="26" height="18" fill="#b03a2e" stroke="#7d1f17"/>
  <line x1="506" y1="255" x2="532" y2="255" stroke="#f2d6cf"/><line x1="515" y1="246" x2="515" y2="255" stroke="#f2d6cf"/><line x1="523" y1="255" x2="523" y2="264" stroke="#f2d6cf"/>
  <text x="630" y="226" font-size="14" font-weight="700" fill="#16324f">Gateway 4G/5G</text>
  <text x="630" y="244" font-size="12.5" fill="#33475a">Router · Firewall/NAT · VPN</text>
  <text x="630" y="261" font-size="12.5" fill="#33475a">GW .254 · TUN 10.255.0.[4k−3]</text>

  <!-- CS core -->
  <line x1="560" y1="280" x2="560" y2="352" stroke="#000" stroke-width="2"/>
  <text x="572" y="320" font-size="12.5" fill="#444">Trunk VLAN 10/20/30/99</text>
  <use href="#sw" x="495" y="350" width="130" height="84"/>
  <text x="560" y="448" font-size="13.5" font-weight="700" text-anchor="middle" fill="#16324f">CS — Core switch L3</text>

  <!-- Edge NAS -->
  <line x1="497" y1="404" x2="214" y2="396" stroke="#000" stroke-width="2"/>
  <use href="#srv" x="150" y="346" width="60" height="98"/>
  <text x="180" y="466" font-size="12.5" font-weight="700" text-anchor="middle" fill="#16324f">Edge NAS</text>
  <text x="180" y="482" font-size="11.5" text-anchor="middle" fill="#33475a">store&amp;forward .99.10</text>

  <!-- access nodes uplinks -->
  <line x1="540" y1="432" x2="224" y2="540" stroke="#000" stroke-width="2"/>
  <line x1="552" y1="434" x2="495" y2="522" stroke="#000" stroke-width="2"/>
  <line x1="575" y1="434" x2="775" y2="522" stroke="#000" stroke-width="2"/>
  <line x1="600" y1="432" x2="1054" y2="540" stroke="#000" stroke-width="2"/>

  <use href="#ap" x="180" y="535" width="88" height="54"/>
  <text x="224" y="604" font-size="12" font-weight="700" text-anchor="middle" fill="#16324f">AP1 (Wi-Fi mesh)</text>
  <use href="#sw" x="440" y="520" width="110" height="72"/>
  <text x="495" y="606" font-size="12" font-weight="700" text-anchor="middle" fill="#16324f">AS/DS1</text>
  <use href="#sw" x="720" y="520" width="110" height="72"/>
  <text x="775" y="606" font-size="12" font-weight="700" text-anchor="middle" fill="#16324f">AS/DS2</text>
  <use href="#ap" x="1010" y="535" width="88" height="54"/>
  <text x="1054" y="604" font-size="12" font-weight="700" text-anchor="middle" fill="#16324f">AP2 (Wi-Fi mesh)</text>

  <!-- VLAN bands -->
  <ellipse cx="660" cy="730" rx="660" ry="92" fill="none" stroke="#333" stroke-width="2"/>
  <ellipse cx="660" cy="905" rx="660" ry="92" fill="none" stroke="#333" stroke-width="2"/>
  <ellipse cx="660" cy="1085" rx="685" ry="102" fill="none" stroke="#333" stroke-width="2"/>

  <!-- downlinks: AP wireless (dashed grey), AS wired (solid) -->
  <g stroke="#7a7a7a" stroke-width="1.8" stroke-dasharray="6 5">
    <line x1="224" y1="589" x2="224" y2="1075"/><line x1="1054" y1="589" x2="1054" y2="1075"/>
  </g>
  <g stroke="#000" stroke-width="1.7">
    <line x1="495" y1="592" x2="495" y2="1075"/><line x1="775" y1="592" x2="775" y2="1075"/>
  </g>

  <!-- BAND 10 tablets -->
  <use href="#tab" x="194" y="707" width="60" height="46"/><use href="#tab" x="465" y="707" width="60" height="46"/>
  <use href="#tab" x="745" y="707" width="60" height="46"/><use href="#tab" x="1024" y="707" width="60" height="46"/>
  <text x="224" y="772" font-size="11.5" text-anchor="middle" fill="#16324f">10.k.10.1</text>
  <text x="495" y="772" font-size="11.5" text-anchor="middle" fill="#16324f">10.k.10.2</text>
  <text x="775" y="772" font-size="11.5" text-anchor="middle" fill="#16324f">10.k.10.3</text>
  <text x="1054" y="772" font-size="11.5" text-anchor="middle" fill="#16324f">10.k.10.4</text>
  <text x="1300" y="724" font-size="14" font-weight="700" text-anchor="end" fill="#16324f">VLAN 10 · Tablet</text>
  <text x="1300" y="742" font-size="12" text-anchor="end" fill="#33475a">10.k.10.0/24 · GW .254 · DHCP</text>

  <!-- BAND 20 cameras -->
  <use href="#cam" x="194" y="884" width="60" height="42"/><use href="#cam" x="465" y="884" width="60" height="42"/>
  <use href="#cam" x="745" y="884" width="60" height="42"/><use href="#cam" x="1024" y="884" width="60" height="42"/>
  <text x="224" y="946" font-size="11.5" text-anchor="middle" fill="#16324f">10.k.20.1</text>
  <text x="495" y="946" font-size="11.5" text-anchor="middle" fill="#16324f">10.k.20.2</text>
  <text x="775" y="946" font-size="11.5" text-anchor="middle" fill="#16324f">10.k.20.3</text>
  <text x="1054" y="946" font-size="11.5" text-anchor="middle" fill="#16324f">10.k.20.4</text>
  <text x="1300" y="900" font-size="14" font-weight="700" text-anchor="end" fill="#16324f">VLAN 20 · Telecamere</text>
  <text x="1300" y="918" font-size="12" text-anchor="end" fill="#33475a">10.k.20.0/24 · GW .254 · PoE</text>

  <!-- BAND 30 sensors + WSN gateways -->
  <use href="#sen" x="207" y="1063" width="34" height="44"/><use href="#sen" x="478" y="1063" width="34" height="44"/>
  <use href="#sen" x="758" y="1063" width="34" height="44"/><use href="#sen" x="1037" y="1063" width="34" height="44"/>
  <text x="224" y="1124" font-size="11" text-anchor="middle" fill="#16324f">10.k.30.1 (Wi-Fi)</text>
  <text x="495" y="1124" font-size="11" text-anchor="middle" fill="#16324f">10.k.30.2 (Eth)</text>
  <text x="775" y="1124" font-size="11" text-anchor="middle" fill="#16324f">10.k.30.3 (Eth)</text>
  <text x="1054" y="1124" font-size="11" text-anchor="middle" fill="#16324f">10.k.30.4 (Wi-Fi)</text>
  <text x="1310" y="1080" font-size="14" font-weight="700" text-anchor="end" fill="#16324f">VLAN 30 · Sensori IoT</text>
  <text x="1310" y="1098" font-size="12" text-anchor="end" fill="#33475a">10.k.30.0/24 · GW .254</text>

  <!-- WSN GW: Zigbee (green) -->
  <use href="#box" x="322" y="1040" width="76" height="52"/>
  <line x1="350" y1="1058" x2="342" y2="1040" stroke="#2e7d32" stroke-width="2"/><line x1="370" y1="1058" x2="378" y2="1040" stroke="#2e7d32" stroke-width="2"/>
  <path d="M344 1036 A18 18 0 0 1 376 1036" stroke="#2e7d32" stroke-width="1.6" fill="none"/>
  <circle cx="338" cy="1024" r="3" fill="#2e7d32"/><circle cx="382" cy="1024" r="3" fill="#2e7d32"/>
  <text x="360" y="1112" font-size="11" font-weight="700" text-anchor="middle" fill="#2e7d32">Zigbee</text>
  <text x="360" y="1126" font-size="10" text-anchor="middle" fill="#2e7d32">coordinator</text>

  <!-- WSN GW: LoRaWAN (orange) -->
  <use href="#box" x="602" y="1040" width="76" height="52"/>
  <line x1="630" y1="1058" x2="622" y2="1040" stroke="#e07b00" stroke-width="2"/><line x1="650" y1="1058" x2="658" y2="1040" stroke="#e07b00" stroke-width="2"/>
  <path d="M624 1036 A18 18 0 0 1 656 1036" stroke="#e07b00" stroke-width="1.6" fill="none"/>
  <circle cx="618" cy="1024" r="3" fill="#e07b00"/><circle cx="662" cy="1024" r="3" fill="#e07b00"/>
  <text x="640" y="1112" font-size="11" font-weight="700" text-anchor="middle" fill="#e07b00">LoRaWAN</text>
  <text x="640" y="1126" font-size="10" text-anchor="middle" fill="#e07b00">PF + NS + AS</text>

  <!-- WSN GW: BLE (blue) -->
  <use href="#box" x="902" y="1040" width="76" height="52"/>
  <line x1="930" y1="1058" x2="922" y2="1040" stroke="#1565c0" stroke-width="2"/><line x1="950" y1="1058" x2="958" y2="1040" stroke="#1565c0" stroke-width="2"/>
  <path d="M924 1036 A18 18 0 0 1 956 1036" stroke="#1565c0" stroke-width="1.6" fill="none"/>
  <circle cx="918" cy="1024" r="3" fill="#1565c0"/><circle cx="962" cy="1024" r="3" fill="#1565c0"/>
  <text x="940" y="1112" font-size="11" font-weight="700" text-anchor="middle" fill="#1565c0">BLE</text>
  <text x="940" y="1126" font-size="10" text-anchor="middle" fill="#1565c0">coordinator</text>

  <!-- Broker MQTT (cantiere) + left-margin riser to CS -->
  <polyline points="640,1240 90,1240 90,396 195,396" fill="none" stroke="#000" stroke-width="1.6"/>
  <use href="#box" x="580" y="1205" width="120" height="80"/>
  <text x="640" y="1300" font-size="12.5" font-weight="700" text-anchor="middle" fill="#16324f">Broker MQTT (locale)</text>
  <text x="640" y="1316" font-size="11.5" text-anchor="middle" fill="#33475a">10.k.30.250</text>

  <!-- MQTT client sessions (dashed blue) -> broker -->
  <g stroke="#1565c0" stroke-width="1.6" stroke-dasharray="5 4">
    <line x1="224" y1="1108" x2="600" y2="1235"/><line x1="495" y1="1108" x2="612" y2="1235"/>
    <line x1="775" y1="1108" x2="660" y2="1232"/><line x1="1054" y1="1108" x2="690" y2="1235"/>
    <line x1="360" y1="1092" x2="606" y2="1230"/><line x1="640" y1="1092" x2="645" y2="1203"/><line x1="940" y1="1092" x2="685" y2="1230"/>
  </g>
  <text x="760" y="1180" font-size="11.5" fill="#1565c0">— —  sessioni MQTT (client → broker): sensori Eth/Wi-Fi + gateway WSN</text>

  <!-- =================== SEDE =================== -->
  <!-- Firewall NGFW -->
  <use href="#fw" x="1840" y="205" width="110" height="82"/>
  <text x="1962" y="226" font-size="13.5" font-weight="700" fill="#16324f">NGFW / UTM</text>
  <text x="1962" y="243" font-size="12" fill="#33475a">IPS-IDS · concentratore VPN</text>
  <text x="1962" y="260" font-size="12" fill="#33475a">WAN .254 · TUN 10.255.0.[4k−2]</text>

  <!-- DMZ -->
  <line x1="1950" y1="246" x2="2078" y2="246" stroke="#000" stroke-width="2"/>
  <use href="#srv" x="2078" y="206" width="52" height="84"/><use href="#srv" x="2168" y="206" width="52" height="84"/>
  <text x="2104" y="304" font-size="11" text-anchor="middle" fill="#16324f">Repository</text>
  <text x="2194" y="304" font-size="11" text-anchor="middle" fill="#16324f">Rev. proxy</text>
  <rect x="2058" y="190" width="182" height="128" rx="8" fill="none" stroke="#b06a00" stroke-width="1.4" stroke-dasharray="6 4"/>
  <text x="2149" y="334" font-size="12" font-weight="700" text-anchor="middle" fill="#b06a00">VLAN 40 · DMZ · 10.0.40.0/24</text>

  <!-- Core L3 sede -->
  <line x1="1895" y1="287" x2="1895" y2="360" stroke="#000" stroke-width="2"/>
  <use href="#sw" x="1830" y="360" width="130" height="84"/>
  <text x="1895" y="460" font-size="13" font-weight="700" text-anchor="middle" fill="#16324f">Core switch L3 (sede) · mgmt 10.0.99.1</text>

  <!-- branches from core -->
  <line x1="1855" y1="440" x2="1640" y2="572" stroke="#000" stroke-width="2"/>
  <line x1="1895" y1="444" x2="1955" y2="572" stroke="#000" stroke-width="2"/>
  <line x1="1935" y1="438" x2="2170" y2="560" stroke="#000" stroke-width="2"/>

  <!-- Server farm VLAN30 -->
  <rect x="1470" y="560" width="350" height="170" rx="10" fill="#fbfbf4" stroke="#7a7a55" stroke-dasharray="6 4"/>
  <line x1="1505" y1="576" x2="1785" y2="576" stroke="#9a9560"/>
  <use href="#srv" x="1483" y="576" width="48" height="80"/><use href="#srv" x="1563" y="576" width="48" height="80"/>
  <use href="#srv" x="1643" y="576" width="48" height="80"/><use href="#srv" x="1723" y="576" width="48" height="80"/>
  <text x="1507" y="672" font-size="10.5" text-anchor="middle" fill="#16324f">NAS/SAN</text>
  <text x="1587" y="672" font-size="10.5" text-anchor="middle" fill="#16324f">App BIM</text>
  <text x="1667" y="672" font-size="10.5" text-anchor="middle" fill="#16324f">AD/RADIUS</text>
  <text x="1747" y="672" font-size="10.5" text-anchor="middle" fill="#16324f">DB · MQTT</text>
  <text x="1645" y="700" font-size="12.5" font-weight="700" text-anchor="middle" fill="#16324f">VLAN 30 · Server farm</text>
  <text x="1645" y="718" font-size="11.5" text-anchor="middle" fill="#33475a">10.0.30.0/24 · GW .254 (CDE/BIM)</text>

  <!-- Uffici VLAN10 -->
  <use href="#pc" x="1892" y="576" width="56" height="50"/><use href="#pc" x="1972" y="576" width="56" height="50"/>
  <text x="1958" y="648" font-size="12.5" font-weight="700" text-anchor="middle" fill="#16324f">VLAN 10 · Uffici BIM</text>
  <text x="1958" y="666" font-size="11.5" text-anchor="middle" fill="#33475a">10.0.10.0/24 · GW .254</text>

  <!-- Wi-Fi staff VLAN20 -->
  <use href="#ap" x="2126" y="560" width="80" height="50"/>
  <use href="#tab" x="2230" y="566" width="52" height="40"/>
  <line x1="2166" y1="606" x2="2256" y2="572" stroke="#7a7a7a" stroke-width="1.6" stroke-dasharray="6 5"/>
  <text x="2206" y="640" font-size="12.5" font-weight="700" text-anchor="middle" fill="#16324f">VLAN 20 · Wi-Fi staff</text>
  <text x="2206" y="658" font-size="11.5" text-anchor="middle" fill="#33475a">10.0.20.0/24 · GW .254</text>

  <text x="1895" y="500" font-size="11.5" text-anchor="middle" fill="#3a4a56">VLAN 99 Management sede · 10.0.99.0/24</text>

  <!-- ============ LEGEND ============ -->
  <rect x="120" y="1340" width="1200" height="74" rx="8" fill="#f7f9fb" stroke="#ccd6de"/>
  <line x1="140" y1="1364" x2="190" y2="1364" stroke="#000" stroke-width="2"/><text x="200" y="1368" font-size="12.5" fill="#23404f">cablato Eth/PoE</text>
  <line x1="330" y1="1364" x2="380" y2="1364" stroke="#7a7a7a" stroke-width="2" stroke-dasharray="6 5"/><text x="390" y="1368" font-size="12.5" fill="#23404f">wireless Wi-Fi</text>
  <line x1="520" y1="1364" x2="570" y2="1364" stroke="#1565c0" stroke-width="2" stroke-dasharray="5 4"/><text x="580" y="1368" font-size="12.5" fill="#23404f">sessione MQTT (→ broker)</text>
  <line x1="820" y1="1364" x2="870" y2="1364" stroke="#2e7d32" stroke-width="2"/><text x="880" y="1368" font-size="12.5" fill="#23404f">radio WSN (Zigbee/LoRa/BLE)</text>
  <line x1="1150" y1="1364" x2="1200" y2="1364" stroke="#16324f" stroke-width="2.4" stroke-dasharray="9 5"/><text x="1210" y="1368" font-size="12.5" fill="#23404f">tunnel VPN</text>
  <text x="140" y="1394" font-size="12" fill="#5b6b78">Ogni AP/AS dirama 1 tablet + 1 telecamera + 1 sensore · i 3 gateway WSN aggregano i sensori radio e pubblicano via MQTT al broker locale (bridged verso il broker di sede).</text>
</svg>
