<svg viewBox="0 0 860 480" xmlns="http://www.w3.org/2000/svg" font-family="'Segoe UI', system-ui, sans-serif">
  <defs>
    <linearGradient id="bg3" x1="0" y1="0" x2="0" y2="1"><stop offset="0%" stop-color="#eff6ff"/><stop offset="100%" stop-color="#dbeafe"/></linearGradient>
    <filter id="sh3"><feDropShadow dx="0" dy="3" stdDeviation="5" flood-color="#2563eb22"/></filter>
    <filter id="sh3b"><feDropShadow dx="0" dy="2" stdDeviation="3" flood-color="#00000015"/></filter>
    <marker id="arr" markerWidth="9" markerHeight="9" refX="7" refY="3.5" orient="auto"><path d="M0,0 L0,7 L9,3.5 z" fill="#2563eb"/></marker>
    <marker id="arrG" markerWidth="9" markerHeight="9" refX="7" refY="3.5" orient="auto"><path d="M0,0 L0,7 L9,3.5 z" fill="#16a34a"/></marker>
    <marker id="arrR" markerWidth="9" markerHeight="9" refX="7" refY="3.5" orient="auto"><path d="M0,0 L0,7 L9,3.5 z" fill="#dc2626"/></marker>
    <marker id="arrA" markerWidth="9" markerHeight="9" refX="7" refY="3.5" orient="auto"><path d="M0,0 L0,7 L9,3.5 z" fill="#f59e0b"/></marker>
  </defs>

  <rect width="860" height="480" fill="url(#bg3)" rx="16"/>
  <text x="430" y="36" text-anchor="middle" font-size="20" font-weight="700" fill="#0f172a">Piano del Servizio: VRRP + HAProxy + DNAT</text>
  <text x="430" y="56" text-anchor="middle" font-size="12.5" fill="#475569">Come il servizio rimane raggiungibile anche durante un guasto</text>

  <!-- CLIENT -->
  <rect x="28" y="190" width="86" height="62" rx="10" fill="#1e293b" filter="url(#sh3b)"/>
  <text x="71" y="214" text-anchor="middle" font-size="11" font-weight="700" fill="white">CLIENT</text>
  <rect x="52" y="219" width="38" height="24" rx="3" fill="none" stroke="#94a3b8" stroke-width="1.5"/>
  <line x1="71" y1="243" x2="71" y2="247" stroke="#94a3b8" stroke-width="1.5"/>
  <line x1="64" y1="247" x2="78" y2="247" stroke="#94a3b8" stroke-width="1.5"/>

  <line x1="116" y1="221" x2="156" y2="221" stroke="#2563eb" stroke-width="2.5" marker-end="url(#arr)"/>
  <text x="136" y="214" text-anchor="middle" font-size="10" fill="#2563eb">HTTPS</text>

  <!-- VIP -->
  <ellipse cx="206" cy="221" rx="42" ry="26" fill="#2563eb" filter="url(#sh3)"/>
  <text x="206" y="216" text-anchor="middle" font-size="11" font-weight="700" fill="white">VIP</text>
  <text x="206" y="231" text-anchor="middle" font-size="9.5" fill="#bfdbfe">10.0.0.1</text>
  <rect x="158" y="256" width="96" height="22" rx="11" fill="#1d4ed8"/>
  <text x="206" y="271" text-anchor="middle" font-size="10" font-weight="700" fill="white">VRRP keepalived</text>

  <!-- VIP to master (active) -->
  <line x1="248" y1="206" x2="316" y2="172" stroke="#16a34a" stroke-width="2.5" marker-end="url(#arrG)"/>
  <!-- VIP to slave (standby dashed) -->
  <line x1="248" y1="238" x2="316" y2="300" stroke="#94a3b8" stroke-width="1.5" stroke-dasharray="5,4"/>

  <!-- PROXY MASTER -->
  <rect x="320" y="118" width="170" height="96" rx="12" fill="white" stroke="#16a34a" stroke-width="2.5" filter="url(#sh3)"/>
  <rect x="320" y="118" width="170" height="26" rx="12" fill="#16a34a"/>
  <rect x="320" y="132" width="170" height="12" fill="#16a34a"/>
  <text x="405" y="135" text-anchor="middle" font-size="12" font-weight="700" fill="white">PROXY MASTER</text>
  <text x="405" y="158" text-anchor="middle" font-size="11" fill="#166534">HAProxy / Nginx</text>
  <text x="405" y="174" text-anchor="middle" font-size="10" fill="#374151">ALG · SSL termination</text>
  <rect x="338" y="184" width="134" height="20" rx="10" fill="#dcfce7"/>
  <text x="405" y="198" text-anchor="middle" font-size="10" font-weight="700" fill="#14532d">● ATTIVO — detiene il VIP</text>

  <!-- heartbeat: il master annuncia la sua presenza allo slave (master -> slave) -->
  <line x1="405" y1="216" x2="405" y2="256" stroke="#f59e0b" stroke-width="2" stroke-dasharray="3,3" marker-end="url(#arrA)"/>
  <rect x="416" y="226" width="118" height="18" rx="9" fill="#fef3c7"/>
  <text x="475" y="239" text-anchor="middle" font-size="9" fill="#92400e">heartbeat (advertisement)</text>

  <!-- PROXY SLAVE -->
  <rect x="320" y="258" width="170" height="86" rx="12" fill="white" stroke="#94a3b8" stroke-width="1.5" filter="url(#sh3b)"/>
  <rect x="320" y="258" width="170" height="26" rx="12" fill="#94a3b8"/>
  <rect x="320" y="272" width="170" height="12" fill="#94a3b8"/>
  <text x="405" y="275" text-anchor="middle" font-size="12" font-weight="700" fill="white">PROXY SLAVE</text>
  <text x="405" y="298" text-anchor="middle" font-size="11" fill="#374151">HAProxy / Nginx</text>
  <text x="405" y="314" text-anchor="middle" font-size="10" fill="#374151">in ascolto dell'heartbeat</text>
  <rect x="338" y="322" width="134" height="18" rx="9" fill="#f1f5f9"/>
  <text x="405" y="335" text-anchor="middle" font-size="9.5" font-weight="700" fill="#64748b">◌ STANDBY — pronto al takeover</text>

  <!-- DNAT + health-check engine: pill attached to the master, origin of all arrows -->
  <rect x="492" y="166" width="94" height="40" rx="8" fill="#16a34a" filter="url(#sh3b)"/>
  <text x="539" y="182" text-anchor="middle" font-size="10" font-weight="700" fill="white">DNAT</text>
  <text x="539" y="197" text-anchor="middle" font-size="9" fill="#dcfce7">+ health check 500ms</text>
  <!-- short connector master -> pill -->
  <line x1="490" y1="186" x2="492" y2="186" stroke="#16a34a" stroke-width="2.5"/>

  <!-- BACKEND POOL -->
  <rect x="600" y="110" width="172" height="220" rx="14" fill="#f8fafc" stroke="#e2e8f0" stroke-width="2" filter="url(#sh3b)"/>
  <text x="686" y="132" text-anchor="middle" font-size="12" font-weight="700" fill="#1e293b">BACKEND POOL</text>
  <text x="686" y="147" text-anchor="middle" font-size="10" fill="#64748b">server web / applicativi</text>

  <!-- Server 1 (healthy) -->
  <rect x="616" y="158" width="140" height="46" rx="9" fill="white" stroke="#16a34a" stroke-width="1.5"/>
  <text x="686" y="177" text-anchor="middle" font-size="11" font-weight="600" fill="#166534">Server 1</text>
  <rect x="624" y="183" width="124" height="16" rx="8" fill="#dcfce7"/>
  <text x="686" y="195" text-anchor="middle" font-size="9" fill="#14532d">● UP · riceve traffico</text>

  <!-- Server 2 (healthy) -->
  <rect x="616" y="212" width="140" height="46" rx="9" fill="white" stroke="#16a34a" stroke-width="1.5"/>
  <text x="686" y="231" text-anchor="middle" font-size="11" font-weight="600" fill="#166534">Server 2</text>
  <rect x="624" y="237" width="124" height="16" rx="8" fill="#dcfce7"/>
  <text x="686" y="249" text-anchor="middle" font-size="9" fill="#14532d">● UP · riceve traffico</text>

  <!-- Server 3 (down) -->
  <rect x="616" y="266" width="140" height="46" rx="9" fill="white" stroke="#dc2626" stroke-width="1.5" stroke-dasharray="4,3"/>
  <text x="686" y="285" text-anchor="middle" font-size="11" font-weight="600" fill="#dc2626">Server 3</text>
  <rect x="624" y="291" width="124" height="16" rx="8" fill="#fee2e2"/>
  <text x="686" y="303" text-anchor="middle" font-size="9" fill="#991b1b">✕ DOWN · escluso</text>
  <line x1="616" y1="266" x2="756" y2="312" stroke="#dc262622" stroke-width="2"/>
  <line x1="756" y1="266" x2="616" y2="312" stroke="#dc262622" stroke-width="2"/>

  <!-- Arrows fanning from the DNAT pill to each server -->
  <line x1="588" y1="174" x2="614" y2="181" stroke="#16a34a" stroke-width="2" marker-end="url(#arrG)"/>
  <line x1="588" y1="187" x2="614" y2="235" stroke="#16a34a" stroke-width="2" marker-end="url(#arrG)"/>
  <line x1="588" y1="198" x2="614" y2="289" stroke="#dc2626" stroke-width="1.6" stroke-dasharray="4,3" marker-end="url(#arrR)"/>

  <!-- FAILOVER note: full-width clean band, separate from diagram -->
  <rect x="28" y="356" width="806" height="40" rx="10" fill="#fef9c3" stroke="#fbbf24" stroke-width="1.5"/>
  <text x="48" y="381" font-size="12" fill="#78350f"><tspan font-weight="700">⚡ Failover:</tspan> se il master cade, lo slave acquisisce il VIP in 2–3 s, trasparente ai client (l'IP non cambia).</text>

  <!-- description -->
  <rect x="28" y="404" width="806" height="62" rx="10" fill="white" stroke="#e2e8f0" stroke-width="1.5"/>
  <text x="48" y="424" font-size="12.5" font-weight="700" fill="#0f172a">Come funziona</text>
  <text x="48" y="442" font-size="11.5" fill="#374151">1. I client raggiungono sempre il VIP, indirizzo virtuale condiviso tra proxy master e slave tramite VRRP/keepalived.</text>
  <text x="48" y="459" font-size="11.5" fill="#374151">2. Il master fa DNAT verso i backend e li controlla con health check (500 ms): il Server 3, che non risponde, viene escluso.</text>
</svg>
