<svg viewBox="0 0 860 540" xmlns="http://www.w3.org/2000/svg" font-family="'Segoe UI', system-ui, sans-serif">
  <defs>
    <linearGradient id="bg7" x1="0" y1="0" x2="0" y2="1"><stop offset="0%" stop-color="#f8fafc"/><stop offset="100%" stop-color="#f1f5f9"/></linearGradient>
    <filter id="sh7"><feDropShadow dx="0" dy="2" stdDeviation="3" flood-color="#00000012"/></filter>
  </defs>

  <rect width="860" height="540" fill="url(#bg7)" rx="16"/>
  <text x="430" y="34" text-anchor="middle" font-size="20" font-weight="700" fill="#0f172a">Chi Protegge da Cosa</text>
  <text x="430" y="53" text-anchor="middle" font-size="12.5" fill="#475569">Mappa guasti → tecnologie, in ordine di probabilità decrescente</text>

  <!-- Geometry: fault col x=30 w=232 ; 6 tech cols start x=270 each w=92 step 96 -->
  <!-- header -->
  <rect x="30" y="64" width="232" height="40" rx="8" fill="#1e293b"/>
  <text x="146" y="89" text-anchor="middle" font-size="11.5" font-weight="700" fill="white">Tipo di guasto</text>

  <g text-anchor="middle" font-weight="700" fill="white" font-size="9.5">
    <rect x="270" y="64" width="86" height="40" rx="6" fill="#16a34a"/><text x="313" y="82">Health Check</text><text x="313" y="95">+ DNAT</text>
    <rect x="362" y="64" width="86" height="40" rx="6" fill="#2563eb"/><text x="405" y="82">VRRP</text><text x="405" y="95">keepalived</text>
    <rect x="454" y="64" width="86" height="40" rx="6" fill="#7c3aed"/><text x="497" y="82">DRBD</text><text x="497" y="95">replica</text>
    <rect x="546" y="64" width="86" height="40" rx="6" fill="#0891b2"/><text x="589" y="82">HCI</text><text x="589" y="95">Ceph/vSAN</text>
    <rect x="638" y="64" width="86" height="40" rx="6" fill="#4f46e5"/><text x="681" y="82">VMware</text><text x="681" y="95">FT</text>
    <rect x="730" y="64" width="100" height="40" rx="6" fill="#9a3412"/><text x="780" y="82">Backup NAS</text><text x="780" y="95">/ WORM</text>
  </g>

  <!-- helper: cell centers x = 313,405,497,589,681,780 ; row centers vary -->
  <!-- ROW 1 y=112 h=58 center=141 -->
  <rect x="30" y="112" width="800" height="58" rx="8" fill="#f0fdf4" filter="url(#sh7)"/>
  <rect x="30" y="112" width="5" height="58" rx="2.5" fill="#16a34a"/>
  <text x="44" y="135" font-size="11.5" font-weight="700" fill="#0f172a">Crash processo / servizio</text>
  <text x="44" y="153" font-size="9.5" fill="#64748b">molto comune · watchdog</text>
  <rect x="276" y="118" width="74" height="46" rx="6" fill="#dcfce7" stroke="#16a34a" stroke-width="1.5"/>
  <text x="313" y="138" text-anchor="middle" font-size="15" fill="#16a34a">✓✓</text>
  <text x="313" y="155" text-anchor="middle" font-size="8" fill="#15803d">redirige &lt;5s</text>
  <text x="405" y="146" text-anchor="middle" font-size="13" fill="#cbd5e1">—</text>
  <text x="497" y="146" text-anchor="middle" font-size="13" fill="#cbd5e1">—</text>
  <text x="589" y="146" text-anchor="middle" font-size="13" fill="#cbd5e1">—</text>
  <text x="681" y="146" text-anchor="middle" font-size="13" fill="#cbd5e1">—</text>
  <text x="780" y="146" text-anchor="middle" font-size="13" fill="#cbd5e1">—</text>

  <!-- ROW 2 y=174 -->
  <rect x="30" y="174" width="800" height="58" rx="8" fill="white" filter="url(#sh7)"/>
  <rect x="30" y="174" width="5" height="58" rx="2.5" fill="#059669"/>
  <text x="44" y="197" font-size="11.5" font-weight="700" fill="#0f172a">Guasto disco singolo</text>
  <text x="44" y="215" font-size="9.5" fill="#64748b">frequente</text>
  <text x="313" y="208" text-anchor="middle" font-size="13" fill="#cbd5e1">—</text>
  <text x="405" y="208" text-anchor="middle" font-size="13" fill="#cbd5e1">—</text>
  <rect x="460" y="180" width="74" height="46" rx="6" fill="#f5f3ff" stroke="#7c3aed" stroke-width="1.5"/>
  <text x="497" y="200" text-anchor="middle" font-size="15" fill="#7c3aed">✓✓</text>
  <text x="497" y="217" text-anchor="middle" font-size="8" fill="#6d28d9">RAID-1 rete</text>
  <rect x="552" y="180" width="74" height="46" rx="6" fill="#e0f2fe" stroke="#0891b2" stroke-width="1.5"/>
  <text x="589" y="200" text-anchor="middle" font-size="15" fill="#0891b2">✓✓</text>
  <text x="589" y="217" text-anchor="middle" font-size="8" fill="#0e7490">replica dist.</text>
  <rect x="644" y="180" width="74" height="46" rx="6" fill="#e0e7ff" stroke="#4f46e5" stroke-width="1.5"/>
  <text x="681" y="200" text-anchor="middle" font-size="15" fill="#4f46e5">✓✓</text>
  <text x="681" y="217" text-anchor="middle" font-size="8" fill="#3730a3">sinc. completa</text>
  <text x="780" y="208" text-anchor="middle" font-size="11" fill="#94a3b8">RAID/ZFS</text>

  <!-- ROW 3 y=236 -->
  <rect x="30" y="236" width="800" height="58" rx="8" fill="#f0fdf4" filter="url(#sh7)"/>
  <rect x="30" y="236" width="5" height="58" rx="2.5" fill="#ca8a04"/>
  <text x="44" y="259" font-size="11.5" font-weight="700" fill="#0f172a">Guasto server backend</text>
  <text x="44" y="277" font-size="9.5" fill="#64748b">periodico · tier 2</text>
  <rect x="276" y="242" width="74" height="46" rx="6" fill="#dcfce7" stroke="#16a34a" stroke-width="1.5"/>
  <text x="313" y="262" text-anchor="middle" font-size="15" fill="#16a34a">✓✓</text>
  <text x="313" y="279" text-anchor="middle" font-size="8" fill="#15803d">esclude nodo</text>
  <text x="405" y="270" text-anchor="middle" font-size="13" fill="#cbd5e1">—</text>
  <text x="497" y="270" text-anchor="middle" font-size="13" fill="#cbd5e1">—</text>
  <text x="589" y="270" text-anchor="middle" font-size="14" fill="#16a34a">✓</text>
  <text x="681" y="270" text-anchor="middle" font-size="14" fill="#16a34a">✓</text>
  <text x="780" y="270" text-anchor="middle" font-size="13" fill="#cbd5e1">—</text>

  <!-- ROW 4 y=298 -->
  <rect x="30" y="298" width="800" height="58" rx="8" fill="white" filter="url(#sh7)"/>
  <rect x="30" y="298" width="5" height="58" rx="2.5" fill="#d97706"/>
  <text x="44" y="321" font-size="11.5" font-weight="700" fill="#0f172a">Guasto proxy / LB</text>
  <text x="44" y="339" font-size="9.5" fill="#64748b">raro · singolo punto</text>
  <text x="313" y="332" text-anchor="middle" font-size="13" fill="#cbd5e1">—</text>
  <rect x="368" y="304" width="74" height="46" rx="6" fill="#dbeafe" stroke="#2563eb" stroke-width="1.5"/>
  <text x="405" y="324" text-anchor="middle" font-size="15" fill="#2563eb">✓✓</text>
  <text x="405" y="341" text-anchor="middle" font-size="8" fill="#1d4ed8">VIP in 2–3s</text>
  <text x="497" y="332" text-anchor="middle" font-size="13" fill="#cbd5e1">—</text>
  <text x="589" y="332" text-anchor="middle" font-size="13" fill="#cbd5e1">—</text>
  <text x="681" y="332" text-anchor="middle" font-size="13" fill="#cbd5e1">—</text>
  <text x="780" y="332" text-anchor="middle" font-size="13" fill="#cbd5e1">—</text>

  <!-- ROW 5 y=360 -->
  <rect x="30" y="360" width="800" height="58" rx="8" fill="#f0fdf4" filter="url(#sh7)"/>
  <rect x="30" y="360" width="5" height="58" rx="2.5" fill="#ea580c"/>
  <text x="44" y="383" font-size="11.5" font-weight="700" fill="#0f172a">Guasto nodo hypervisor</text>
  <text x="44" y="401" font-size="9.5" fill="#64748b">raro · tutte le VM offline</text>
  <text x="313" y="394" text-anchor="middle" font-size="14" fill="#16a34a">✓</text>
  <text x="405" y="394" text-anchor="middle" font-size="14" fill="#16a34a">✓</text>
  <rect x="460" y="366" width="74" height="46" rx="6" fill="#f5f3ff" stroke="#7c3aed" stroke-width="1.5"/>
  <text x="497" y="386" text-anchor="middle" font-size="15" fill="#7c3aed">✓✓</text>
  <text x="497" y="403" text-anchor="middle" font-size="8" fill="#6d28d9">failover nodo</text>
  <rect x="552" y="366" width="74" height="46" rx="6" fill="#e0f2fe" stroke="#0891b2" stroke-width="1.5"/>
  <text x="589" y="386" text-anchor="middle" font-size="15" fill="#0891b2">✓✓</text>
  <text x="589" y="403" text-anchor="middle" font-size="8" fill="#0e7490">VM superstiti</text>
  <rect x="644" y="366" width="74" height="46" rx="6" fill="#e0e7ff" stroke="#4f46e5" stroke-width="2"/>
  <text x="681" y="386" text-anchor="middle" font-size="13" fill="#4f46e5">✓✓✓</text>
  <text x="681" y="403" text-anchor="middle" font-size="8" fill="#3730a3">zero downtime</text>
  <text x="780" y="394" text-anchor="middle" font-size="13" fill="#cbd5e1">—</text>

  <!-- ROW 6 y=422 -->
  <rect x="30" y="422" width="800" height="58" rx="8" fill="white" filter="url(#sh7)"/>
  <rect x="30" y="422" width="5" height="58" rx="2.5" fill="#e11d48"/>
  <text x="44" y="443" font-size="11.5" font-weight="700" fill="#0f172a">Ransomware / corruzione</text>
  <text x="44" y="461" font-size="9.5" fill="#64748b">raro · la replica lo propaga</text>
  <text x="313" y="454" text-anchor="middle" font-size="13" fill="#cbd5e1">—</text>
  <text x="405" y="454" text-anchor="middle" font-size="13" fill="#cbd5e1">—</text>
  <rect x="460" y="428" width="74" height="46" rx="6" fill="#fee2e2" stroke="#dc2626" stroke-width="1.5"/>
  <text x="497" y="448" text-anchor="middle" font-size="14" fill="#dc2626">✗</text>
  <text x="497" y="465" text-anchor="middle" font-size="7.5" fill="#991b1b">propaga</text>
  <rect x="552" y="428" width="74" height="46" rx="6" fill="#fee2e2" stroke="#dc2626" stroke-width="1.5"/>
  <text x="589" y="448" text-anchor="middle" font-size="14" fill="#dc2626">✗</text>
  <text x="589" y="465" text-anchor="middle" font-size="7.5" fill="#991b1b">propaga</text>
  <rect x="644" y="428" width="74" height="46" rx="6" fill="#fee2e2" stroke="#dc2626" stroke-width="1.5"/>
  <text x="681" y="448" text-anchor="middle" font-size="14" fill="#dc2626">✗</text>
  <text x="681" y="465" text-anchor="middle" font-size="7.5" fill="#991b1b">propaga</text>
  <rect x="736" y="428" width="88" height="46" rx="6" fill="#dcfce7" stroke="#15803d" stroke-width="2"/>
  <text x="780" y="446" text-anchor="middle" font-size="13" fill="#15803d">✓✓✓</text>
  <text x="780" y="462" text-anchor="middle" font-size="7.5" font-weight="700" fill="#14532d">UNICA difesa</text>

  <!-- legend -->
  <rect x="30" y="490" width="800" height="34" rx="8" fill="#eef2f6" stroke="#e2e8f0" stroke-width="1"/>
  <text x="48" y="511" font-size="10.5" font-weight="700" fill="#0f172a">Legenda</text>
  <text x="120" y="511" font-size="12" fill="#16a34a">✓✓✓</text><text x="150" y="511" font-size="10" fill="#374151">completa</text>
  <text x="225" y="511" font-size="12" fill="#16a34a">✓✓</text><text x="248" y="511" font-size="10" fill="#374151">forte</text>
  <text x="305" y="511" font-size="12" fill="#16a34a">✓</text><text x="318" y="511" font-size="10" fill="#374151">parziale</text>
  <text x="390" y="511" font-size="12" fill="#94a3b8">—</text><text x="404" y="511" font-size="10" fill="#374151">non pertinente</text>
  <text x="510" y="511" font-size="12" fill="#dc2626">✗</text><text x="524" y="511" font-size="10" fill="#374151">aggrava (propaga lo stato corrotto su tutte le repliche)</text>
</svg>
