<svg xmlns="http://www.w3.org/2000/svg" viewBox="0 0 900 660" font-family="'Segoe UI', system-ui, -apple-system, Roboto, sans-serif">
  <style>
    .ttl  { font-size: 19px; font-weight:700; fill:#18212B; }
    .sub  { font-size: 13px; fill:#586673; }
    .root { font-size: 14px; font-weight:800; fill:#fff; }
    .q    { font-size: 13.5px; font-weight:800; fill:#18212B; }
    .qs   { font-size: 11.5px; fill:#586673; }
    .lab  { font-size: 11.5px; font-weight:700; fill:#586673; }
    .out  { font-size: 13px; font-weight:700; fill:#fff; }
    .outs { font-size: 10.5px; fill:#fff; opacity:.92; }
    .mono { font-family:'SFMono-Regular',Consolas,monospace; }
  </style>
  <rect x="0" y="0" width="900" height="660" fill="#FFFFFF"/>
  <text x="32" y="36" class="ttl">Albero decisionale &#8212; quale tecnologia di autenticazione scegliere</text>
  <text x="32" y="56" class="sub">Tre domande in sequenza: <tspan font-weight="700">cosa</tspan> autentichi &#8594; su <tspan font-weight="700">quale canale</tspan> &#8594; con quale <tspan font-weight="700">forza</tspan>.</text>

  <!-- ROOT -->
  <rect x="330" y="78" width="240" height="46" rx="10" fill="#18212B"/>
  <text x="450" y="100" text-anchor="middle" class="root">Autenticazione del</text>
  <text x="450" y="117" text-anchor="middle" class="root">collegamento</text>

  <!-- Q: cosa autentichi -->
  <text x="450" y="150" text-anchor="middle" class="q">Cosa autentichi?</text>
  <line x1="450" y1="124" x2="450" y2="158" stroke="#586673" stroke-width="1.6"/>

  <!-- fan to three columns -->
  <path d="M450 162 L160 162 L160 190" fill="none" stroke="#586673" stroke-width="1.6"/>
  <path d="M450 162 L450 190" fill="none" stroke="#586673" stroke-width="1.6"/>
  <path d="M450 162 L740 162 L740 190" fill="none" stroke="#586673" stroke-width="1.6"/>

  <!-- ===== COLUMN A : MACCHINA ===== -->
  <rect x="40" y="190" width="240" height="40" rx="9" fill="#586673"/>
  <text x="160" y="215" text-anchor="middle" class="out">Macchina / dispositivo</text>

  <text x="160" y="256" text-anchor="middle" class="q">Su che canale?</text>
  <line x1="160" y1="230" x2="160" y2="264" stroke="#586673" stroke-width="1.4"/>
  <path d="M160 268 L80 268 L80 296" fill="none" stroke="#586673" stroke-width="1.4"/>
  <path d="M160 268 L250 268 L250 296" fill="none" stroke="#586673" stroke-width="1.4"/>
  <text x="80"  y="288" text-anchor="middle" class="lab">LAN cablata</text>
  <text x="250" y="288" text-anchor="middle" class="lab">radio LPWA</text>

  <rect x="24" y="298" width="118" height="74" rx="8" fill="#1C5440"/>
  <text x="83" y="324" text-anchor="middle" class="out">802.1X</text>
  <text x="83" y="342" text-anchor="middle" class="outs">EAP-TLS</text>
  <text x="83" y="358" text-anchor="middle" class="outs">MAB per legacy</text>

  <rect x="178" y="298" width="118" height="74" rx="8" fill="#2C5C8F"/>
  <text x="237" y="320" text-anchor="middle" class="out">PSK</text>
  <text x="237" y="338" text-anchor="middle" class="outs">LoRaWAN OTAA</text>
  <text x="237" y="354" text-anchor="middle" class="outs">AppKey + MIC</text>

  <line x1="160" y1="372" x2="160" y2="396" stroke="#1E6E66" stroke-width="1.6"/>
  <rect x="24" y="396" width="272" height="52" rx="8" fill="#1E6E66"/>
  <text x="160" y="418" text-anchor="middle" class="out">+ mTLS (L4/5)</text>
  <text x="160" y="436" text-anchor="middle" class="outs">se apre una sessione cifrata verso un servizio</text>

  <!-- ===== COLUMN B : UTENTE ===== -->
  <rect x="330" y="190" width="240" height="40" rx="9" fill="#586673"/>
  <text x="450" y="215" text-anchor="middle" class="out">Utente umano</text>

  <text x="450" y="256" text-anchor="middle" class="q">Forza / LoA richiesta?</text>
  <line x1="450" y1="230" x2="450" y2="264" stroke="#586673" stroke-width="1.4"/>
  <line x1="450" y1="268" x2="450" y2="292" stroke="#586673" stroke-width="1.4"/>

  <rect x="330" y="294" width="240" height="48" rx="8" fill="#95A2AD"/>
  <text x="450" y="314" text-anchor="middle" class="out">Bassa &#183; dato pubblico</text>
  <text x="450" y="332" text-anchor="middle" class="outs">accesso anonimo / password su TLS</text>

  <rect x="330" y="350" width="240" height="48" rx="8" fill="#2C5C8F"/>
  <text x="450" y="370" text-anchor="middle" class="out">Media&#8211;alta &#183; LoA3</text>
  <text x="450" y="388" text-anchor="middle" class="outs">OAuth 2.0 + OIDC + MFA</text>

  <rect x="330" y="404" width="240" height="62" rx="8" fill="#1C5440"/>
  <text x="450" y="425" text-anchor="middle" class="out">Massima &#183; LoA4</text>
  <text x="450" y="443" text-anchor="middle" class="outs">certificato su HW tamper-resistant</text>
  <text x="450" y="459" text-anchor="middle" class="outs">(TPM / smartcard / CIE)</text>

  <!-- ===== COLUMN C : SERVIZIO ===== -->
  <rect x="620" y="190" width="240" height="40" rx="9" fill="#586673"/>
  <text x="740" y="215" text-anchor="middle" class="out">Servizio / processo</text>

  <line x1="740" y1="230" x2="740" y2="248" stroke="#586673" stroke-width="1.4"/>
  <rect x="620" y="248" width="240" height="50" rx="8" fill="#1C5440"/>
  <text x="740" y="270" text-anchor="middle" class="out">mTLS &#8212; X.509 mutuo</text>
  <text x="740" y="288" text-anchor="middle" class="outs">chiave privata mai trasmessa &#183; +PFS</text>

  <line x1="740" y1="298" x2="740" y2="312" stroke="#586673" stroke-width="1.4"/>
  <rect x="620" y="312" width="240" height="56" rx="8" fill="#2C5C8F"/>
  <text x="740" y="333" text-anchor="middle" class="out">JWT / bearer token</text>
  <text x="740" y="351" text-anchor="middle" class="outs">OAuth2 Client Credentials (L7)</text>
  <text x="740" y="364" text-anchor="middle" class="outs">forte se private_key_jwt / DPoP</text>

  <line x1="740" y1="368" x2="740" y2="382" stroke="#586673" stroke-width="1.4"/>
  <rect x="620" y="382" width="240" height="50" rx="8" fill="#586673"/>
  <text x="740" y="403" text-anchor="middle" class="out">Spesso insieme</text>
  <text x="740" y="421" text-anchor="middle" class="outs">mTLS = chi sei &#183; JWT = cosa puoi fare</text>

  <!-- bottom note -->
  <rect x="32" y="486" width="828" height="150" rx="10" fill="#F1F4F6" stroke="#CCD4DB"/>
  <text x="50" y="512" class="q">Regola pratica per il compito</text>
  <text x="50" y="538" class="sub">1. <tspan font-weight="700">I livelli si sommano</tspan>, non si escludono: ammissione in rete (802.1X, L2) <tspan font-weight="700">+</tspan> sessione cifrata (mTLS, L4/5).</text>
  <text x="50" y="562" class="sub">2. <tspan font-weight="700">Canale insicuro</tspan> (Internet/WAN) &#8594; serve autenticazione <tspan font-weight="700">forte</tspan> (asimmetrica/certificati); password solo dentro un tunnel.</text>
  <text x="50" y="586" class="sub">3. <tspan font-weight="700">Movimenti di denaro / dati sensibili</tspan> &#8594; alza il LoA: aggiungi MFA (utenti) o HW sicuro per le chiavi (LoA4).</text>
  <text x="50" y="610" class="sub">4. <tspan font-weight="700">Certificato &#8800; mTLS</tspan>: lo stesso certificato pu&#242; servire EAP-TLS (L2), TLS lato-server (L4/5) o mTLS (L4/5 mutuo).</text>
</svg>
