<svg xmlns="http://www.w3.org/2000/svg" viewBox="0 0 880 552" font-family="'Segoe UI', system-ui, -apple-system, Roboto, sans-serif">
  <style>
    .ttl  { font-size: 19px; font-weight: 700; fill:#18212B; }
    .sub  { font-size: 13px; fill:#586673; }
    .lane-l{ font-size: 12.5px; font-weight:800; letter-spacing:.04em; }
    .lane-t{ font-size: 14px; font-weight:700; fill:#18212B; }
    .lane-d{ font-size: 12.5px; fill:#586673; }
    .node { font-size: 13.5px; font-weight:700; fill:#18212B; }
    .node-s{ font-size:11px; fill:#586673; }
    .mono { font-size: 12px; font-family:'SFMono-Regular',Consolas,'Liberation Mono',monospace; fill:#B0531F; font-weight:700;}
    .anno { font-size: 11.5px; font-style:italic; fill:#586673; }
    .cap  { font-size: 13px; fill:#18212B; }
    .badge{ font-size:10px; font-weight:800; fill:#fff; }
    .badge-s{ font-size:9px; fill:#fff; }
  </style>
  <rect x="0" y="0" width="880" height="552" fill="#FFFFFF"/>
  <text x="32" y="34" class="ttl">Dove si autentica un collegamento &#8212; i quattro livelli</text>
  <text x="32" y="54" class="sub">Stesso certificato X.509 a L2 e L4/5; a L7 SSH usa una propria chiave. Controlli complementari, su livelli diversi.</text>

  <!-- Endpoints -->
  <rect x="32" y="92" width="120" height="346" rx="12" fill="#18212B"/>
  <text x="92" y="250" text-anchor="middle" class="node" fill="#fff">Dispositivo</text>
  <text x="92" y="270" text-anchor="middle" class="node-s" fill="#B8C2CC">Smart-gate</text>
  <rect x="62" y="288" width="60" height="44" rx="6" fill="#B0531F"/>
  <text x="92" y="308" text-anchor="middle" class="badge">CERT</text>
  <text x="92" y="323" text-anchor="middle" class="badge-s">X.509 + key</text>

  <rect x="728" y="92" width="120" height="346" rx="12" fill="#18212B"/>
  <text x="788" y="240" text-anchor="middle" class="node" fill="#fff">Rete +</text>
  <text x="788" y="260" text-anchor="middle" class="node" fill="#fff">Servizio</text>
  <text x="788" y="286" text-anchor="middle" class="node-s" fill="#B8C2CC">RADIUS</text>
  <text x="788" y="302" text-anchor="middle" class="node-s" fill="#B8C2CC">Broker / Server</text>
  <text x="788" y="318" text-anchor="middle" class="node-s" fill="#B8C2CC">SSH daemon</text>

  <!-- link lines -->
  <line x1="152" y1="265" x2="168" y2="265" stroke="#18212B" stroke-width="2"/>
  <line x1="712" y1="265" x2="728" y2="265" stroke="#18212B" stroke-width="2"/>

  <!-- ===== L7 ===== -->
  <rect x="168" y="92" width="544" height="80" rx="10" fill="#F1F4F6" stroke="#1E6E66" stroke-width="2"/>
  <rect x="168" y="92" width="46" height="80" rx="10" fill="#1E6E66"/>
  <rect x="200" y="92" width="14" height="80" fill="#1E6E66"/>
  <text x="191" y="136" text-anchor="middle" class="lane-l" fill="#fff" transform="rotate(-90 191 132)">L7</text>
  <text x="228" y="118" class="lane-t">SSH &#183; Kerberos &#8212; autenticazione applicativa</text>
  <text x="228" y="138" class="lane-d">Implementano da soli lo schema auth + canale (host key / ticket).</text>
  <text x="228" y="158" class="anno">altri protocolli (HTTPS, FTPS, LDAPS, MQTT-over-TLS&#8230;) si appoggiano a TLS</text>
  <rect x="660" y="106" width="40" height="34" rx="5" fill="#1E6E66"/>
  <text x="680" y="127" text-anchor="middle" class="badge">KEY</text>

  <!-- ===== L4/5 ===== -->
  <rect x="168" y="184" width="544" height="78" rx="10" fill="#F1F4F6" stroke="#2C5C8F" stroke-width="2"/>
  <rect x="168" y="184" width="46" height="78" rx="10" fill="#2C5C8F"/>
  <rect x="200" y="184" width="14" height="78" fill="#2C5C8F"/>
  <text x="191" y="227" text-anchor="middle" class="lane-l" fill="#fff" transform="rotate(-90 191 223)">L4/5</text>
  <text x="228" y="212" class="lane-t">mTLS / TLS &#8212; sessione sul trasporto (sopra TCP)</text>
  <text x="228" y="232" class="lane-d">Presenta il certificato <tspan class="mono">al peer</tspan> per aprire la sessione cifrata end-to-end.</text>
  <rect x="660" y="200" width="40" height="34" rx="5" fill="#B0531F"/>
  <text x="680" y="221" text-anchor="middle" class="badge">CERT</text>

  <!-- ===== L3 ===== -->
  <rect x="168" y="274" width="544" height="66" rx="10" fill="#F1F4F6" stroke="#6A7E92" stroke-width="2"/>
  <rect x="168" y="274" width="46" height="66" rx="10" fill="#6A7E92"/>
  <rect x="200" y="274" width="14" height="66" fill="#6A7E92"/>
  <text x="191" y="311" text-anchor="middle" class="lane-l" fill="#fff" transform="rotate(-90 191 307)">L3</text>
  <text x="228" y="300" class="lane-t">IPsec &#8212; VPN di rete (tunnel)</text>
  <text x="228" y="320" class="lane-d">Cifra il trasporto tra siti; PSK o certificati. Una &#8220;VPN generica&#8221; sta tipicamente qui.</text>

  <!-- ===== L2 ===== -->
  <rect x="168" y="352" width="544" height="86" rx="10" fill="#F1F4F6" stroke="#586673" stroke-width="2"/>
  <rect x="168" y="352" width="46" height="86" rx="10" fill="#586673"/>
  <rect x="200" y="352" width="14" height="86" fill="#586673"/>
  <text x="191" y="400" text-anchor="middle" class="lane-l" fill="#fff" transform="rotate(-90 191 396)">L2</text>
  <text x="228" y="380" class="lane-t">802.1X / EAP-TLS &#8212; ammissione alla porta</text>
  <text x="228" y="400" class="lane-d">Presenta il certificato <tspan class="mono">al RADIUS</tspan> per entrare in rete.</text>
  <text x="228" y="418" class="anno">analogia: il tornello con badge all&#8217;ingresso dell&#8217;edificio</text>
  <rect x="660" y="378" width="40" height="34" rx="5" fill="#B0531F"/>
  <text x="680" y="399" text-anchor="middle" class="badge">CERT</text>

  <!-- dashed link between the two CERT badges (L4/5 and L2) -->
  <path d="M 680 378 L 680 234" fill="none" stroke="#B0531F" stroke-width="1.6" stroke-dasharray="4 4"/>

  <!-- caption -->
  <rect x="32" y="452" width="816" height="86" rx="10" fill="#FBF3EE" stroke="#B0531F" stroke-width="1.4"/>
  <text x="50" y="478" class="cap"><tspan font-weight="800" fill="#B0531F">Punto chiave.</tspan> Lo stesso badge X.509 (CERT) compare a L2 e a L4/5: &#232; lo stesso documento d&#8217;identit&#224;, a due controlli.</text>
  <text x="50" y="498" class="cap">A L7 SSH realizza lo stesso schema concettuale ma con una <tspan font-weight="800">propria chiave</tspan> (KEY), non con il certificato.</text>
  <text x="50" y="518" class="anno">Si combinano per difesa a pi&#249; livelli: 802.1X (L2) blocca i rogue sulla LAN, mTLS/TLS (L4/5) d&#224; identit&#224; e cifratura end-to-end,</text>
  <text x="50" y="532" class="anno">IPsec (L3) protegge il trasporto fra siti, SSH/Kerberos (L7) autenticano a livello applicativo.</text>
</svg>
