<svg xmlns="http://www.w3.org/2000/svg" viewBox="0 0 1040 460" font-family="'Segoe UI', system-ui, -apple-system, Roboto, sans-serif">
  <style>
    .ttl  { font-size: 19px; font-weight: 700; fill:#18212B; }
    .sub  { font-size: 13px; fill:#586673; }
    .colh { font-size: 13.5px; font-weight:800; fill:#18212B; }
    .cols { font-size: 11px; fill:#586673; }
    .rowh { font-size: 14px; font-weight:800; fill:#fff; }
    .chip { font-size: 12.5px; font-weight:700; fill:#fff; }
    .chips{ font-size: 10px; fill:#fff; opacity:.92; }
    .leg  { font-size: 11.5px; fill:#586673; }
  </style>
  <rect x="0" y="0" width="1040" height="460" fill="#FFFFFF"/>
  <text x="32" y="34" class="ttl">Matrice: livello dello stack &#215; forza del metodo</text>
  <text x="32" y="54" class="sub">TLS/mTLS sta a L4/5 (sopra TCP); SSH e i token applicativi stanno a L7. Stesso colore = stessa classe di forza.</text>

  <!-- column headers -->
  <text x="258" y="86" text-anchor="middle" class="colh">L2 &#183; Ammissione rete</text>
  <text x="258" y="102" text-anchor="middle" class="cols">port-based / EAP / RADIUS</text>
  <text x="432" y="86" text-anchor="middle" class="colh">L3 &#183; Canale</text>
  <text x="432" y="102" text-anchor="middle" class="cols">tunnel di rete</text>
  <text x="613" y="86" text-anchor="middle" class="colh">L4/5 &#183; Sessione</text>
  <text x="613" y="102" text-anchor="middle" class="cols">sul trasporto (TLS, sopra TCP)</text>
  <text x="872" y="86" text-anchor="middle" class="colh">L7 &#183; Applicativa</text>
  <text x="872" y="102" text-anchor="middle" class="cols">protocolli e token</text>

  <line x1="156" y1="114" x2="1016" y2="114" stroke="#CCD4DB"/>
  <line x1="358" y1="74" x2="358" y2="406" stroke="#E3E8EC"/>
  <line x1="500" y1="74" x2="500" y2="406" stroke="#E3E8EC"/>
  <line x1="720" y1="74" x2="720" y2="406" stroke="#E3E8EC"/>

  <!-- ROW FORTE -->
  <rect x="32" y="124" width="116" height="92" rx="9" fill="#1C5440"/>
  <text x="90" y="166" text-anchor="middle" class="rowh">FORTE</text>
  <text x="90" y="184" text-anchor="middle" class="chips">LoA 3&#8211;4</text>

  <rect x="160" y="124" width="196" height="92" rx="8" fill="#1C5440"/>
  <text x="258" y="162" text-anchor="middle" class="chip">802.1X &#183; EAP-TLS</text>
  <text x="258" y="182" text-anchor="middle" class="chips">certificato sulla porta</text>

  <rect x="366" y="124" width="128" height="92" rx="8" fill="#1C5440"/>
  <text x="430" y="162" text-anchor="middle" class="chip">IPsec</text>
  <text x="430" y="182" text-anchor="middle" class="chips">(certificati)</text>

  <rect x="508" y="124" width="204" height="92" rx="8" fill="#1C5440"/>
  <text x="610" y="158" text-anchor="middle" class="chip">mTLS</text>
  <text x="610" y="178" text-anchor="middle" class="chip">TLS + DHE/ECDHE</text>
  <text x="610" y="196" text-anchor="middle" class="chips">asimmetrica mutua &#183; PFS</text>

  <rect x="728" y="124" width="288" height="92" rx="8" fill="#1C5440"/>
  <text x="872" y="158" text-anchor="middle" class="chip">SSH</text>
  <text x="872" y="178" text-anchor="middle" class="chip">OAuth2 + OIDC + MFA</text>
  <text x="872" y="196" text-anchor="middle" class="chips">autenticazione applicativa</text>

  <!-- ROW MEDIA -->
  <rect x="32" y="228" width="116" height="92" rx="9" fill="#2C5C8F"/>
  <text x="90" y="270" text-anchor="middle" class="rowh">MEDIA</text>
  <text x="90" y="288" text-anchor="middle" class="chips">LoA 2&#8211;3</text>

  <rect x="160" y="228" width="196" height="92" rx="8" fill="#2C5C8F"/>
  <text x="258" y="266" text-anchor="middle" class="chip">PSK &#183; LoRaWAN OTAA</text>
  <text x="258" y="286" text-anchor="middle" class="chips">AppKey + MIC (AES-CMAC)</text>

  <rect x="366" y="228" width="128" height="92" rx="8" fill="#2C5C8F"/>
  <text x="430" y="266" text-anchor="middle" class="chip">IPsec</text>
  <text x="430" y="286" text-anchor="middle" class="chips">(PSK)</text>

  <rect x="508" y="228" width="204" height="92" rx="8" fill="#2C5C8F"/>
  <text x="610" y="266" text-anchor="middle" class="chip">TLS server-side</text>
  <text x="610" y="286" text-anchor="middle" class="chips">solo il server si autentica</text>

  <rect x="728" y="228" width="288" height="92" rx="8" fill="#2C5C8F"/>
  <text x="872" y="262" text-anchor="middle" class="chip">CHAP &#183; TOTP &#183; JWT bearer</text>
  <text x="872" y="282" text-anchor="middle" class="chips">sfida/risposta, token</text>
  <text x="872" y="300" text-anchor="middle" class="chips">resiste a replay/intercettazione</text>

  <!-- ROW DEBOLE -->
  <rect x="32" y="332" width="116" height="72" rx="9" fill="#95A2AD"/>
  <text x="90" y="372" text-anchor="middle" class="rowh">DEBOLE</text>
  <text x="90" y="390" text-anchor="middle" class="chips">LoA 1</text>

  <rect x="160" y="332" width="196" height="72" rx="8" fill="#95A2AD"/>
  <text x="258" y="364" text-anchor="middle" class="chip">MAB + profiling</text>
  <text x="258" y="384" text-anchor="middle" class="chips">solo MAC (spoofabile)</text>

  <rect x="366" y="332" width="128" height="72" rx="8" fill="#EEF1F3" stroke="#CCD4DB" stroke-dasharray="4 4"/>
  <text x="430" y="372" text-anchor="middle" class="leg">&#8212;</text>

  <rect x="508" y="332" width="204" height="72" rx="8" fill="#EEF1F3" stroke="#CCD4DB" stroke-dasharray="4 4"/>
  <text x="610" y="372" text-anchor="middle" class="leg">&#8212;</text>

  <rect x="728" y="332" width="288" height="72" rx="8" fill="#95A2AD"/>
  <text x="872" y="364" text-anchor="middle" class="chip">PAP (password)</text>
  <text x="872" y="384" text-anchor="middle" class="chips">solo su canale gi&#224; sicuro</text>

  <!-- legend -->
  <circle cx="40" cy="430" r="6" fill="#1C5440"/><text x="52" y="434" class="leg">forte</text>
  <circle cx="116" cy="430" r="6" fill="#2C5C8F"/><text x="128" y="434" class="leg">media</text>
  <circle cx="200" cy="430" r="6" fill="#95A2AD"/><text x="212" y="434" class="leg">debole</text>
  <text x="300" y="434" class="leg">La forza richiesta si stima dal rischio del servizio (eIDAS / LoA). SSH a L7 e mTLS a L4/5 condividono lo stesso schema concettuale.</text>
</svg>
