<svg width="100%" viewBox="0 0 680 420" xmlns="http://www.w3.org/2000/svg">
<style>
  text { font-family: system-ui, -apple-system, sans-serif; }
  .th { font-size: 14px; font-weight: 500; }
  .ts { font-size: 12px; font-weight: 400; }
</style>
<defs><marker id="arrow" viewBox="0 0 10 10" refX="8" refY="5" markerWidth="6" markerHeight="6" orient="auto-start-reverse"><path d="M2 1L8 5L2 9" fill="none" stroke="context-stroke" stroke-width="1.5" stroke-linecap="round" stroke-linejoin="round"/></marker></defs>

<rect x="260" y="20" width="160" height="44" rx="8" fill="#F1EFE8" stroke="#888780" stroke-width="0.5"/>
<text class="th" x="340" y="45" text-anchor="middle" dominant-baseline="central" fill="#2C2C2A">Utenti</text>

<line x1="340" y1="64" x2="340" y2="100" stroke="#888780" stroke-width="1.5" marker-end="url(#arrow)"/>

<rect x="230" y="100" width="220" height="44" rx="8" fill="#EEEDFE" stroke="#534AB7" stroke-width="0.5"/>
<text class="th" x="340" y="125" text-anchor="middle" dominant-baseline="central" fill="#3C3489">Load balancer (HAProxy)</text>

<line x1="240" y1="144" x2="140" y2="190" stroke="#534AB7" stroke-width="1.5" marker-end="url(#arrow)"/>
<line x1="340" y1="144" x2="340" y2="190" stroke="#534AB7" stroke-width="1.5" marker-end="url(#arrow)"/>
<line x1="440" y1="144" x2="540" y2="190" stroke="#534AB7" stroke-width="1.5" marker-end="url(#arrow)"/>

<rect x="60" y="190" width="160" height="56" rx="12" fill="#E1F5EE" stroke="#0F6E56" stroke-width="0.5"/>
<text class="th" x="140" y="210" text-anchor="middle" dominant-baseline="central" fill="#085041">VM App 1</text>
<text class="ts" x="140" y="230" text-anchor="middle" dominant-baseline="central" fill="#0F6E56">Stateless</text>

<rect x="260" y="190" width="160" height="56" rx="12" fill="#E1F5EE" stroke="#0F6E56" stroke-width="0.5"/>
<text class="th" x="340" y="210" text-anchor="middle" dominant-baseline="central" fill="#085041">VM App 2</text>
<text class="ts" x="340" y="230" text-anchor="middle" dominant-baseline="central" fill="#0F6E56">Stateless</text>

<rect x="460" y="190" width="160" height="56" rx="12" fill="#E1F5EE" stroke="#0F6E56" stroke-width="0.5"/>
<text class="th" x="540" y="210" text-anchor="middle" dominant-baseline="central" fill="#085041">VM App 3</text>
<text class="ts" x="540" y="230" text-anchor="middle" dominant-baseline="central" fill="#0F6E56">Stateless</text>

<line x1="140" y1="246" x2="260" y2="310" stroke="#0F6E56" stroke-width="1" marker-end="url(#arrow)"/>
<line x1="340" y1="246" x2="340" y2="310" stroke="#0F6E56" stroke-width="1" marker-end="url(#arrow)"/>
<line x1="540" y1="246" x2="420" y2="310" stroke="#0F6E56" stroke-width="1" marker-end="url(#arrow)"/>

<rect x="200" y="310" width="120" height="44" rx="8" fill="#FAECE7" stroke="#993C1D" stroke-width="0.5"/>
<text class="th" x="260" y="335" text-anchor="middle" dominant-baseline="central" fill="#712B13">Redis</text>

<rect x="360" y="310" width="120" height="44" rx="8" fill="#FAEEDA" stroke="#854F0B" stroke-width="0.5"/>
<text class="th" x="420" y="335" text-anchor="middle" dominant-baseline="central" fill="#633806">MySQL</text>

<text class="ts" x="260" y="385" text-anchor="middle" fill="#993C1D">Sessioni</text>
<text class="ts" x="420" y="385" text-anchor="middle" fill="#854F0B">Dati</text>
<text class="ts" x="340" y="410" text-anchor="middle" fill="#5F5E5A">Stato condiviso, non replicato tra VM</text>
</svg>