<svg width="100%" viewBox="0 0 680 380" xmlns="http://www.w3.org/2000/svg">
<style>
  text { font-family: system-ui, -apple-system, sans-serif; }
  .th { font-size: 14px; font-weight: 500; }
  .ts { font-size: 12px; font-weight: 400; }
</style>
<defs><marker id="arrow" viewBox="0 0 10 10" refX="8" refY="5" markerWidth="6" markerHeight="6" orient="auto-start-reverse"><path d="M2 1L8 5L2 9" fill="none" stroke="context-stroke" stroke-width="1.5" stroke-linecap="round" stroke-linejoin="round"/></marker></defs>

<text class="th" x="340" y="28" text-anchor="middle" fill="#2C2C2A">Applicazioni</text>

<line x1="170" y1="38" x2="170" y2="70" stroke="#534AB7" stroke-width="1" marker-end="url(#arrow)"/>
<line x1="340" y1="38" x2="340" y2="70" stroke="#0F6E56" stroke-width="1" marker-end="url(#arrow)"/>
<line x1="510" y1="38" x2="510" y2="70" stroke="#993C1D" stroke-width="1" marker-end="url(#arrow)"/>

<rect x="90" y="70" width="160" height="56" rx="10" fill="#EEEDFE" stroke="#534AB7" stroke-width="0.5"/>
<text class="th" x="170" y="90" text-anchor="middle" dominant-baseline="central" fill="#3C3489">Ceph RBD</text>
<text class="ts" x="170" y="110" text-anchor="middle" dominant-baseline="central" fill="#534AB7">Blocchi (disco VM)</text>

<rect x="260" y="70" width="160" height="56" rx="10" fill="#E1F5EE" stroke="#0F6E56" stroke-width="0.5"/>
<text class="th" x="340" y="90" text-anchor="middle" dominant-baseline="central" fill="#085041">CephFS</text>
<text class="ts" x="340" y="110" text-anchor="middle" dominant-baseline="central" fill="#0F6E56">Filesystem condiviso</text>

<rect x="430" y="70" width="160" height="56" rx="10" fill="#FAECE7" stroke="#993C1D" stroke-width="0.5"/>
<text class="th" x="510" y="90" text-anchor="middle" dominant-baseline="central" fill="#712B13">Ceph RGW</text>
<text class="ts" x="510" y="110" text-anchor="middle" dominant-baseline="central" fill="#993C1D">Oggetti (S3)</text>

<line x1="170" y1="126" x2="170" y2="160" stroke="#534AB7" stroke-width="1" marker-end="url(#arrow)"/>
<line x1="340" y1="126" x2="340" y2="160" stroke="#0F6E56" stroke-width="1" marker-end="url(#arrow)"/>
<line x1="510" y1="126" x2="510" y2="160" stroke="#993C1D" stroke-width="1" marker-end="url(#arrow)"/>

<rect x="90" y="160" width="500" height="56" rx="12" fill="#E6F1FB" stroke="#185FA5" stroke-width="0.5"/>
<text class="th" x="340" y="182" text-anchor="middle" dominant-baseline="central" fill="#0C447C">RADOS (Object Store distribuito)</text>
<text class="ts" x="340" y="202" text-anchor="middle" dominant-baseline="central" fill="#185FA5">Layer comune a tutte le interfacce</text>

<line x1="200" y1="216" x2="200" y2="260" stroke="#185FA5" stroke-width="1" marker-end="url(#arrow)"/>
<line x1="340" y1="216" x2="340" y2="260" stroke="#185FA5" stroke-width="1" marker-end="url(#arrow)"/>
<line x1="480" y1="216" x2="480" y2="260" stroke="#185FA5" stroke-width="1" marker-end="url(#arrow)"/>

<rect x="120" y="260" width="120" height="56" rx="10" fill="#F1EFE8" stroke="#888780" stroke-width="0.5"/>
<text class="th" x="180" y="280" text-anchor="middle" dominant-baseline="central" fill="#2C2C2A">OSD</text>
<text class="ts" x="180" y="300" text-anchor="middle" dominant-baseline="central" fill="#5F5E5A">Nodo 1</text>

<rect x="280" y="260" width="120" height="56" rx="10" fill="#F1EFE8" stroke="#888780" stroke-width="0.5"/>
<text class="th" x="340" y="280" text-anchor="middle" dominant-baseline="central" fill="#2C2C2A">OSD</text>
<text class="ts" x="340" y="300" text-anchor="middle" dominant-baseline="central" fill="#5F5E5A">Nodo 2</text>

<rect x="440" y="260" width="120" height="56" rx="10" fill="#F1EFE8" stroke="#888780" stroke-width="0.5"/>
<text class="th" x="500" y="280" text-anchor="middle" dominant-baseline="central" fill="#2C2C2A">OSD</text>
<text class="ts" x="500" y="300" text-anchor="middle" dominant-baseline="central" fill="#5F5E5A">Nodo 3</text>

<text class="ts" x="340" y="350" text-anchor="middle" fill="#5F5E5A">Stesso hardware, stesso cluster, tre modi diversi di usarlo</text>
</svg>