<svg xmlns="http://www.w3.org/2000/svg" viewBox="0 0 880 300" font-family="-apple-system, system-ui, sans-serif">
  <defs>
    <linearGradient id="cust" x1="0" y1="0" x2="0" y2="1">
      <stop offset="0" stop-color="#fef3c7"/>
      <stop offset="1" stop-color="#fde68a"/>
    </linearGradient>
    <linearGradient id="isp" x1="0" y1="0" x2="0" y2="1">
      <stop offset="0" stop-color="#dbeafe"/>
      <stop offset="1" stop-color="#bfdbfe"/>
    </linearGradient>
  </defs>

  <rect x="20" y="50" width="200" height="200" rx="14" fill="url(#cust)" stroke="#d97706" stroke-width="2"/>
  <text x="120" y="76" text-anchor="middle" font-size="13" font-weight="700" fill="#92400e">Sede A — AziendaX</text>
  <text x="120" y="94" text-anchor="middle" font-size="11" fill="#92400e">rete cliente</text>

  <rect x="240" y="50" width="400" height="200" rx="14" fill="url(#isp)" stroke="#1d4ed8" stroke-width="2"/>
  <text x="440" y="76" text-anchor="middle" font-size="13" font-weight="700" fill="#1e3a8a">Backbone ISP — dominio MPLS</text>

  <rect x="660" y="50" width="200" height="200" rx="14" fill="url(#cust)" stroke="#d97706" stroke-width="2"/>
  <text x="760" y="76" text-anchor="middle" font-size="13" font-weight="700" fill="#92400e">Sede B — AziendaX</text>
  <text x="760" y="94" text-anchor="middle" font-size="11" fill="#92400e">rete cliente</text>

  <g>
    <circle cx="160" cy="170" r="32" fill="#fff" stroke="#d97706" stroke-width="2.5"/>
    <text x="160" y="168" text-anchor="middle" font-size="14" font-weight="700" fill="#92400e">CE-A</text>
    <text x="160" y="184" text-anchor="middle" font-size="9" fill="#78350f">customer edge</text>
  </g>
  <g>
    <circle cx="720" cy="170" r="32" fill="#fff" stroke="#d97706" stroke-width="2.5"/>
    <text x="720" y="168" text-anchor="middle" font-size="14" font-weight="700" fill="#92400e">CE-B</text>
    <text x="720" y="184" text-anchor="middle" font-size="9" fill="#78350f">customer edge</text>
  </g>

  <g>
    <circle cx="290" cy="170" r="32" fill="#fff" stroke="#1d4ed8" stroke-width="2.5"/>
    <text x="290" y="168" text-anchor="middle" font-size="14" font-weight="700" fill="#1e3a8a">PE1</text>
    <text x="290" y="184" text-anchor="middle" font-size="9" fill="#1e40af">provider edge</text>
  </g>

  <g>
    <circle cx="400" cy="170" r="28" fill="#fff" stroke="#475569" stroke-width="2"/>
    <text x="400" y="168" text-anchor="middle" font-size="14" font-weight="700" fill="#334155">P1</text>
    <text x="400" y="184" text-anchor="middle" font-size="9" fill="#475569">core</text>
  </g>

  <g>
    <circle cx="490" cy="170" r="28" fill="#fff" stroke="#475569" stroke-width="2"/>
    <text x="490" y="168" text-anchor="middle" font-size="14" font-weight="700" fill="#334155">P2</text>
    <text x="490" y="184" text-anchor="middle" font-size="9" fill="#475569">core</text>
  </g>

  <g>
    <circle cx="590" cy="170" r="32" fill="#fff" stroke="#1d4ed8" stroke-width="2.5"/>
    <text x="590" y="168" text-anchor="middle" font-size="14" font-weight="700" fill="#1e3a8a">PE2</text>
    <text x="590" y="184" text-anchor="middle" font-size="9" fill="#1e40af">provider edge</text>
  </g>

  <line x1="192" y1="170" x2="258" y2="170" stroke="#334155" stroke-width="2"/>
  <line x1="322" y1="170" x2="372" y2="170" stroke="#334155" stroke-width="2"/>
  <line x1="428" y1="170" x2="462" y2="170" stroke="#334155" stroke-width="2"/>
  <line x1="518" y1="170" x2="558" y2="170" stroke="#334155" stroke-width="2"/>
  <line x1="622" y1="170" x2="688" y2="170" stroke="#334155" stroke-width="2"/>

  <text x="440" y="232" text-anchor="middle" font-size="11" fill="#1e3a8a" font-style="italic">i P fanno solo label switching • i PE conoscono i clienti • i CE non sanno nulla di MPLS</text>
</svg>
