<svg width="100%" viewBox="0 0 680 520" xmlns="http://www.w3.org/2000/svg">
<style>
  text { font-family: system-ui, -apple-system, sans-serif; }
  .th { font-size: 14px; font-weight: 500; }
  .ts { font-size: 12px; font-weight: 400; }
</style>
<defs><marker id="arrow" viewBox="0 0 10 10" refX="8" refY="5" markerWidth="6" markerHeight="6" orient="auto-start-reverse"><path d="M2 1L8 5L2 9" fill="none" stroke="context-stroke" stroke-width="1.5" stroke-linecap="round" stroke-linejoin="round"/></marker></defs>

<rect x="40" y="24" width="130" height="30" rx="6" fill="#F1EFE8" stroke="#888780" stroke-width="0.5"/>
<text class="th" x="105" y="42" text-anchor="middle" dominant-baseline="central" fill="#2C2C2A">Fase 1: normale</text>

<rect x="60" y="70" width="160" height="80" rx="10" fill="#E1F5EE" stroke="#0F6E56" stroke-width="0.5"/>
<text class="th" x="140" y="92" text-anchor="middle" dominant-baseline="central" fill="#085041">Nodo 1</text>
<text class="ts" x="140" y="112" text-anchor="middle" dominant-baseline="central" fill="#0F6E56">VM-A, VM-D</text>

<rect x="260" y="70" width="160" height="80" rx="10" fill="#E1F5EE" stroke="#0F6E56" stroke-width="0.5"/>
<text class="th" x="340" y="92" text-anchor="middle" dominant-baseline="central" fill="#085041">Nodo 2</text>
<text class="ts" x="340" y="112" text-anchor="middle" dominant-baseline="central" fill="#0F6E56">VM-B</text>

<rect x="460" y="70" width="160" height="80" rx="10" fill="#E1F5EE" stroke="#0F6E56" stroke-width="0.5"/>
<text class="th" x="540" y="92" text-anchor="middle" dominant-baseline="central" fill="#085041">Nodo 3</text>
<text class="ts" x="540" y="112" text-anchor="middle" dominant-baseline="central" fill="#0F6E56">VM-C</text>

<rect x="120" y="155" width="440" height="26" rx="6" fill="#E6F1FB" stroke="#185FA5" stroke-width="0.5"/>
<text class="ts" x="340" y="171" text-anchor="middle" dominant-baseline="central" fill="#0C447C">Ceph RBD cluster (dischi replicati su tutti i nodi)</text>

<rect x="40" y="206" width="165" height="30" rx="6" fill="#FAEEDA" stroke="#854F0B" stroke-width="0.5"/>
<text class="th" x="122" y="224" text-anchor="middle" dominant-baseline="central" fill="#633806">Fase 2: nodo 1 cade</text>

<rect x="60" y="250" width="160" height="80" rx="10" fill="#FCEBEB" stroke="#A32D2D" stroke-width="0.5"/>
<text class="th" x="140" y="272" text-anchor="middle" dominant-baseline="central" fill="#791F1F">Nodo 1</text>
<text class="ts" x="140" y="292" text-anchor="middle" dominant-baseline="central" fill="#A32D2D">GUASTO</text>

<rect x="260" y="250" width="160" height="80" rx="10" fill="#E1F5EE" stroke="#0F6E56" stroke-width="0.5"/>
<text class="th" x="340" y="272" text-anchor="middle" dominant-baseline="central" fill="#085041">Nodo 2</text>
<text class="ts" x="340" y="292" text-anchor="middle" dominant-baseline="central" fill="#0F6E56">VM-B</text>

<rect x="460" y="250" width="160" height="80" rx="10" fill="#E1F5EE" stroke="#0F6E56" stroke-width="0.5"/>
<text class="th" x="540" y="272" text-anchor="middle" dominant-baseline="central" fill="#085041">Nodo 3</text>
<text class="ts" x="540" y="292" text-anchor="middle" dominant-baseline="central" fill="#0F6E56">VM-C</text>

<text class="ts" x="340" y="360" text-anchor="middle" fill="#5F5E5A">Corosync rileva nodo 1 fuori dal quorum (~30s)</text>

<rect x="40" y="386" width="210" height="30" rx="6" fill="#EAF3DE" stroke="#3B6D11" stroke-width="0.5"/>
<text class="th" x="145" y="404" text-anchor="middle" dominant-baseline="central" fill="#27500A">Fase 3: HA interviene (~2 min)</text>

<rect x="60" y="430" width="160" height="70" rx="10" fill="#FCEBEB" stroke="#A32D2D" stroke-width="0.5"/>
<text class="th" x="140" y="455" text-anchor="middle" dominant-baseline="central" fill="#791F1F">Nodo 1</text>
<text class="ts" x="140" y="475" text-anchor="middle" dominant-baseline="central" fill="#A32D2D">GUASTO</text>

<rect x="260" y="430" width="160" height="70" rx="10" fill="#E1F5EE" stroke="#0F6E56" stroke-width="0.5"/>
<text class="th" x="340" y="450" text-anchor="middle" dominant-baseline="central" fill="#085041">Nodo 2</text>
<text class="ts" x="340" y="470" text-anchor="middle" dominant-baseline="central" fill="#0F6E56">VM-B, VM-A</text>

<rect x="460" y="430" width="160" height="70" rx="10" fill="#E1F5EE" stroke="#0F6E56" stroke-width="0.5"/>
<text class="th" x="540" y="450" text-anchor="middle" dominant-baseline="central" fill="#085041">Nodo 3</text>
<text class="ts" x="540" y="470" text-anchor="middle" dominant-baseline="central" fill="#0F6E56">VM-C, VM-D</text>

<path d="M220 455 L258 455" stroke="#0F6E56" stroke-width="1.5" stroke-dasharray="4 3" marker-end="url(#arrow)"/>
<path d="M220 470 L458 470" stroke="#0F6E56" stroke-width="1.5" stroke-dasharray="4 3" marker-end="url(#arrow)"/>
</svg>