<svg width="100%" viewBox="0 0 680 340" xmlns="http://www.w3.org/2000/svg">
<style>
  text { font-family: system-ui, -apple-system, sans-serif; }
  .th { font-size: 14px; font-weight: 500; }
  .ts { font-size: 12px; font-weight: 400; }
</style>
<defs><marker id="arrow" viewBox="0 0 10 10" refX="8" refY="5" markerWidth="6" markerHeight="6" orient="auto-start-reverse"><path d="M2 1L8 5L2 9" fill="none" stroke="context-stroke" stroke-width="1.5" stroke-linecap="round" stroke-linejoin="round"/></marker></defs>

<text class="th" x="170" y="24" text-anchor="middle" fill="#085041">Con Ceph RBD (funziona)</text>

<rect x="50" y="40" width="120" height="56" rx="10" fill="#E1F5EE" stroke="#0F6E56" stroke-width="0.5"/>
<text class="th" x="110" y="60" text-anchor="middle" dominant-baseline="central" fill="#085041">Nodo A</text>
<text class="ts" x="110" y="80" text-anchor="middle" dominant-baseline="central" fill="#0F6E56">VM attiva</text>

<rect x="220" y="40" width="120" height="56" rx="10" fill="#E1F5EE" stroke="#0F6E56" stroke-width="0.5"/>
<text class="th" x="280" y="60" text-anchor="middle" dominant-baseline="central" fill="#085041">Nodo B</text>
<text class="ts" x="280" y="80" text-anchor="middle" dominant-baseline="central" fill="#0F6E56">VM riprende</text>

<text class="ts" x="195" y="58" text-anchor="middle" fill="#0F6E56">RAM</text>
<line x1="170" y1="65" x2="220" y2="65" stroke="#0F6E56" stroke-width="1.5" marker-end="url(#arrow)"/>

<line x1="110" y1="96" x2="195" y2="140" stroke="#185FA5" stroke-width="1" marker-end="url(#arrow)"/>
<line x1="280" y1="96" x2="195" y2="140" stroke="#185FA5" stroke-width="1" marker-end="url(#arrow)"/>

<rect x="115" y="140" width="160" height="44" rx="8" fill="#E6F1FB" stroke="#185FA5" stroke-width="0.5"/>
<text class="th" x="195" y="165" text-anchor="middle" dominant-baseline="central" fill="#0C447C">Ceph RBD (condiviso)</text>

<rect x="105" y="200" width="180" height="30" rx="6" fill="#EAF3DE" stroke="#3B6D11" stroke-width="0.5"/>
<text class="th" x="195" y="218" text-anchor="middle" dominant-baseline="central" fill="#27500A">Il disco non si sposta</text>

<rect x="348" y="20" width="1" height="300" fill="#D3D1C7" opacity="0.5"/>

<text class="th" x="510" y="24" text-anchor="middle" fill="#791F1F">Con ZFS locale (non funziona)</text>

<rect x="400" y="40" width="120" height="56" rx="10" fill="#E1F5EE" stroke="#0F6E56" stroke-width="0.5"/>
<text class="th" x="460" y="60" text-anchor="middle" dominant-baseline="central" fill="#085041">Nodo A</text>
<text class="ts" x="460" y="80" text-anchor="middle" dominant-baseline="central" fill="#0F6E56">VM attiva</text>

<rect x="560" y="40" width="100" height="56" rx="10" fill="#F1EFE8" stroke="#888780" stroke-width="0.5"/>
<text class="th" x="610" y="60" text-anchor="middle" dominant-baseline="central" fill="#2C2C2A">Nodo B</text>
<text class="ts" x="610" y="80" text-anchor="middle" dominant-baseline="central" fill="#5F5E5A">???</text>

<rect x="400" y="140" width="120" height="44" rx="8" fill="#FAEEDA" stroke="#854F0B" stroke-width="0.5"/>
<text class="th" x="460" y="158" text-anchor="middle" dominant-baseline="central" fill="#633806">ZFS locale</text>
<text class="ts" x="460" y="174" text-anchor="middle" dominant-baseline="central" fill="#854F0B">Disco qui</text>

<line x1="460" y1="96" x2="460" y2="140" stroke="#854F0B" stroke-width="1" marker-end="url(#arrow)"/>

<rect x="560" y="140" width="100" height="44" rx="8" fill="#F1EFE8" stroke="#888780" stroke-width="0.5"/>
<text class="th" x="610" y="158" text-anchor="middle" dominant-baseline="central" fill="#2C2C2A">ZFS locale</text>
<text class="ts" x="610" y="174" text-anchor="middle" dominant-baseline="central" fill="#5F5E5A">Vuoto</text>

<rect x="420" y="200" width="220" height="30" rx="6" fill="#FCEBEB" stroke="#A32D2D" stroke-width="0.5"/>
<text class="th" x="530" y="218" text-anchor="middle" dominant-baseline="central" fill="#791F1F">Disco intrappolato su nodo A</text>

<text class="ts" x="340" y="280" text-anchor="middle" fill="#5F5E5A">La live migration richiede che il disco sia accessibile</text>
<text class="ts" x="340" y="300" text-anchor="middle" fill="#5F5E5A">da entrambi i nodi PRIMA dello spostamento</text>
</svg>