<svg width="100%" viewBox="0 0 680 340" xmlns="http://www.w3.org/2000/svg">
<style>
  text { font-family: system-ui, -apple-system, sans-serif; }
  .th { font-size: 14px; font-weight: 500; }
  .ts { font-size: 12px; font-weight: 400; }
</style>
<defs><marker id="arrow" viewBox="0 0 10 10" refX="8" refY="5" markerWidth="6" markerHeight="6" orient="auto-start-reverse"><path d="M2 1L8 5L2 9" fill="none" stroke="context-stroke" stroke-width="1.5" stroke-linecap="round" stroke-linejoin="round"/></marker></defs>

<rect x="230" y="20" width="220" height="44" rx="8" fill="#EEEDFE" stroke="#534AB7" stroke-width="0.5"/>
<text class="th" x="340" y="45" text-anchor="middle" dominant-baseline="central" fill="#3C3489">ProxySQL / MaxScale</text>

<line x1="240" y1="64" x2="140" y2="120" stroke="#534AB7" stroke-width="1.5" marker-end="url(#arrow)"/>
<line x1="340" y1="64" x2="340" y2="120" stroke="#534AB7" stroke-width="1.5" marker-end="url(#arrow)"/>
<line x1="440" y1="64" x2="540" y2="120" stroke="#534AB7" stroke-width="1.5" marker-end="url(#arrow)"/>

<rect x="60" y="120" width="160" height="56" rx="12" fill="#FAEEDA" stroke="#854F0B" stroke-width="0.5"/>
<text class="th" x="140" y="140" text-anchor="middle" dominant-baseline="central" fill="#633806">MySQL 1</text>
<text class="ts" x="140" y="160" text-anchor="middle" dominant-baseline="central" fill="#854F0B">R/W</text>

<rect x="260" y="120" width="160" height="56" rx="12" fill="#FAEEDA" stroke="#854F0B" stroke-width="0.5"/>
<text class="th" x="340" y="140" text-anchor="middle" dominant-baseline="central" fill="#633806">MySQL 2</text>
<text class="ts" x="340" y="160" text-anchor="middle" dominant-baseline="central" fill="#854F0B">R/W</text>

<rect x="460" y="120" width="160" height="56" rx="12" fill="#FAEEDA" stroke="#854F0B" stroke-width="0.5"/>
<text class="th" x="540" y="140" text-anchor="middle" dominant-baseline="central" fill="#633806">MySQL 3</text>
<text class="ts" x="540" y="160" text-anchor="middle" dominant-baseline="central" fill="#854F0B">R/W</text>

<line x1="220" y1="148" x2="260" y2="148" stroke="#854F0B" stroke-width="1.5" marker-end="url(#arrow)"/>
<line x1="260" y1="158" x2="220" y2="158" stroke="#854F0B" stroke-width="1.5" marker-end="url(#arrow)"/>
<line x1="420" y1="148" x2="460" y2="148" stroke="#854F0B" stroke-width="1.5" marker-end="url(#arrow)"/>
<line x1="460" y1="158" x2="420" y2="158" stroke="#854F0B" stroke-width="1.5" marker-end="url(#arrow)"/>

<rect x="190" y="220" width="300" height="44" rx="8" fill="#FAECE7" stroke="#993C1D" stroke-width="0.5"/>
<text class="th" x="340" y="245" text-anchor="middle" dominant-baseline="central" fill="#712B13">Galera Cluster (wsrep)</text>

<text class="ts" x="340" y="300" text-anchor="middle" fill="#5F5E5A">Replica sincrona transazionale interna</text>
<text class="ts" x="340" y="320" text-anchor="middle" fill="#5F5E5A">Non richiede replica disco: ogni nodo ha il suo storage</text>
</svg>