<svg xmlns="http://www.w3.org/2000/svg" width="680" height="205" viewBox="0 0 680 205" role="img">
<title>Topologia piatta: router Cisco centrale, tunnel in alto vicino alla WAN, subnet in fila</title>
<desc>Un solo router (simbolo Cisco a cerchio con X) su un bus orizzontale. In alto le frontiere default-deny: Internet/WAN (Gi0/4, ACL-WAN) e tun0 (ACL-TUNNEL-DD). In basso le zone interne: Subnet A, C, D, DMZ (default-allow) e Server Farm (default-deny).</desc>
<style>
  text{font-family:"Anthropic Sans",system-ui,Segoe UI,Roboto,sans-serif}
  .th{font-size:14px;font-weight:500}
  .ts{font-size:12px;font-weight:400}
  .ln{stroke:#888780;stroke-width:.8;fill:none}
  .gl{stroke:#5F5E5A;stroke-width:1.2;fill:none}
  .teal-f{fill:#E1F5EE;stroke:#0F6E56;stroke-width:.5}
  .teal-t{fill:#085041}
  .coral-f{fill:#FAECE7;stroke:#993C1D;stroke-width:.5}
  .coral-t{fill:#712B13}
  .gray-f{fill:#F1EFE8;stroke:#5F5E5A;stroke-width:.5}
  .gray-t{fill:#2C2C2A}
  @media (prefers-color-scheme: dark){
    .teal-f{fill:#085041;stroke:#5DCAA5}.teal-t{fill:#9FE1CB}
    .coral-f{fill:#712B13;stroke:#F0997B}.coral-t{fill:#F5C4B3}
    .gray-f{fill:#2C2C2A;stroke:#B4B2A9}.gray-t{fill:#D3D1C7}
    .ln{stroke:#9c9a92}.gl{stroke:#B4B2A9}
  }
</style>
<defs>
<marker id="arrow" viewBox="0 0 10 10" refX="8" refY="5" markerWidth="6" markerHeight="6" orient="auto-start-reverse"><path d="M2 1L8 5L2 9" fill="none" stroke="context-stroke" stroke-width="1.5" stroke-linecap="round" stroke-linejoin="round"/></marker>
</defs>

<rect class="coral-f" x="200" y="6" width="116" height="36" rx="8"/>
<text class="th coral-t" x="258" y="23" text-anchor="middle" dominant-baseline="central">Internet/WAN</text>
<text class="ts coral-t" x="258" y="36" text-anchor="middle" dominant-baseline="central">Gi0/4 · ACL-WAN</text>

<rect class="coral-f" x="364" y="6" width="116" height="36" rx="8"/>
<text class="th coral-t" x="422" y="23" text-anchor="middle" dominant-baseline="central">tun0</text>
<text class="ts coral-t" x="422" y="36" text-anchor="middle" dominant-baseline="central">ACL-TUNNEL-DD</text>

<line class="ln" x1="258" y1="42" x2="340" y2="50"/>
<line class="ln" x1="422" y1="42" x2="340" y2="50"/>

<line class="ln" x1="40" y1="70" x2="320" y2="70"/>
<line class="ln" x1="360" y1="70" x2="640" y2="70"/>

<circle class="gray-f" cx="340" cy="70" r="20"/>
<line class="gl" x1="340" y1="70" x2="353" y2="57" marker-end="url(#arrow)"/>
<line class="gl" x1="340" y1="70" x2="327" y2="57" marker-end="url(#arrow)"/>
<line class="gl" x1="340" y1="70" x2="353" y2="83" marker-end="url(#arrow)"/>
<line class="gl" x1="340" y1="70" x2="327" y2="83" marker-end="url(#arrow)"/>
<text class="ts gray-t" x="340" y="103" text-anchor="middle">Router · Gi0/0–0/6</text>

<line class="ln" x1="124" y1="70" x2="124" y2="108"/>
<line class="ln" x1="244" y1="70" x2="244" y2="108"/>
<line class="ln" x1="404" y1="70" x2="404" y2="108"/>
<line class="ln" x1="500" y1="70" x2="500" y2="108"/>
<line class="ln" x1="596" y1="70" x2="596" y2="108"/>

<rect class="teal-f" x="80" y="110" width="88" height="56" rx="8"/>
<text class="th teal-t" x="124" y="128" text-anchor="middle" dominant-baseline="central">Subnet A</text>
<text class="ts teal-t" x="124" y="144" text-anchor="middle" dominant-baseline="central">10.0.1.0/24</text>
<text class="ts teal-t" x="124" y="159" text-anchor="middle" dominant-baseline="central">Gi0/0</text>

<rect class="teal-f" x="200" y="110" width="88" height="56" rx="8"/>
<text class="th teal-t" x="244" y="128" text-anchor="middle" dominant-baseline="central">Subnet C</text>
<text class="ts teal-t" x="244" y="144" text-anchor="middle" dominant-baseline="central">10.0.3.0/24</text>
<text class="ts teal-t" x="244" y="159" text-anchor="middle" dominant-baseline="central">Gi0/2</text>

<rect class="teal-f" x="360" y="110" width="88" height="56" rx="8"/>
<text class="th teal-t" x="404" y="128" text-anchor="middle" dominant-baseline="central">Subnet D</text>
<text class="ts teal-t" x="404" y="144" text-anchor="middle" dominant-baseline="central">10.0.4.0/24</text>
<text class="ts teal-t" x="404" y="159" text-anchor="middle" dominant-baseline="central">Gi0/3</text>

<rect class="teal-f" x="456" y="110" width="88" height="56" rx="8"/>
<text class="th teal-t" x="500" y="128" text-anchor="middle" dominant-baseline="central">DMZ</text>
<text class="ts teal-t" x="500" y="144" text-anchor="middle" dominant-baseline="central">10.0.5.0/24</text>
<text class="ts teal-t" x="500" y="159" text-anchor="middle" dominant-baseline="central">Gi0/5</text>

<rect class="coral-f" x="552" y="110" width="88" height="56" rx="8"/>
<text class="th coral-t" x="596" y="128" text-anchor="middle" dominant-baseline="central">Farm</text>
<text class="ts coral-t" x="596" y="144" text-anchor="middle" dominant-baseline="central">10.0.6.0/24</text>
<text class="ts coral-t" x="596" y="159" text-anchor="middle" dominant-baseline="central">Gi0/6</text>

<rect class="teal-f" x="150" y="180" width="12" height="12" rx="3"/>
<text class="ts gray-t" x="168" y="190">default-allow (permit ip any any)</text>
<rect class="coral-f" x="400" y="180" width="12" height="12" rx="3"/>
<text class="ts gray-t" x="418" y="190">default-deny (deny ip any any)</text>
</svg>
