<svg xmlns="http://www.w3.org/2000/svg" width="720" height="205" viewBox="0 0 720 205" role="img">
<title>Confronto tunnel: L3-su-L3 (GRE) e L2-su-L3 (L2TPv3/GRETAP)</title>
<desc>A sinistra GRE trasporta pacchetti IP fra sedi con subnet diverse (OSPF instrada). A destra L2TPv3/GRETAP trasporta frame Ethernet estendendo la stessa subnet/VLAN fra le due sedi tramite bridge.</desc>
<style>
  text{font-family:"Anthropic Sans",system-ui,Segoe UI,Roboto,sans-serif}
  .th{font-size:13px;font-weight:600}
  .tm{font-size:12px;font-weight:500}
  .ts{font-size:11px;font-weight:400}
  .gl{stroke:#5F5E5A;stroke-width:1.1;fill:none}
  .tun{stroke:#993C1D;stroke-width:1.4;stroke-dasharray:5 4;fill:none}
  .pub{fill:#F1EFE8;fill-opacity:.6;stroke:#888780;stroke-width:.8;stroke-dasharray:3 3}
  .div{stroke:#888780;stroke-width:.8;stroke-dasharray:2 3}
  .ln{stroke:#888780;stroke-width:.8;fill:none}
  .teal-f{fill:#E1F5EE;stroke:#0F6E56;stroke-width:.5}
  .teal-t{fill:#085041}
  .gray-t{fill:#2C2C2A}
  .coral-t{fill:#712B13}
  .gray-f{fill:#F1EFE8;stroke:#5F5E5A;stroke-width:.5}
  @media (prefers-color-scheme: dark){
    .teal-f{fill:#085041;stroke:#5DCAA5}.teal-t{fill:#9FE1CB}
    .gray-f{fill:#2C2C2A;stroke:#B4B2A9}.gray-t{fill:#D3D1C7}.coral-t{fill:#F5C4B3}
    .gl{stroke:#B4B2A9}.tun{stroke:#F0997B}.pub{fill:#2C2C2A;stroke:#9c9a92}.div{stroke:#9c9a92}.ln{stroke:#9c9a92}
  }
</style>
<defs>
<marker id="arrow" viewBox="0 0 10 10" refX="8" refY="5" markerWidth="6" markerHeight="6" orient="auto-start-reverse"><path d="M2 1L8 5L2 9" fill="none" stroke="context-stroke" stroke-width="1.5" stroke-linecap="round" stroke-linejoin="round"/></marker>
</defs>

<line class="div" x1="360" y1="8" x2="360" y2="198"/>

<!-- PANNELLO A: L3 su L3 (GRE) -->
<text class="th gray-t" x="180" y="20" text-anchor="middle">L3 su L3 — GRE</text>
<text class="ts gray-t" x="180" y="36" text-anchor="middle">trasporta pacchetti IP · subnet diverse</text>
<text class="ts coral-t" x="180" y="72" text-anchor="middle">tun0 · 10.0.11.0/24</text>

<ellipse class="pub" cx="180" cy="110" rx="46" ry="26"/>
<text class="ts gray-t" x="180" y="100" text-anchor="middle" dominant-baseline="central">rete pubblica</text>
<line class="tun" x1="88" y1="110" x2="272" y2="110"/>

<circle class="gray-f" cx="70" cy="110" r="18"/>
<line class="gl" x1="70" y1="110" x2="81" y2="99" marker-end="url(#arrow)"/>
<line class="gl" x1="70" y1="110" x2="59" y2="99" marker-end="url(#arrow)"/>
<line class="gl" x1="70" y1="110" x2="81" y2="121" marker-end="url(#arrow)"/>
<line class="gl" x1="70" y1="110" x2="59" y2="121" marker-end="url(#arrow)"/>
<text class="tm gray-t" x="70" y="84" text-anchor="middle">R-A</text>
<circle class="gray-f" cx="290" cy="110" r="18"/>
<line class="gl" x1="290" y1="110" x2="301" y2="99" marker-end="url(#arrow)"/>
<line class="gl" x1="290" y1="110" x2="279" y2="99" marker-end="url(#arrow)"/>
<line class="gl" x1="290" y1="110" x2="301" y2="121" marker-end="url(#arrow)"/>
<line class="gl" x1="290" y1="110" x2="279" y2="121" marker-end="url(#arrow)"/>
<text class="tm gray-t" x="290" y="84" text-anchor="middle">R-B</text>

<line class="ln" x1="70" y1="128" x2="70" y2="152"/>
<line class="ln" x1="290" y1="128" x2="290" y2="152"/>
<rect class="teal-f" x="15" y="152" width="110" height="26" rx="6"/>
<text class="ts teal-t" x="70" y="165" text-anchor="middle" dominant-baseline="central">LAN 10.1.0.0/24</text>
<rect class="teal-f" x="235" y="152" width="110" height="26" rx="6"/>
<text class="ts teal-t" x="290" y="165" text-anchor="middle" dominant-baseline="central">LAN 10.2.0.0/24</text>
<text class="ts gray-t" x="180" y="194" text-anchor="middle">OSPF instrada tra subnet diverse</text>

<!-- PANNELLO B: L2 su L3 (L2TPv3 / GRETAP) -->
<text class="th gray-t" x="540" y="20" text-anchor="middle">L2 su L3 — L2TPv3 / GRETAP</text>
<text class="ts gray-t" x="540" y="36" text-anchor="middle">trasporta frame Ethernet · stessa subnet</text>
<text class="ts coral-t" x="540" y="72" text-anchor="middle">tap0 → br0 (dominio L2)</text>

<ellipse class="pub" cx="540" cy="110" rx="46" ry="26"/>
<text class="ts gray-t" x="540" y="100" text-anchor="middle" dominant-baseline="central">rete pubblica</text>
<line class="tun" x1="448" y1="110" x2="632" y2="110"/>

<circle class="gray-f" cx="430" cy="110" r="18"/>
<line class="gl" x1="430" y1="110" x2="441" y2="99" marker-end="url(#arrow)"/>
<line class="gl" x1="430" y1="110" x2="419" y2="99" marker-end="url(#arrow)"/>
<line class="gl" x1="430" y1="110" x2="441" y2="121" marker-end="url(#arrow)"/>
<line class="gl" x1="430" y1="110" x2="419" y2="121" marker-end="url(#arrow)"/>
<text class="tm gray-t" x="430" y="84" text-anchor="middle">GW-A</text>
<circle class="gray-f" cx="650" cy="110" r="18"/>
<line class="gl" x1="650" y1="110" x2="661" y2="99" marker-end="url(#arrow)"/>
<line class="gl" x1="650" y1="110" x2="639" y2="99" marker-end="url(#arrow)"/>
<line class="gl" x1="650" y1="110" x2="661" y2="121" marker-end="url(#arrow)"/>
<line class="gl" x1="650" y1="110" x2="639" y2="121" marker-end="url(#arrow)"/>
<text class="tm gray-t" x="650" y="84" text-anchor="middle">GW-B</text>

<line class="ln" x1="430" y1="128" x2="430" y2="152"/>
<line class="ln" x1="650" y1="128" x2="650" y2="152"/>
<rect class="teal-f" x="375" y="152" width="110" height="26" rx="6"/>
<text class="ts teal-t" x="430" y="165" text-anchor="middle" dominant-baseline="central">LAN 10.0.3.0/24</text>
<rect class="teal-f" x="595" y="152" width="110" height="26" rx="6"/>
<text class="ts teal-t" x="650" y="165" text-anchor="middle" dominant-baseline="central">LAN 10.0.3.0/24</text>
<text class="ts gray-t" x="540" y="194" text-anchor="middle">stessa VLAN estesa · broadcast/ARP propagati</text>
</svg>
